<?xml version="1.0" standalone="no"?>
<!DOCTYPE svg PUBLIC "-//W3C//DTD SVG 1.1//EN" "http://www.w3.org/Graphics/SVG/1.1/DTD/svg11.dtd" >
<svg>
<metadata>
Created by FontForge 20090622 at Thu Jan 24 17:28:43 2013
 By root
&#194;&#169;2009 Schwartzco Inc.
</metadata>
<defs>
<font id="StagATT-BoldItalic" horiz-adv-x="600" >
  <font-face 
    font-family="Stag ATT Bold"
    font-weight="700"
    font-style="italic"
    font-stretch="normal"
    units-per-em="1000"
    panose-1="2 0 8 3 6 0 0 9 0 4"
    ascent="800"
    descent="-200"
    x-height="528"
    cap-height="700"
    bbox="-258 -237 1242 935"
    underline-thickness="20"
    underline-position="-113"
    slope="-12.5"
    unicode-range="U+0020-U+FB04"
  />
<missing-glyph horiz-adv-x="500" 
 />
    <glyph glyph-name="f_f" unicode="ff" horiz-adv-x="662" 
d="M33 397l29 131h52l3 15q20 86 73 124t141 38q63 0 103 -14l-26 -110h-12q-28 0 -41.5 -8.5t-19.5 -33.5l-3 -11h91l5 23q19 87 73 125t149 38q62 0 107 -15l-27 -114h-22q-31 0 -44.5 -8.5t-19.5 -33.5l-4 -15h71l-30 -131h-69l-79 -359q-18 -79 -63.5 -129.5
t-104.5 -70.5h-138l27 115q22 6 37 25.5t25 61.5l78 357h-90l-79 -359q-18 -79 -63.5 -129.5t-104.5 -70.5h-144l26 115q26 7 43 26t26 61l77 357h-52z" />
    <glyph glyph-name="f_i" unicode="fi" horiz-adv-x="637" 
d="M442 -9q-141 0 -110 136l62 270h-90l-79 -359q-18 -79 -63.5 -129.5t-104.5 -70.5h-144l26 115q26 7 43 26t26 61l78 357h-53l29 131h53l5 23q19 86 73 124.5t142 38.5q65 0 104 -15l-27 -114h-18q-25 0 -38.5 -9t-19.5 -33l-4 -15h186q59 0 85.5 -30t13.5 -86l-61 -264
q-2 -8 3.5 -16.5t12.5 -8.5h30l-24 -105q-48 -27 -136 -27zM542 553q-43 0 -68.5 24t-25.5 61q0 45 31 71.5t76 26.5q43 0 68.5 -23.5t25.5 -60.5q0 -46 -31 -72.5t-76 -26.5z" />
    <glyph glyph-name="f_l" unicode="fl" horiz-adv-x="637" 
d="M33 397l29 131h53l5 23q19 87 75.5 125t153.5 38q50 0 110 -14h190q15 0 21.5 -12t2.5 -32l-117 -508q-2 -8 3.5 -16.5t12.5 -8.5h32l-24 -105q-49 -27 -137 -27q-142 0 -110 136l105 458h-38q-31 0 -44.5 -8.5t-19.5 -33.5l-4 -15h63l-30 -131h-61l-79 -359
q-18 -79 -63.5 -129.5t-104.5 -70.5h-144l26 115q26 7 43 26t26 61l78 357h-53z" />
    <glyph glyph-name="f_f_i" unicode="ffi" horiz-adv-x="945" 
d="M750 -9q-141 0 -110 136l62 270h-90l-79 -359q-18 -79 -63.5 -129.5t-104.5 -70.5h-139l26 115q24 7 39 26t25 61l78 357h-90l-79 -359q-18 -79 -63.5 -129.5t-104.5 -70.5h-144l26 115q26 7 43 26t26 61l77 357h-52l29 131h52l3 15q20 86 73 124t141 38q63 0 103 -14
l-26 -110h-12q-28 0 -41.5 -8.5t-19.5 -33.5l-3 -11h91l5 23q19 86 73 124.5t142 38.5q65 0 104 -15l-27 -114h-18q-25 0 -38.5 -9t-19.5 -33l-4 -15h186q59 0 85.5 -30t13.5 -86l-61 -264q-2 -8 3.5 -16.5t12.5 -8.5h30l-24 -105q-48 -27 -136 -27zM850 553q-43 0 -68.5 24
t-25.5 61q0 45 31 71.5t76 26.5q43 0 68.5 -23.5t25.5 -60.5q0 -46 -31 -72.5t-76 -26.5z" />
    <glyph glyph-name="f_f_l" unicode="ffl" horiz-adv-x="945" 
d="M33 397l29 131h52l3 15q20 86 73 124t141 38q63 0 103 -14l-26 -110h-12q-28 0 -41.5 -8.5t-19.5 -33.5l-3 -11h91l5 23q19 87 75.5 125t153.5 38q50 0 110 -14h190q15 0 21.5 -12t2.5 -32l-117 -508q-2 -8 3.5 -16.5t12.5 -8.5h32l-24 -105q-49 -27 -137 -27
q-142 0 -110 136l105 458h-38q-31 0 -44.5 -8.5t-19.5 -33.5l-4 -15h62l-29 -131h-61l-79 -359q-18 -79 -63.5 -129.5t-104.5 -70.5h-139l26 115q24 7 39 26t25 61l78 357h-90l-79 -359q-18 -79 -63.5 -129.5t-104.5 -70.5h-144l26 115q26 7 43 26t26 61l77 357h-52z" />
    <glyph glyph-name="f_b" unicode="fb" horiz-adv-x="932" 
d="M658 -10q-98 0 -147 72q-49 -62 -86 -62h-121l134 585h-38q-31 0 -44.5 -8.5t-19.5 -33.5l-4 -15h63l-30 -131h-61l-79 -359q-18 -79 -63.5 -129.5t-104.5 -70.5h-144l26 115q26 7 43 26t26 61l78 357h-53l29 131h53l5 23q19 87 75.5 125t153.5 38q50 0 110 -14h190
q15 0 21.5 -12t2.5 -32l-44 -192q70 74 153 74q66 0 107.5 -45t41.5 -129q0 -90 -24.5 -165.5t-62.5 -121.5q-73 -87 -186 -87zM639 379q-14 0 -31 -5l-55 -238q20 -11 42 -11q53 0 84.5 52.5t31.5 130.5q0 38 -17.5 54.5t-54.5 16.5z" />
    <glyph glyph-name="f_h" unicode="fh" horiz-adv-x="944" 
d="M438 585h-38q-31 0 -44.5 -8.5t-19.5 -33.5l-4 -15h63l-30 -131h-61l-79 -359q-18 -79 -63.5 -129.5t-104.5 -70.5h-144l26 115q26 7 43 26t26 61l78 357h-53l29 131h53l5 23q19 87 75.5 125t153.5 38q50 0 110 -14h190q15 0 21.5 -12t2.5 -32l-49 -213q99 95 197 95
q63 0 92.5 -38t13.5 -105l-57 -247q-2 -8 3.5 -16.5t12.5 -8.5h26l-24 -105q-49 -27 -132 -27q-141 0 -109 136l45 192q6 24 -3.5 36t-39.5 12q-19 0 -45 -8l-82 -359h-194q-9 0 -14.5 9t-3.5 19z" />
    <glyph glyph-name="f_j" unicode="fj" horiz-adv-x="612" 
d="M617 412l-97 -419q-20 -89 -71 -126t-138 -37q-59 0 -110 15l25 110h22q26 0 38 10.5t18 37.5l90 394h-90l-79 -359q-18 -79 -63.5 -129.5t-104.5 -70.5h-144l26 115q26 7 43 26t26 61l78 357h-53l29 131h53l5 23q19 86 73 124.5t142 38.5q65 0 104 -15l-27 -114h-18
q-25 0 -38.5 -9t-19.5 -33l-4 -15h186q59 0 85.5 -30t13.5 -86zM542 553q-43 0 -68.5 24t-25.5 61q0 45 31 71.5t76 26.5q43 0 68.5 -23.5t25.5 -60.5q0 -46 -31 -72.5t-76 -26.5z" />
    <glyph glyph-name="f_k" unicode="fk" horiz-adv-x="901" 
d="M438 585h-38q-31 0 -44.5 -8.5t-19.5 -33.5l-4 -15h63l-30 -131h-61l-79 -359q-18 -79 -63.5 -129.5t-104.5 -70.5h-144l26 115q26 7 43 26t26 61l78 357h-53l29 131h53l5 23q19 87 75.5 125t153.5 38q50 0 110 -14h190q15 0 21.5 -12t2.5 -32l-77 -335q57 42 101.5 101
t55.5 106h181l-23 -105q-49 -69 -133 -140l56 -135q11 -25 28 -25h21l-24 -105q-41 -27 -102 -27q-30 0 -50 6t-34 22.5t-21 30t-20 44.5l-35 87q-35 -15 -37 -16l-38 -165h-194q-9 0 -14.5 9t-3.5 19z" />
    <glyph glyph-name="f_t" unicode="ft" horiz-adv-x="673" 
d="M503 -11q-202 0 -160 184l52 224h-91l-79 -359q-18 -79 -63.5 -129.5t-104.5 -70.5h-144l26 115q26 7 43 26t26 61l78 357h-53l29 131h53l5 23q19 86 73 124.5t142 38.5q62 0 101 -15l-27 -114h-15q-25 0 -38.5 -9t-19.5 -33l-4 -15h93l32 137h219l-32 -137h77l-29 -131
h-78l-49 -211q-14 -63 49 -63h20l-27 -119q-51 -15 -104 -15z" />
    <glyph glyph-name="f_f_b" unicode="ffb" horiz-adv-x="1240" 
d="M966 -10q-98 0 -147 72q-49 -62 -86 -62h-121l134 585h-38q-31 0 -44.5 -8.5t-19.5 -33.5l-4 -15h62l-29 -131h-61l-79 -359q-18 -79 -63.5 -129.5t-104.5 -70.5h-139l26 115q48 14 64 87l78 357h-90l-79 -359q-18 -79 -63.5 -129.5t-104.5 -70.5h-144l26 115q26 7 43 26
t26 61l77 357h-52l29 131h52l3 15q20 86 73 124t141 38q63 0 103 -14l-26 -110h-12q-28 0 -41.5 -8.5t-19.5 -33.5l-3 -11h91l5 23q19 87 75.5 125t153.5 38q50 0 110 -14h190q15 0 21.5 -12t2.5 -32l-44 -192q70 74 153 74q66 0 107.5 -45t41.5 -129q0 -90 -24.5 -165.5
t-62.5 -121.5q-73 -87 -186 -87zM947 379q-14 0 -31 -5l-55 -238q20 -11 42 -11q53 0 84.5 52.5t31.5 130.5q0 38 -17.5 54.5t-54.5 16.5z" />
    <glyph glyph-name="f_f_h" unicode="ffh" horiz-adv-x="1252" 
d="M746 585h-38q-31 0 -44.5 -8.5t-19.5 -33.5l-4 -15h62l-29 -131h-61l-79 -359q-18 -79 -63.5 -129.5t-104.5 -70.5h-139l26 115q48 14 64 87l78 357h-90l-79 -359q-18 -79 -63.5 -129.5t-104.5 -70.5h-144l26 115q26 7 43 26t26 61l77 357h-52l29 131h52l3 15
q20 86 73 124t141 38q63 0 103 -14l-26 -110h-12q-28 0 -41.5 -8.5t-19.5 -33.5l-3 -11h91l5 23q19 87 75.5 125t153.5 38q50 0 110 -14h190q15 0 21.5 -12t2.5 -32l-49 -213q99 95 197 95q63 0 92.5 -38t13.5 -105l-57 -247q-2 -8 3.5 -16.5t12.5 -8.5h26l-24 -105
q-49 -27 -132 -27q-141 0 -109 136l45 192q6 24 -3.5 36t-39.5 12q-19 0 -45 -8l-82 -359h-194q-9 0 -14.5 9t-3.5 19z" />
    <glyph glyph-name="f_f_j" unicode="ffj" horiz-adv-x="946" 
d="M226 -162l26 115q48 14 64 87l78 357h-90l-79 -359q-18 -79 -63.5 -129.5t-104.5 -70.5h-144l26 115q26 7 43 26t26 61l77 357h-52l29 131h52l3 15q20 86 73 124t141 38q63 0 103 -14l-26 -110h-12q-28 0 -41.5 -8.5t-19.5 -33.5l-3 -11h91l5 23q19 86 73 124.5t142 38.5
q65 0 104 -15l-27 -114h-18q-25 0 -38.5 -9t-19.5 -33l-4 -15h186q59 0 85.5 -30t13.5 -86l-97 -419q-20 -89 -71 -126t-138 -37q-59 0 -110 15l25 110h22q26 0 38 10.5t18 37.5l90 394h-90l-79 -359q-18 -79 -63.5 -129.5t-104.5 -70.5h-139zM850 553q-43 0 -68.5 24
t-25.5 61q0 45 31 71.5t76 26.5q43 0 68.5 -23.5t25.5 -60.5q0 -46 -31 -72.5t-76 -26.5z" />
    <glyph glyph-name="f_f_k" unicode="ffk" horiz-adv-x="1209" 
d="M746 585h-38q-31 0 -44.5 -8.5t-19.5 -33.5l-4 -15h62l-29 -131h-61l-79 -359q-18 -79 -63.5 -129.5t-104.5 -70.5h-139l26 115q48 14 64 87l78 357h-90l-79 -359q-18 -79 -63.5 -129.5t-104.5 -70.5h-144l26 115q26 7 43 26t26 61l77 357h-52l29 131h52l3 15
q20 86 73 124t141 38q63 0 103 -14l-26 -110h-12q-28 0 -41.5 -8.5t-19.5 -33.5l-3 -11h91l5 23q19 87 75.5 125t153.5 38q50 0 110 -14h190q15 0 21.5 -12t2.5 -32l-77 -335q57 42 101.5 101t55.5 106h181l-23 -105q-49 -69 -133 -140l56 -135q11 -25 28 -25h21l-24 -105
q-41 -27 -102 -27q-30 0 -50 6t-34 22.5t-21 30t-20 44.5l-35 87q-35 -15 -37 -16l-38 -165h-194q-9 0 -14.5 9t-3.5 19z" />
    <glyph glyph-name="f_f_t" unicode="fft" horiz-adv-x="981" 
d="M226 -162l26 115q48 14 64 87l78 357h-90l-79 -359q-18 -79 -63.5 -129.5t-104.5 -70.5h-144l26 115q26 7 43 26t26 61l77 357h-52l29 131h52l3 15q20 86 73 124t141 38q63 0 103 -14l-26 -110h-12q-28 0 -41.5 -8.5t-19.5 -33.5l-3 -11h91l5 23q19 86 73 124.5t142 38.5
q62 0 101 -15l-27 -114h-15q-25 0 -38.5 -9t-19.5 -33l-4 -15h93l32 137h219l-32 -137h77l-29 -131h-78l-49 -211q-14 -63 49 -63h20l-27 -119q-51 -15 -104 -15q-202 0 -160 184l52 224h-91l-79 -359q-18 -79 -63.5 -129.5t-104.5 -70.5h-139z" />
    <glyph glyph-name="f_igrave" unicode="f&#xec;" horiz-adv-x="637" 
d="M442 -9q-141 0 -110 136l62 270h-90l-79 -359q-18 -79 -63.5 -129.5t-103.5 -70.5h-145l26 115q26 7 43 26t26 61l78 357h-53l29 131h53l5 23q36 163 209 163q55 0 100 -15l-27 -114h-11q-24 0 -36.5 -8.5t-18.5 -33.5l-4 -15h186q59 0 85.5 -30t13.5 -86l-61 -264
q-2 -8 3.5 -16.5t12.5 -8.5h30l-23 -105q-49 -27 -137 -27zM495 557l-60 87l13 56h166l3 -143h-122z" />
    <glyph glyph-name="f_iacute" unicode="f&#xed;" horiz-adv-x="637" 
d="M442 -9q-141 0 -110 136l62 270h-90l-79 -359q-18 -79 -63.5 -129.5t-103.5 -70.5h-145l26 115q26 7 43 26t26 61l78 357h-53l29 131h53l5 23q19 87 73 125t149 38q62 0 107 -15l-27 -114h-22q-31 0 -44.5 -8.5t-19.5 -33.5l-4 -15h186q59 0 85.5 -30t13.5 -86l-61 -264
q-2 -8 3.5 -16.5t12.5 -8.5h30l-23 -105q-49 -27 -137 -27zM458 557l49 143h201l-14 -56l-109 -87h-127z" />
    <glyph glyph-name="f_icircumflex" unicode="f&#xee;" horiz-adv-x="637" 
d="M442 -9q-141 0 -110 136l62 270h-90l-79 -359q-18 -79 -63.5 -129.5t-103.5 -70.5h-145l26 115q26 7 43 26t26 61l78 357h-53l29 131h53l5 23q36 163 212 163q52 0 91 -15l-27 -114h-8q-23 0 -34.5 -8.5t-17.5 -33.5l-4 -15h186q59 0 85.5 -30t13.5 -86l-61 -264
q-2 -8 3.5 -16.5t12.5 -8.5h30l-23 -105q-49 -27 -137 -27zM406 557l9 40l79 103h129l45 -103l-10 -40h-86l-30 47l-47 -47h-89z" />
    <glyph glyph-name="f_idieresis" unicode="f&#xef;" horiz-adv-x="637" 
d="M442 -9q-141 0 -110 136l62 270h-90l-79 -359q-18 -79 -63.5 -129.5t-103.5 -70.5h-145l26 115q26 7 43 26t26 61l78 357h-53l29 131h53l5 23q36 163 212 163q52 0 91 -15l-27 -114h-8q-23 0 -34.5 -8.5t-17.5 -33.5l-4 -15h186q59 0 85.5 -30t13.5 -86l-61 -264
q-2 -8 3.5 -16.5t12.5 -8.5h30l-23 -105q-49 -27 -137 -27zM481 554q-30 0 -47 17t-17 45q0 48 25.5 78.5t62.5 30.5q30 0 47.5 -17t17.5 -46q0 -47 -25.5 -77.5t-63.5 -30.5zM642 554q-29 0 -46.5 17t-17.5 46q0 47 25.5 77.5t62.5 30.5q30 0 47 -17.5t17 -46.5
q0 -47 -25 -77t-63 -30z" />
    <glyph glyph-name="f_iogonek" unicode="f&#x12f;" horiz-adv-x="637" 
d="M-87 -162l26 115q26 7 43 26t26 61l78 357h-53l29 131h53l5 23q19 86 73 124.5t142 38.5q65 0 104 -15l-27 -114h-18q-25 0 -38.5 -9t-19.5 -33l-4 -15h186q59 0 85.5 -30t13.5 -86l-61 -264q-2 -8 3 -16.5t12 -8.5h31l-24 -105q-71 -43 -71 -73q0 -23 33 -23h21l-19 -77
q-28 -14 -68 -14q-47 0 -76 18.5t-29 51.5q0 56 87 90h-17q-139 3 -107 136l62 270h-90l-79 -359q-18 -79 -63.5 -129.5t-103.5 -70.5h-145zM542 553q-43 0 -68.5 24t-25.5 61q0 45 31 71.5t76 26.5q43 0 68.5 -23.5t25.5 -59.5q0 -46 -31 -73t-76 -27z" />
    <glyph glyph-name="f_imacron" unicode="f&#x12b;" horiz-adv-x="637" 
d="M442 -9q-141 0 -110 136l62 270h-90l-79 -359q-18 -79 -63.5 -129.5t-103.5 -70.5h-145l26 115q26 7 43 26t26 61l78 357h-53l29 131h53l5 23q19 86 71.5 124.5t137.5 38.5q54 0 95 -15l-26 -114h-10q-23 0 -34.5 -8.5t-17.5 -33.5l-4 -15h186q59 0 85.5 -30t13.5 -86
l-61 -264q-2 -8 3.5 -16.5t12.5 -8.5h30l-23 -105q-49 -27 -137 -27zM414 573l28 120h243l-28 -120h-243z" />
    <glyph glyph-name="f_f_igrave" unicode="ff&#xec;" horiz-adv-x="945" 
d="M226 -162l27 115q47 13 63 87l78 357h-90l-79 -359q-18 -79 -63.5 -129.5t-103.5 -70.5h-145l26 115q26 7 43 26t26 61l77 357h-52l29 131h52l3 15q35 162 214 162q63 0 103 -14l-26 -110h-12q-28 0 -41.5 -8.5t-19.5 -33.5l-3 -11h91l5 23q36 163 209 163q55 0 100 -15
l-27 -114h-11q-24 0 -36.5 -8.5t-18.5 -33.5l-4 -15h186q59 0 85.5 -30t13.5 -86l-61 -264q-2 -8 3.5 -16.5t12.5 -8.5h30l-24 -105q-48 -27 -136 -27q-141 0 -110 136l62 270h-90l-79 -359q-18 -79 -63.5 -129.5t-104.5 -70.5h-139zM803 557l-60 87l13 56h166l3 -143h-122z
" />
    <glyph glyph-name="f_f_iacute" unicode="ff&#xed;" horiz-adv-x="945" 
d="M226 -162l27 115q47 13 63 87l78 357h-90l-79 -359q-18 -79 -63.5 -129.5t-103.5 -70.5h-145l26 115q26 7 43 26t26 61l77 357h-52l29 131h52l3 15q35 162 214 162q63 0 103 -14l-26 -110h-12q-28 0 -41.5 -8.5t-19.5 -33.5l-3 -11h91l5 23q19 87 73 125t149 38
q62 0 107 -15l-27 -114h-22q-31 0 -44.5 -8.5t-19.5 -33.5l-4 -15h186q59 0 85.5 -30t13.5 -86l-61 -264q-2 -8 3.5 -16.5t12.5 -8.5h30l-24 -105q-48 -27 -136 -27q-141 0 -110 136l62 270h-90l-79 -359q-18 -79 -63.5 -129.5t-104.5 -70.5h-139zM766 557l49 143h201
l-14 -56l-109 -87h-127z" />
    <glyph glyph-name="f_f_icircumflex" unicode="ff&#xee;" horiz-adv-x="945" 
d="M226 -162l27 115q47 13 63 87l78 357h-90l-79 -359q-18 -79 -63.5 -129.5t-103.5 -70.5h-145l26 115q26 7 43 26t26 61l77 357h-52l29 131h52l3 15q35 162 214 162q63 0 103 -14l-26 -110h-12q-28 0 -41.5 -8.5t-19.5 -33.5l-3 -11h91l5 23q36 163 212 163q52 0 91 -15
l-27 -114h-8q-23 0 -34.5 -8.5t-17.5 -33.5l-4 -15h186q59 0 85.5 -30t13.5 -86l-61 -264q-2 -8 3.5 -16.5t12.5 -8.5h30l-24 -105q-48 -27 -136 -27q-141 0 -110 136l62 270h-90l-79 -359q-18 -79 -63.5 -129.5t-104.5 -70.5h-139zM714 557l9 40l79 103h129l45 -103
l-10 -40h-86l-30 47l-47 -47h-89z" />
    <glyph glyph-name="f_f_idieresis" unicode="ff&#xef;" horiz-adv-x="945" 
d="M226 -162l27 115q47 13 63 87l78 357h-90l-79 -359q-18 -79 -63.5 -129.5t-103.5 -70.5h-145l26 115q26 7 43 26t26 61l77 357h-52l29 131h52l3 15q35 162 214 162q63 0 103 -14l-26 -110h-12q-28 0 -41.5 -8.5t-19.5 -33.5l-3 -11h91l5 23q36 163 209 163q49 0 90 -15
l-27 -114h-5q-22 0 -33.5 -9t-17.5 -33l-4 -15h186q59 0 85.5 -30t13.5 -86l-61 -264q-2 -8 3.5 -16.5t12.5 -8.5h30l-24 -105q-48 -27 -136 -27q-141 0 -110 136l62 270h-90l-79 -359q-18 -79 -63.5 -129.5t-104.5 -70.5h-139zM789 554q-30 0 -47 17t-17 45q0 48 25.5 78.5
t62.5 30.5q30 0 47.5 -17t17.5 -46q0 -47 -25.5 -77.5t-63.5 -30.5zM949 554q-29 0 -46 17t-17 46q0 47 25.5 77.5t62.5 30.5q30 0 47 -17.5t17 -46.5q0 -47 -25.5 -77t-63.5 -30z" />
    <glyph glyph-name="f_f_iogonek" unicode="ff&#x12f;" horiz-adv-x="945" 
d="M226 -162l27 115q47 13 63 87l78 357h-90l-79 -359q-18 -79 -63.5 -129.5t-103.5 -70.5h-145l26 115q26 7 43 26t26 61l77 357h-52l29 131h52l3 15q35 162 214 162q63 0 103 -14l-26 -110h-12q-28 0 -41.5 -8.5t-19.5 -33.5l-3 -11h91l5 23q19 86 73 124.5t142 38.5
q65 0 104 -15l-27 -114h-18q-25 0 -38.5 -9t-19.5 -33l-4 -15h186q59 0 85.5 -30t13.5 -86l-61 -264q-2 -8 3 -16.5t12 -8.5h31l-24 -105q-71 -43 -71 -73q0 -23 33 -23h21l-19 -77q-28 -14 -68 -14q-47 0 -76 18.5t-29 51.5q0 56 87 90h-17q-139 3 -107 136l62 270h-90
l-79 -359q-18 -79 -63.5 -129.5t-104.5 -70.5h-139zM850 553q-43 0 -68.5 24t-25.5 61q0 45 31 71.5t76 26.5q43 0 68.5 -23.5t25.5 -59.5q0 -46 -31 -73t-76 -27z" />
    <glyph glyph-name="f_f_imacron" unicode="ff&#x12b;" horiz-adv-x="945" 
d="M226 -162l27 115q47 13 63 87l78 357h-90l-79 -359q-18 -79 -63.5 -129.5t-103.5 -70.5h-145l26 115q26 7 43 26t26 61l77 357h-52l29 131h52l3 15q35 162 214 162q63 0 103 -14l-26 -110h-12q-28 0 -41.5 -8.5t-19.5 -33.5l-3 -11h91l5 23q19 86 71.5 124.5t137.5 38.5
q55 0 94 -15l-25 -114h-10q-23 0 -34.5 -8.5t-17.5 -33.5l-4 -15h186q59 0 85.5 -30t13.5 -86l-61 -264q-2 -8 3.5 -16.5t12.5 -8.5h30l-24 -105q-48 -27 -136 -27q-141 0 -110 136l62 270h-90l-79 -359q-18 -79 -63.5 -129.5t-104.5 -70.5h-139zM722 573l28 120h242
l-27 -120h-243z" />
    <glyph glyph-name=".notdef" horiz-adv-x="500" 
 />
    <glyph glyph-name=".null" horiz-adv-x="0" 
 />
    <glyph glyph-name="nonmarkingreturn" horiz-adv-x="333" 
 />
    <glyph glyph-name="space" unicode=" " horiz-adv-x="137" 
 />
    <glyph glyph-name="exclam" unicode="!" horiz-adv-x="248" 
d="M58 219l28 353l30 128h221l-30 -128l-145 -353h-104zM82 -7q-42 0 -70 27t-28 64q0 44 31 73.5t74 29.5q42 0 70 -27.5t28 -65.5q0 -43 -31 -72t-74 -29z" />
    <glyph glyph-name="quotedbl" unicode="&#x22;" horiz-adv-x="423" 
d="M305 431l-3 169l24 100h185l-23 -100l-83 -169h-100zM94 431l-2 169l24 100h185l-23 -100l-83 -169h-101z" />
    <glyph glyph-name="numbersign" unicode="#" horiz-adv-x="489" 
d="M58 395l36 155h75l41 150h119l-41 -150h61l41 150h119l-41 -150h70l-36 -155h-76l-18 -66h71l-36 -155h-77l-47 -174h-119l47 174h-61l-47 -174h-119l47 174h-68l35 155h75l18 66h-69zM246 395l-18 -66h61l18 66h-61z" />
    <glyph glyph-name="dollar" unicode="$" horiz-adv-x="550" 
d="M532 253q0 -99 -63.5 -165.5t-188.5 -80.5l-25 -109h-150l25 109q-87 7 -169 33l39 169h117q9 -38 31.5 -55t67.5 -17q40 0 66 17.5t26 52.5q0 6 -1 11t-3.5 9.5t-5 7.5t-8.5 7t-9.5 6t-12 6t-14 6l-17 6.5t-18.5 7.5q-75 29 -117 68t-42 110q0 100 65 163.5t181 76.5
l18 78h150l-18 -79q63 -7 142 -28l-37 -160h-110q-18 69 -88 69q-43 0 -66.5 -18t-23.5 -50q0 -21 13.5 -31t52.5 -26q5 -2 8 -3q98 -37 141.5 -78t43.5 -113z" />
    <glyph glyph-name="percent" unicode="%" horiz-adv-x="856" 
d="M229 323q-72 0 -117.5 40.5t-45.5 111.5q0 104 67.5 169t156.5 65q73 0 119 -40.5t46 -111.5q0 -105 -68.5 -169.5t-157.5 -64.5zM70 -34l636 763h118l-636 -763h-118zM605 -9q-72 0 -117.5 40t-45.5 111q0 105 67.5 170t155.5 65q74 0 120 -40.5t46 -111.5
q0 -105 -68.5 -169.5t-157.5 -64.5zM242 417q28 0 48 49.5t20 101.5q0 46 -32 46q-28 0 -48.5 -50t-20.5 -103q0 -44 33 -44zM618 84q28 0 48 49.5t20 102.5q0 45 -32 45q-28 0 -48.5 -50t-20.5 -103q0 -44 33 -44z" />
    <glyph glyph-name="ampersand" unicode="&#x26;" horiz-adv-x="735" 
d="M264 -9q-136 0 -202.5 50t-66.5 132q0 92 56.5 149t147.5 82q-15 42 -15 78q0 106 69 167t184 61q72 0 107 -10h152l-45 -201h-139l-6 63q-10 4 -28 4q-67 0 -67 -66q0 -33 39 -87l82 -113q31 61 48 120h165l-21 -91q-41 -81 -103 -151l24 -32q16 -23 31 -23h18l-28 -123
h-190l-28 38q-91 -47 -184 -47zM307 129q35 0 66 12l-115 159q-41 -35 -41 -90q0 -37 23 -59t67 -22z" />
    <glyph glyph-name="quotesingle" unicode="'" horiz-adv-x="226" 
d="M100 431l-8 169l24 100h198l-23 -100l-88 -169h-103z" />
    <glyph glyph-name="parenleft" unicode="(" horiz-adv-x="331" 
d="M168 -49q-148 95 -148 297q0 184 94.5 319t224.5 174h94l-26 -116q-79 -23 -140.5 -134t-61.5 -258q0 -131 72 -171l-26 -111h-83z" />
    <glyph glyph-name="parenright" unicode=")" horiz-adv-x="332" 
d="M-62 -49l25 111q81 28 142.5 139t61.5 258q0 127 -73 166l26 116h83q149 -93 149 -297q0 -185 -93.5 -317.5t-226.5 -175.5h-94z" />
    <glyph glyph-name="asterisk" unicode="*" horiz-adv-x="396" 
d="M175 326l-12 67l83 108l-103 -90l-65 1l-20 69l47 40l137 -7l-130 33l-24 51l52 58l58 -18l54 -112l-29 123l35 51h81l10 -66l-82 -110l102 89h65l21 -69l-47 -40l-137 6l131 -32l23 -51l-49 -58l-59 16l-57 114l29 -122l-34 -51h-80z" />
    <glyph glyph-name="plus" unicode="+" horiz-adv-x="517" 
d="M12 269l36 153h164l41 177h168l-41 -177h164l-35 -153h-164l-41 -177h-168l41 177h-165z" />
    <glyph glyph-name="comma" unicode="," horiz-adv-x="225" 
d="M-77 -120l18 77q76 11 76 46q0 6 -2.5 10t-10 10t-12.5 11q-22 22 -22 51q0 44 30 73t75 29q42 0 69.5 -26.5t27.5 -73.5q0 -95 -67 -148.5t-182 -58.5z" />
    <glyph glyph-name="hyphen" unicode="-" horiz-adv-x="291" 
d="M7 219l36 154h257l-36 -154h-257z" />
    <glyph glyph-name="period" unicode="." horiz-adv-x="223" 
d="M68 -7q-42 0 -70 27t-28 64q0 44 31.5 73.5t73.5 29.5q43 0 71 -27.5t28 -65.5q0 -43 -31.5 -72t-74.5 -29z" />
    <glyph glyph-name="slash" unicode="/" horiz-adv-x="364" 
d="M-80 -49l417 790h145l-418 -790h-144z" />
    <glyph glyph-name="zero" unicode="0" horiz-adv-x="689" 
d="M309 -11q-133 0 -208.5 75.5t-75.5 204.5q0 82 29 163t77 139q115 139 291 139q130 0 206 -78.5t76 -206.5q0 -83 -29 -164.5t-77 -138.5q-112 -133 -289 -133zM322 135q63 0 101 87q20 47 34.5 114t14.5 119q0 98 -67 98q-61 0 -100 -87q-21 -47 -36 -115t-15 -116
q0 -100 68 -100z" />
    <glyph glyph-name="one" unicode="1" horiz-adv-x="420" 
d="M-44 0l28 123h61q8 0 18.5 10t12.5 19l86 374l-61 -27h-37l30 131l168 70h174l-126 -548q-2 -9 2.5 -19t12.5 -10h54l-28 -123h-395z" />
    <glyph glyph-name="two" unicode="2" horiz-adv-x="551" 
d="M-51 0l23 97q21 91 74 148t146 108l29.5 16.5l29 16t25 14t23.5 15l18 14t16 15.5l11 16t8 18t2 19q0 51 -58 51q-64 0 -103 -56h-115l41 181q98 37 219 37q125 0 190.5 -46t65.5 -135q0 -50 -16.5 -90.5t-49.5 -71.5t-66 -51.5t-81 -43.5l-26 -12.5l-27.5 -13l-26 -12.5
t-26 -13.5l-22.5 -13t-21 -13.5l-17 -13t-14.5 -13.5t-8.5 -13.5h159l29 56h137l-48 -210h-520z" />
    <glyph glyph-name="three" unicode="3" horiz-adv-x="552" 
d="M212 -11q-160 0 -254 48l36 155h117q20 -55 91 -55q42 0 68 22t26 66q0 58 -79 58h-59l31 134h58q50 0 74.5 22.5t24.5 57.5q0 25 -16.5 40.5t-47.5 15.5q-54 0 -93 -47h-111l39 171q105 34 208 34q122 0 186.5 -45t64.5 -124q0 -157 -172 -189v-4q121 -25 121 -131
q0 -107 -84 -168t-229 -61z" />
    <glyph glyph-name="four" unicode="4" horiz-adv-x="592" 
d="M170 0l28 123h40q8 0 18.5 10.5t12.5 18.5l7 30h-285l35 156l380 362h220l-89 -383h60l-31 -135h-60l-7 -30q-2 -9 3 -19t13 -10h36l-28 -123h-353zM171 321v-4h143l43 182h-4z" />
    <glyph glyph-name="five" unicode="5" horiz-adv-x="547" 
d="M207 -11q-156 0 -250 46l36 156h120q19 -54 86 -54q42 0 69.5 28.5t27.5 77.5q0 64 -66 64q-47 0 -77 -34h-128l99 427h476l-46 -199h-136l-7 40h-165l-32 -139h3q52 44 130 44q86 0 135.5 -46.5t49.5 -130.5q0 -131 -88 -205.5t-237 -74.5z" />
    <glyph glyph-name="six" unicode="6" horiz-adv-x="630" 
d="M291 -11q-128 0 -200 67t-72 183q0 99 33 188t88 151q118 132 321 132q113 0 206 -32l-37 -161h-109q-31 33 -82 33q-76 0 -125 -74q-23 -35 -40 -89q70 60 163 60q85 0 132.5 -43t47.5 -121q-1 -129 -91.5 -211.5t-234.5 -82.5zM321 314q-30 0 -70 -17q-8 -53 -8 -91
q0 -79 54 -79q40 0 64 39.5t24 90.5q0 57 -64 57z" />
    <glyph glyph-name="seven" unicode="7" horiz-adv-x="537" 
d="M43 0l21 95l376 435v4h-211l-39 -74h-135l55 240h519l-41 -177l-312 -523h-233z" />
    <glyph glyph-name="eight" unicode="8" horiz-adv-x="626" 
d="M283 -11q-142 0 -215 50.5t-73 133.5q0 77 47.5 130t130.5 74v3q-79 34 -79 115q0 100 86.5 158t211.5 58q120 0 189.5 -48t69.5 -125q0 -62 -38.5 -106t-107.5 -63v-4q99 -37 99 -131q0 -113 -87 -179t-234 -66zM358 426q33 0 53 25.5t20 64.5q-2 54 -52 54
q-34 0 -54.5 -27t-20.5 -66q0 -23 13.5 -37t40.5 -14zM290 130q43 0 68 34t25 80q0 66 -67 66q-43 0 -67 -34t-24 -80q0 -66 65 -66z" />
    <glyph glyph-name="nine" unicode="9" horiz-adv-x="629" 
d="M200 -10q-123 0 -208 32l37 155h110q33 -33 82 -33q88 0 137 74q23 36 40 90q-70 -59 -165 -59q-84 0 -131.5 43.5t-47.5 123.5q0 129 91 211.5t235 82.5q128 0 200 -67t72 -183q0 -99 -32.5 -191t-87.5 -153q-112 -126 -332 -126zM349 382q36 0 70 17q9 51 9 94
q0 79 -54 79q-40 0 -64 -40t-24 -91q0 -59 63 -59z" />
    <glyph glyph-name="colon" unicode=":" horiz-adv-x="219" 
d="M131 275q-41 0 -68.5 26.5t-27.5 62.5q0 43 30.5 72t72.5 29q41 0 68.5 -27t27.5 -64q0 -42 -31 -70.5t-72 -28.5zM66 -7q-41 0 -68.5 26.5t-27.5 62.5q0 43 30.5 72t72.5 29q41 0 68.5 -27t27.5 -64q0 -42 -31 -70.5t-72 -28.5z" />
    <glyph glyph-name="semicolon" unicode=";" horiz-adv-x="220" 
d="M131 275q-41 0 -68.5 26.5t-27.5 62.5q0 43 30.5 72t72.5 29q41 0 68.5 -27t27.5 -64q0 -42 -31 -70.5t-72 -28.5zM-77 -118l18 77q33 4 54 15.5t21 28.5q0 6 -2.5 9.5t-10 9.5t-12.5 11q-21 21 -21 50q0 43 29 71.5t73 28.5q41 0 67.5 -26t26.5 -72q0 -93 -65 -145
t-178 -58z" />
    <glyph glyph-name="less" unicode="&#x3c;" horiz-adv-x="445" 
d="M340 78l-326 198l29 123l409 181h53l-37 -162l-230 -90v-3l185 -101l-34 -146h-49z" />
    <glyph glyph-name="equal" unicode="=" horiz-adv-x="492" 
d="M34 337l34 147h460l-34 -147h-460zM-13 133l34 148h460l-34 -148h-460z" />
    <glyph glyph-name="greater" unicode="&#x3e;" horiz-adv-x="445" 
d="M-28 78l37 162l230 90v3l-185 101l33 146h50l325 -197l-28 -123l-409 -182h-53z" />
    <glyph glyph-name="question" unicode="?" horiz-adv-x="471" 
d="M111 219q-2 61 20.5 105t69.5 84l29 22t35.5 28.5t22 28t11.5 37.5q0 39 -42 39q-41 0 -69 -50h-119l38 163q87 35 196 35q110 0 165.5 -43.5t55.5 -115.5q0 -43 -12.5 -76.5t-39.5 -59.5t-50.5 -41.5t-65.5 -38.5q-40 -22 -59 -34.5t-36 -34t-19 -48.5h-131zM154 -7
q-42 0 -70 27t-28 64q0 44 31 73.5t74 29.5t71 -27.5t28 -65.5q0 -43 -31.5 -72t-74.5 -29z" />
    <glyph glyph-name="at" unicode="@" horiz-adv-x="867" 
d="M438 -134q-81 0 -153 22t-130.5 66t-93 117.5t-34.5 168.5q0 99 41 182.5t106.5 135.5t142.5 80.5t153 28.5q104 0 191 -37.5t141.5 -114t54.5 -178.5q0 -133 -75 -201.5t-191 -68.5q-107 0 -132 66q-53 -63 -125 -63q-56 0 -88.5 35t-32.5 98q0 109 69 188q57 62 141 62
q64 0 101 -44q36 38 60 38h98l-54 -242q-14 -56 23 -56q45 0 81 49.5t36 138.5q0 120 -82 188t-216 68q-65 0 -125.5 -22t-110.5 -64t-80.5 -111.5t-30.5 -155.5q0 -153 85.5 -226.5t229.5 -73.5t237 60h61l-14 -62q-50 -32 -125.5 -52t-158.5 -20zM414 169q20 0 38 15
l38 164q-12 4 -27 4q-37 0 -59.5 -42.5t-22.5 -101.5q0 -39 33 -39z" />
    <glyph glyph-name="A" unicode="A" horiz-adv-x="748" 
d="M-51 0l28 123h12q28 0 45 31l227 391q6 8 2.5 17.5t-12.5 9.5h-35l29 128h377l45 -554q1 -8 9 -15.5t15 -7.5h17l-29 -123h-354l28 123h79l-5 91h-192q-25 -45 -22.5 -68t38.5 -23h25l-28 -123h-299zM408 528l-115 -208h128l-11 208h-2z" />
    <glyph glyph-name="B" unicode="B" horiz-adv-x="665" 
d="M-51 0l28 123h33q8 0 18.5 10.5t12.5 18.5l90 392q2 9 -2.5 18.5t-13.5 9.5h-34l30 128h319q127 0 192 -40.5t65 -118.5q0 -143 -168 -176v-4q127 -25 127 -132q0 -108 -87 -168.5t-231 -60.5h-379zM266 129h45q103 0 103 106q0 63 -73 63h-36zM367 568l-35 -151h39
q91 0 91 92q0 59 -67 59h-28z" />
    <glyph glyph-name="C" unicode="C" horiz-adv-x="632" 
d="M337 -11q-154 0 -233 72t-79 200q0 192 115 321t290 129q72 0 118 -11h169l-58 -250h-145l-5 100q-22 8 -50 8q-84 0 -139.5 -82t-55.5 -214q0 -120 98 -120q69 0 129 67h115l-36 -161q-105 -59 -233 -59z" />
    <glyph glyph-name="D" unicode="D" horiz-adv-x="734" 
d="M-51 0l28 123h29q9 0 21 10.5t14 18.5l90 392q2 8 -4.5 18t-14.5 10h-31l30 128h300q162 0 250 -74.5t88 -210.5q0 -88 -28.5 -163t-84 -131.5t-144 -88.5t-201.5 -32h-342zM270 129h36q95 0 151 80t56 215q0 68 -31 103.5t-88 35.5h-25z" />
    <glyph glyph-name="E" unicode="E" horiz-adv-x="619" 
d="M-51 0l28 123h33q8 0 18.5 10.5t12.5 18.5l90 392q2 9 -2.5 18.5t-13.5 9.5h-34l30 128h587l-53 -227h-132l-3 89h-141l-31 -135h157l-33 -140h-157l-35 -153h148l43 106h142l-55 -240h-599z" />
    <glyph glyph-name="F" unicode="F" horiz-adv-x="601" 
d="M-51 0l28 123h33q8 0 18.5 10.5t12.5 18.5l90 392q2 9 -2.5 18.5t-13.5 9.5h-34l30 128h582l-55 -239h-133l-1 101h-135l-37 -158h157l-33 -143h-157l-31 -138h75l-28 -123h-366z" />
    <glyph glyph-name="G" unicode="G" horiz-adv-x="697" 
d="M307 -11q-135 0 -208.5 71.5t-73.5 193.5q0 193 116.5 324.5t303.5 131.5q65 0 115 -10h167l-56 -243h-146l-7 92q-22 9 -54 9q-87 0 -142.5 -89.5t-56.5 -220.5q0 -59 20 -86.5t65 -27.5q22 0 47 7l21 95h-49l28 122h314l-29 -125h-18q-9 0 -19 -9.5t-12 -18.5l-47 -205
h-117q-5 20 -23 20q-60 -31 -139 -31z" />
    <glyph glyph-name="H" unicode="H" horiz-adv-x="758" 
d="M-51 0l28 123h33q8 0 18.5 10.5t12.5 18.5l90 392q2 9 -2.5 18.5t-13.5 9.5h-34l30 128h347l-30 -128h-56l-37 -158h159l36 158h-56l29 128h348l-30 -128h-32q-9 0 -19 -9.5t-12 -18.5l-90 -392q-2 -9 3 -19t13 -10h34l-28 -123h-348l28 123h57l39 172h-158l-40 -172h57
l-28 -123h-348z" />
    <glyph glyph-name="I" unicode="I" horiz-adv-x="376" 
d="M-51 0l28 123h38q8 0 18.5 10.5t12.5 18.5l90 392q2 9 -2.5 18.5t-13.5 9.5h-39l30 128h357l-29 -128h-38q-9 0 -18.5 -9.5t-11.5 -18.5l-91 -392q-2 -9 3 -19t13 -10h39l-28 -123h-358z" />
    <glyph glyph-name="J" unicode="J" horiz-adv-x="538" 
d="M161 -8q-125 0 -204 38l34 150h113q15 -42 58 -42q46 0 61 60l79 346q2 9 -2.5 18.5t-13.5 9.5h-42l30 128h358l-30 -128h-35q-9 0 -18.5 -9.5t-11.5 -18.5l-76 -326q-28 -122 -94 -174t-206 -52z" />
    <glyph glyph-name="K" unicode="K" horiz-adv-x="727" 
d="M-51 0l28 123h33q8 0 18.5 10.5t12.5 18.5l90 392q2 9 -2.5 18.5t-13.5 9.5h-34l30 128h339l-29 -128h-49l-39 -167l145 115q24 20 21 36t-27 16h-9l30 128h320l-29 -128h-9q-16 0 -49 -27l-184 -150l101 -245q11 -27 26 -27h18l-28 -123h-267l18 108l-62 162l-55 -38
l-25 -109h56l-28 -123h-347z" />
    <glyph glyph-name="L" unicode="L" horiz-adv-x="605" 
d="M-51 0l28 123h33q8 0 18.5 10.5t12.5 18.5l90 392q2 9 -2.5 18.5t-13.5 9.5h-34l30 128h370l-30 -128h-79l-102 -438h134l49 124h142l-59 -258h-587z" />
    <glyph glyph-name="M" unicode="M" horiz-adv-x="933" 
d="M-51 0l28 123h33q8 0 18.5 10.5t12.5 18.5l90 392q2 9 -2.5 18.5t-13.5 9.5h-34l30 128h361l12 -321h3l149 321h389l-30 -128h-32q-9 0 -19 -9.5t-12 -18.5l-90 -392q-2 -9 3 -19t13 -10h34l-28 -123h-334l28 123h50l88 384h-3l-250 -507h-132l-18 507h-3l-89 -384h61
l-28 -123h-285z" />
    <glyph glyph-name="N" unicode="N" horiz-adv-x="726" 
d="M-51 0l28 123h33q8 0 18.5 10.5t12.5 18.5l90 392q2 9 -2.5 18.5t-13.5 9.5h-34l30 128h282l116 -373h3l57 245h-61l30 128h282l-30 -128h-29q-9 0 -19 -9.5t-12 -18.5l-125 -544h-197l-137 414h-3l-67 -291h64l-28 -123h-288z" />
    <glyph glyph-name="O" unicode="O" horiz-adv-x="737" 
d="M345 -11q-150 0 -235 76.5t-85 210.5q0 187 122 310.5t294 123.5q142 0 226.5 -77.5t84.5 -210.5q0 -192 -117.5 -312.5t-289.5 -120.5zM355 136q71 0 117 87.5t46 200.5q0 129 -96 129q-72 0 -117.5 -86t-45.5 -203q0 -128 96 -128z" />
    <glyph glyph-name="P" unicode="P" horiz-adv-x="658" 
d="M-51 0l28 123h33q8 0 18.5 10.5t12.5 18.5l90 392q2 9 -2.5 18.5t-13.5 9.5h-34l30 128h316q272 0 272 -187q0 -263 -347 -263h-55l-29 -127h74l-28 -123h-365zM364 563l-44 -189h39q104 0 104 124q0 65 -63 65h-36z" />
    <glyph glyph-name="Q" unicode="Q" horiz-adv-x="737" 
d="M507 -117q-21 41 -68.5 65.5t-140.5 40.5q-272 48 -272 287q0 128 59 228.5t153.5 153t203.5 52.5q141 0 225.5 -78.5t84.5 -211.5q0 -137 -65 -221.5t-174 -118.5v-4q133 -13 190 -70l-29 -123h-167zM356 132q70 0 115.5 88.5t45.5 205.5q0 62 -24 94.5t-69 32.5
q-72 0 -118.5 -86t-46.5 -206q0 -62 25 -95.5t72 -33.5z" />
    <glyph glyph-name="R" unicode="R" horiz-adv-x="707" 
d="M-51 0l28 123h33q8 0 18.5 10.5t12.5 18.5l90 392q2 9 -2.5 18.5t-13.5 9.5h-34l30 128h334q132 0 198 -46t66 -128q0 -76 -48 -125.5t-138 -67.5v-4q46 -11 68.5 -39.5t31.5 -96.5l6 -45q4 -25 22 -25h16l-28 -123h-235l-9 190q-2 45 -14.5 61t-46.5 16h-33l-33 -144h63
l-28 -123h-354zM364 563l-40 -175h40q107 0 107 111q0 64 -73 64h-34z" />
    <glyph glyph-name="S" unicode="S" horiz-adv-x="552" 
d="M245 -11q-66 0 -136 11h-155l50 220h150l4 -87q24 -8 61 -8q43 0 68 17.5t25 50.5q0 15 -4.5 25t-19 20t-26 15l-40.5 18q-37 15 -60.5 28t-49 35t-37.5 53t-12 73q0 116 77.5 183.5t212.5 67.5q72 0 134 -11h130l-48 -203h-145l-5 78q-24 8 -54 8q-42 0 -66 -17.5
t-24 -50.5q0 -25 14.5 -38t48.5 -28q53 -21 86 -38.5t60 -41.5t38.5 -55.5t11.5 -73.5q0 -113 -74 -182t-215 -69z" />
    <glyph glyph-name="T" unicode="T" horiz-adv-x="673" 
d="M99 0l28 123h37q8 0 18.5 10.5t12.5 18.5l95 414h-55l-47 -129h-136l60 263h653l-61 -263h-138l11 129h-53l-95 -414q-2 -9 3 -19t13 -10h38l-28 -123h-356z" />
    <glyph glyph-name="U" unicode="U" horiz-adv-x="724" 
d="M344 -8q-174 0 -242 74t-37 207l62 271q2 9 -2.5 18.5t-13.5 9.5h-30l29 128h356l-30 -128h-68l-76 -328q-25 -107 81 -107q48 0 72.5 24t36.5 79l76 332h-69l30 128h297l-30 -128h-28q-9 0 -19 -9.5t-12 -18.5l-72 -311q-29 -124 -104.5 -182.5t-206.5 -58.5z" />
    <glyph glyph-name="V" unicode="V" horiz-adv-x="729" 
d="M187 0l-67 550q-1 9 -7 15.5t-15 6.5h-18l30 128h339l-30 -128h-66l26 -351h3l145 276q40 75 -23 75h-17l30 128h306l-30 -128h-14q-10 0 -22.5 -9t-19.5 -21l-317 -542h-233z" />
    <glyph glyph-name="W" unicode="W" horiz-adv-x="1001" 
d="M131 0l-13 550q0 8 -6.5 15t-14.5 7h-16l30 128h330l-30 -128h-63v-287h3l189 415h154l8 -415h3l97 212q36 75 -20 75h-16l30 128h298l-29 -128h-12q-11 0 -24 -9t-19 -21l-264 -542h-218l-9 355h-2l-164 -355h-222z" />
    <glyph glyph-name="X" unicode="X" horiz-adv-x="709" 
d="M-51 0l28 123h21q22 0 39 19l193 204l-102 198q-13 28 -30 28h-17l30 128h334l-29 -121h-51l59 -125l63 69q21 25 16.5 40.5t-28.5 15.5h-14l28 121h313l-30 -128h-20q-22 0 -42 -22l-189 -201l101 -198q15 -28 34 -28h12l-28 -123h-335l27 117h54l-62 129l-67 -77
q-19 -22 -15 -37t30 -15h15l-27 -117h-311z" />
    <glyph glyph-name="Y" unicode="Y" horiz-adv-x="686" 
d="M108 0l29 123h36q9 0 19.5 10t12.5 19l28 122l-112 277q-8 21 -24 21h-16l30 128h328l-30 -128h-61l59 -164h3l76 102q21 29 15.5 45.5t-35.5 16.5h-13l29 128h297l-30 -128h-11q-20 0 -45 -29l-228 -277l-26 -114q-2 -9 2.5 -19t13.5 -10h38l-28 -123h-357z" />
    <glyph glyph-name="Z" unicode="Z" horiz-adv-x="589" 
d="M-51 0l36 153l395 405v4h-131l-39 -84h-135l51 222h549l-37 -157l-395 -405v-4h142l43 98h142l-54 -232h-567z" />
    <glyph glyph-name="bracketleft" unicode="[" horiz-adv-x="290" 
d="M-55 -49l182 790h265l-29 -128h-82l-125 -539h83l-29 -123h-265z" />
    <glyph glyph-name="backslash" unicode="\" horiz-adv-x="364" 
d="M171 -49l-67 790h130l68 -790h-131z" />
    <glyph glyph-name="bracketright" unicode="]" horiz-adv-x="290" 
d="M-63 -49l28 123h83l124 539h-82l29 128h266l-182 -790h-266z" />
    <glyph glyph-name="asciicircum" unicode="^" horiz-adv-x="403" 
d="M53 451l17 73l150 176h150l85 -176l-17 -73h-111l-54 95h-3l-92 -95h-125z" />
    <glyph glyph-name="underscore" unicode="_" horiz-adv-x="392" 
d="M-99 -162l26 115h397l-27 -115h-396z" />
    <glyph glyph-name="grave" unicode="`" horiz-adv-x="400" 
d="M222 557l-92 87l13 56h172l27 -143h-120z" />
    <glyph glyph-name="a" unicode="a" horiz-adv-x="567" 
d="M128 -7q-64 0 -103 36t-39 99q0 92 63 136.5t163 44.5q65 0 101 -12l9 37q13 57 -61 57q-57 0 -102 -39h-97l35 153q103 33 223 33q132 0 188.5 -48.5t34.5 -147.5l-45 -194q-2 -8 3.5 -16.5t12.5 -8.5h21l-23 -104q-54 -28 -122 -28q-92 0 -112 69q-64 -67 -150 -67z
M232 115q21 0 43 16l18 79q-17 6 -38 6q-29 0 -45.5 -18.5t-16.5 -46.5q0 -36 39 -36z" />
    <glyph glyph-name="b" unicode="b" horiz-adv-x="595" 
d="M321 -10q-98 0 -147 72q-49 -62 -86 -62h-121l125 547q2 8 -3 16.5t-12 8.5h-28l29 128h234q15 0 21.5 -12t2.5 -32l-44 -192q70 74 153 74q66 0 107.5 -45t41.5 -129q0 -90 -24.5 -165.5t-62.5 -121.5q-73 -87 -186 -87zM302 379q-14 0 -31 -5l-55 -238q20 -11 42 -11
q53 0 84.5 52.5t31.5 130.5q0 38 -17.5 54.5t-54.5 16.5z" />
    <glyph glyph-name="c" unicode="c" horiz-adv-x="498" 
d="M262 -10q-131 0 -194 55.5t-63 153.5q0 151 92.5 245t243.5 94q127 0 197 -34l-35 -152h-113q-5 24 -17 36t-38 12q-50 0 -81.5 -65.5t-31.5 -140.5q0 -74 60 -74q47 0 78 46h107l-32 -139q-76 -37 -173 -37z" />
    <glyph glyph-name="d" unicode="d" horiz-adv-x="623" 
d="M158 -10q-71 0 -113.5 49t-42.5 140q0 78 27.5 154.5t77.5 127.5q74 77 173 77q84 0 126 -51l20 85h-51l30 128h235q15 0 22 -12.5t2 -31.5l-117 -508q-2 -8 3.5 -16.5t12.5 -8.5h26l-24 -105q-49 -27 -122 -27q-106 0 -120 76q-73 -77 -165 -77zM292 128q15 0 33 6
l57 249q-18 7 -40 7q-56 0 -87.5 -54.5t-31.5 -139.5q0 -68 69 -68z" />
    <glyph glyph-name="e" unicode="e" horiz-adv-x="538" 
d="M268 -10q-138 0 -200 57t-62 153q0 151 93.5 244.5t239.5 93.5q101 0 155.5 -44t54.5 -114q0 -53 -23.5 -90t-70 -57t-103.5 -29t-137 -10q3 -74 65 -74t102 46h111l-32 -136q-80 -40 -193 -40zM314 411q-33 0 -56 -31.5t-34 -83.5q66 6 97.5 23t31.5 50q0 42 -39 42z
" />
    <glyph glyph-name="f" unicode="f" horiz-adv-x="354" 
d="M33 397l30 131h52l5 23q19 87 73 125t150 38q61 0 106 -15l-27 -114h-21q-32 0 -45.5 -8.5t-18.5 -33.5l-4 -15h70l-29 -131h-70l-79 -359q-17 -79 -63 -129.5t-104 -70.5h-145l27 115q52 13 68 87l78 357h-53z" />
    <glyph glyph-name="g" unicode="g" horiz-adv-x="532" 
d="M185 -181q-134 0 -193 28.5t-59 85.5q0 79 123 114q-20 9 -33 27.5t-13 40.5q0 70 90 114q-59 38 -59 109q0 90 68.5 145t186.5 55q44 0 87 -10h197l-29 -131h-12q-11 0 -23 -14v-2q0 -86 -66.5 -138t-180.5 -52q-66 0 -111 13q-4 -12 -4 -18q0 -27 35 -27h148
q158 0 158 -124q0 -216 -310 -216zM269 284q25 0 44 31t19 78q0 40 -38 40q-24 0 -42 -29.5t-18 -74.5t35 -45zM263 0h-144q-3 -10 -3 -23q0 -25 15 -34.5t63 -9.5q47 0 77 11.5t30 33.5t-38 22z" />
    <glyph glyph-name="h" unicode="h" horiz-adv-x="635" 
d="M447 -9q-141 0 -109 136l45 192q6 24 -3.5 36t-39.5 12q-19 0 -45 -8l-82 -359h-194q-9 0 -14.5 9t-3.5 19l119 519q2 8 -3 16.5t-12 8.5h-28l29 128h234q15 0 21.5 -12t2.5 -32l-49 -213q99 95 197 95q63 0 92.5 -38t13.5 -105l-57 -247q-2 -8 3.5 -16.5t12.5 -8.5h26
l-24 -105q-49 -27 -132 -27z" />
    <glyph glyph-name="i" unicode="i" horiz-adv-x="329" 
d="M233 553q-44 0 -70 24t-26 61q0 45 31.5 71.5t77.5 26.5q43 0 69 -23.5t26 -60.5q0 -46 -31 -72.5t-77 -26.5zM135 -9q-142 0 -110 136l56 245q2 7 -3 16t-12 9h-32l25 111q76 26 153 26q58 0 84.5 -32.5t13.5 -89.5l-62 -264q-2 -8 3.5 -16.5t12.5 -8.5h31l-24 -105
q-48 -27 -136 -27z" />
    <glyph glyph-name="j" unicode="j" horiz-adv-x="304" 
d="M233 553q-44 0 -70 24t-26 61q0 45 31.5 71.5t77.5 26.5q43 0 69 -23.5t26 -60.5q0 -46 -31 -72.5t-77 -26.5zM4 -170q-65 0 -116 15l25 110h28q26 0 38 10.5t18 37.5l84 369q2 8 -3 16.5t-12 8.5h-32l25 111q76 26 153 26q58 0 84.5 -32.5t13.5 -89.5l-97 -419
q-20 -89 -71 -126t-138 -37z" />
    <glyph glyph-name="k" unicode="k" horiz-adv-x="592" 
d="M448 -9q-30 0 -50 6t-34 22.5t-21 30t-20 44.5l-35 87q-35 -15 -37 -16l-38 -165h-194q-10 0 -15 9t-3 19l119 519q2 7 -3.5 16t-11.5 9h-29l30 128h234q15 0 21.5 -12t2.5 -32l-77 -335q57 42 101.5 101t55.5 106h181l-23 -105q-49 -69 -133 -140l56 -135q11 -25 28 -25
h21l-24 -105q-41 -27 -102 -27z" />
    <glyph glyph-name="l" unicode="l" horiz-adv-x="331" 
d="M137 -9q-142 0 -110 136l96 420q2 7 -3 16t-12 9h-31l29 128h237q15 0 22 -12t2 -32l-117 -508q-2 -8 3.5 -16.5t12.5 -8.5h32l-24 -105q-48 -27 -137 -27z" />
    <glyph glyph-name="m" unicode="m" horiz-adv-x="929" 
d="M742 -9q-141 0 -110 136l45 194q6 25 -1.5 36.5t-35.5 11.5q-14 0 -39 -9l-84 -360h-193q-10 0 -15.5 9t-3.5 19l68 293q6 24 -1.5 36t-35.5 12q-18 0 -40 -8l-83 -361h-194q-9 0 -14.5 9t-3.5 19l79 344q2 7 -3 16t-12 9h-31l25 111q76 26 151 26q48 0 74.5 -24
t26.5 -67q93 95 191 95q50 0 79 -25.5t31 -73.5q94 99 194 99q63 0 92.5 -38t14.5 -105l-58 -247q-2 -8 3.5 -16.5t12.5 -8.5h26l-24 -105q-48 -27 -131 -27z" />
    <glyph glyph-name="n" unicode="n" horiz-adv-x="635" 
d="M447 -9q-141 0 -109 136l45 192q6 24 -3.5 36t-39.5 12q-18 0 -44 -8l-83 -359h-194q-9 0 -14.5 9t-3.5 19l79 344q2 7 -3 16t-12 9h-31l25 111q76 26 151 26q48 0 75 -24.5t26 -69.5q102 98 201 98q63 0 92.5 -38t13.5 -105l-57 -247q-2 -8 3.5 -16.5t12.5 -8.5h26
l-24 -105q-49 -27 -132 -27z" />
    <glyph glyph-name="o" unicode="o" horiz-adv-x="588" 
d="M271 -9q-125 0 -195 62t-70 171q0 131 87.5 222.5t225.5 91.5q125 0 195 -62.5t70 -170.5q0 -132 -86.5 -223t-226.5 -91zM273 121q42 0 69 64.5t27 139.5q0 71 -53 71q-42 0 -69 -64t-27 -139q0 -72 53 -72z" />
    <glyph glyph-name="p" unicode="p" horiz-adv-x="625" 
d="M-92 -162l26 115h26q8 0 18 8.5t11 15.5l91 395q2 7 -3 16t-12 9h-31l25 111q76 26 151 26q46 0 72.5 -22.5t28.5 -62.5q73 89 166 89q65 0 106 -45t41 -129q0 -177 -92 -275q-70 -76 -177 -76q-83 0 -129 40l-23 -100h45l-26 -115h-314zM332 380q-15 0 -33 -6l-53 -232
q22 -10 45 -10q51 0 82 51.5t31 126.5q0 70 -72 70z" />
    <glyph glyph-name="q" unicode="q" horiz-adv-x="604" 
d="M213 -162l27 115h46l26 116q-63 -56 -146 -56q-75 0 -118.5 44.5t-43.5 124.5q0 165 96 272q76 84 187 84q89 0 134 -71q44 61 89 61h126l-126 -551q-2 -7 4.5 -15.5t14.5 -8.5h26l-27 -115h-315zM294 134q19 0 34 6l55 243q-17 7 -40 7q-52 0 -85.5 -55t-33.5 -129
q0 -37 19 -54.5t51 -17.5z" />
    <glyph glyph-name="r" unicode="r" horiz-adv-x="436" 
d="M19 0q-9 0 -14.5 9t-3.5 19l79 344q2 7 -3 16t-12 9h-31l25 111q76 26 151 26q44 0 69.5 -25t27.5 -69q54 92 148 92q19 0 31 -4l-41 -176h-26q-74 0 -133 -37l-73 -315h-194z" />
    <glyph glyph-name="s" unicode="s" horiz-adv-x="467" 
d="M190 -8q-144 0 -225 44l31 130h104q11 -25 29 -37.5t51 -12.5q24 0 42 10t18 29q0 16 -15 24t-57 18q-136 32 -136 142q0 99 67.5 148t178.5 49q122 0 211 -36l-30 -131h-106q-22 47 -74 47q-56 0 -56 -36q0 -15 14 -24.5t50 -18.5q77 -20 115.5 -49.5t38.5 -90.5
q0 -99 -65.5 -152t-185.5 -53z" />
    <glyph glyph-name="t" unicode="t" horiz-adv-x="361" 
d="M34 397l29 131h50l32 137h219l-32 -137h77l-29 -131h-78l-49 -211q-14 -63 49 -63h20l-27 -119q-51 -15 -104 -15q-202 0 -160 184l52 224h-49z" />
    <glyph glyph-name="u" unicode="u" horiz-adv-x="631" 
d="M443 -9q-119 0 -116 93q-93 -93 -188 -93q-67 0 -98 40t-14 112l52 229q2 7 -3 16t-12 9h-30l25 111q79 27 150 27q59 0 85 -35.5t12 -93.5l-48 -207q-12 -53 43 -53q20 0 38 6l86 376h195q10 0 15 -8.5t3 -19.5l-82 -352q-2 -8 3.5 -16.5t12.5 -8.5h27l-24 -105
q-49 -27 -132 -27z" />
    <glyph glyph-name="v" unicode="v" horiz-adv-x="563" 
d="M126 0l-48 376q-2 8 -7 14.5t-11 6.5h-26l25 111q61 27 125 27q50 0 75.5 -23t29.5 -76l17 -232h3q85 140 113 324h186l-28 -118q-55 -127 -111 -220t-153 -190h-190z" />
    <glyph glyph-name="w" unicode="w" horiz-adv-x="825" 
d="M103 0l-26 376q-1 7 -6.5 14t-11.5 7h-25l25 111q61 27 122 27q52 0 77.5 -22.5t26.5 -76.5l8 -197h3l116 289h159l24 -299h3q60 109 92 299h182l-27 -118q-87 -237 -241 -410h-163l-16 267h-2l-124 -267h-196z" />
    <glyph glyph-name="x" unicode="x" horiz-adv-x="531" 
d="M-39 0l28 123q68 14 159 128l-68 129q-10 17 -23 17h-26l24 111q54 26 104 26q53 0 78.5 -18t48.5 -74l27 -70q67 112 120 156h141l-30 -131q-64 -16 -157 -127l69 -127q12 -20 26 -20h24l-24 -105q-41 -27 -103 -27q-54 0 -81.5 20t-49.5 69l-29 64q-52 -87 -116 -144
h-142z" />
    <glyph glyph-name="y" unicode="y" horiz-adv-x="619" 
d="M199 -172q-152 0 -225 32l32 137h125q17 -37 75 -37q89 0 108 87l12 53q-83 -70 -179 -70q-66 0 -97.5 39t-16.5 103l46 200q2 7 -3 16t-12 9h-30l25 111q79 27 150 27q59 0 85 -35.5t12 -93.5l-44 -191q-12 -53 43 -53q19 0 37 6l83 360h195q10 0 15 -8.5t3 -19.5
l-109 -471q-23 -99 -102 -150t-228 -51z" />
    <glyph glyph-name="z" unicode="z" horiz-adv-x="514" 
d="M-44 0l32 139l294 254h-95l-35 -64h-116l46 199h481l-32 -143l-300 -254h102l31 63h121l-44 -194h-485z" />
    <glyph glyph-name="braceleft" unicode="{" horiz-adv-x="342" 
d="M180 -49q-79 0 -115.5 39.5t-20.5 109.5l31 134q5 23 -4 40t-35 17h-19l29 128h16q56 0 67 49l33 143q30 130 179 130h103l-30 -128h-44q-8 0 -18 -10t-12 -18l-29 -126q-19 -84 -129 -103v-3q98 -28 77 -119l-31 -131q-2 -9 3.5 -19t14.5 -10h44l-28 -123h-82z" />
    <glyph glyph-name="bar" unicode="|" horiz-adv-x="171" 
d="M40 -49v790h130v-790h-130z" />
    <glyph glyph-name="braceright" unicode="}" horiz-adv-x="342" 
d="M-62 -49l28 123h44q9 0 19 10t12 19l32 136q19 82 128 103v3q-97 26 -76 119l27 121q2 8 -3.5 18t-13.5 10h-45l30 128h83q78 0 114.5 -39.5t20.5 -109.5l-29 -129q-6 -23 3 -40t35 -17h20l-29 -127h-16q-56 0 -68 -50l-34 -148q-30 -130 -179 -130h-103z" />
    <glyph glyph-name="asciitilde" unicode="~" horiz-adv-x="367" 
d="M-3 208l21 94q17 33 46 54t64 21q27 0 70.5 -11t54.5 -11q21 0 38 26h96l-23 -98q-38 -72 -110 -72q-27 0 -70 11.5t-54 11.5q-23 0 -36 -26h-97z" />
    <glyph glyph-name="exclamdown" unicode="&#xa1;" horiz-adv-x="248" 
d="M218 417l-28 -353l-30 -128h-221l30 128l145 353h104zM194 643q42 0 70 -27t28 -64q0 -44 -31 -73.5t-74 -29.5q-42 0 -70 27.5t-28 65.5q0 43 31 72t74 29z" />
    <glyph glyph-name="cent" unicode="&#xa2;" horiz-adv-x="498" 
d="M131 -102l24 104q-150 40 -150 197q0 135 73.5 225t199.5 109l18 76h152l-18 -76q64 -8 108 -29l-35 -152h-113q-5 24 -17 36t-38 12q-50 0 -81.5 -64t-31.5 -142q0 -74 60 -74q46 0 78 46h107l-32 -139q-57 -27 -130 -35l-22 -94h-152z" />
    <glyph glyph-name="sterling" unicode="&#xa3;" horiz-adv-x="545" 
d="M429 0q-191 0 -290 43q-38 -25 -91 -43h-99l28 123q114 31 118 163h-78l28 121h43q-2 32 -2 49q0 125 81.5 189.5t229.5 64.5q139 0 223 -41l-41 -178h-116q-16 57 -72 57q-59 0 -79 -66q-6 -17 -13 -75h129l-27 -121h-118l-4 -20q-15 -59 -32 -95q54 -12 115 -12l26 58
h138l-50 -217h-47z" />
    <glyph glyph-name="yen" unicode="&#xa5;" horiz-adv-x="643" 
d="M55 312l20 87h102l-60 152q-10 21 -25 21h-11l30 128h310l-30 -128h-49l44 -144h2l63 85q19 25 13 42t-31 17h-8l29 128h282l-30 -128h-12q-22 0 -40 -24l-126 -149h102l-20 -87h-161l-9 -41h161l-20 -87h-161l-7 -32q-2 -9 2.5 -19t12.5 -10h39l-28 -123h-357l28 123h37
q9 0 19.5 10t12.5 19l7 32h-161l20 87h161l9 41h-160z" />
    <glyph glyph-name="brokenbar" unicode="&#xa6;" horiz-adv-x="171" 
d="M20 -49v357h131l-1 -357h-130zM20 387v354h130l1 -354h-131z" />
    <glyph glyph-name="section" unicode="&#xa7;" horiz-adv-x="566" 
d="M207 -135q-130 0 -229 46l30 135h123q6 -28 23.5 -42.5t53.5 -14.5q26 0 42 12t16 32q0 17 -16 29t-67 31q-90 32 -130 68t-40 95q0 118 129 164q-23 32 -23 81q0 91 68.5 150.5t190.5 59.5q119 0 205 -42l-28 -127h-121q-8 24 -24 35.5t-50 11.5q-28 0 -41.5 -12
t-13.5 -31q0 -15 14.5 -25.5t59.5 -25.5q101 -34 145.5 -68.5t44.5 -93.5q0 -128 -134 -172q26 -33 26 -80q0 -97 -66 -156.5t-188 -59.5zM296 332q-52 18 -90 37q-25 -16 -25 -45q0 -19 18.5 -33.5t71.5 -32.5q60 -22 95 -41q25 16 25 44q0 20 -20.5 36t-74.5 35z" />
    <glyph glyph-name="dieresis" unicode="&#xa8;" horiz-adv-x="400" 
d="M387 553q-40 0 -63.5 22.5t-23.5 59.5q0 42 27 66.5t69 24.5q40 0 64 -22.5t24 -57.5q0 -43 -28 -68t-69 -25zM180 553q-40 0 -64 23t-24 59q0 42 27.5 66.5t69.5 24.5q40 0 63.5 -22.5t23.5 -57.5q0 -43 -27.5 -68t-68.5 -25z" />
    <glyph glyph-name="copyright" unicode="&#xa9;" horiz-adv-x="759" 
d="M401 -8q-151 0 -254.5 96t-103.5 262t103.5 262t254.5 96q97 0 177 -40.5t130 -123t50 -194.5t-50 -194.5t-130 -123t-177 -40.5zM401 31q135 0 222.5 85t87.5 234t-87.5 234t-222.5 85t-223 -85t-88 -234t88 -234t223 -85zM409 144q-104 0 -158 51t-54 149
q0 100 54.5 154.5t147.5 54.5q31 0 67 -6h97v-144h-93l-14 50q-14 4 -26 4q-36 0 -54.5 -24t-18.5 -83q0 -109 67 -109q38 0 66 37h74v-94q-64 -40 -155 -40z" />
    <glyph glyph-name="ordfeminine" unicode="&#xaa;" horiz-adv-x="488" 
d="M161 255q-53 0 -87.5 30.5t-34.5 83.5q0 76 52.5 112.5t138.5 36.5q56 0 86 -9l7 28q5 23 -7 35t-44 12q-52 0 -85 -31h-85l30 129q85 27 189 27q111 0 159 -40.5t29 -124.5l-36 -158q-1 -6 3.5 -13t9.5 -7h18l-20 -89q-46 -24 -103 -24q-79 0 -95 57q-53 -55 -125 -55z
M248 356q19 0 36 13l16 70q-20 6 -34 6q-24 0 -38 -17t-14 -41q0 -31 34 -31z" />
    <glyph glyph-name="guillemotleft" unicode="&#xab;" horiz-adv-x="505" 
d="M339 40l-104 190l18 77l170 173h116l-12 -51l-121 -171v-3l43 -162l-12 -53h-98zM115 40l-105 192l18 77l171 171h116l-12 -51l-122 -169v-3l44 -164l-12 -53h-98z" />
    <glyph glyph-name="registered" unicode="&#xae;" horiz-adv-x="389" 
d="M258 350q-75 0 -128 48.5t-53 130.5t52.5 130.5t128.5 48.5q75 0 128 -48.5t53 -130.5t-53 -130.5t-128 -48.5zM258 383q62 0 102 38.5t40 107.5t-40 107.5t-102 38.5t-102 -38.5t-40 -107.5t40 -107.5t102 -38.5zM171 444v33h8q7 0 7 8v93q0 7 -7 7h-8v34h87
q80 0 80 -50q0 -29 -33 -39v-1q23 -4 31 -33l4 -13q2 -6 6 -6h5v-33h-69l-6 48q-2 11 -6.5 15t-15.5 4h-6v-34h17v-33h-94zM246 583v-39h9q21 0 21 20q0 19 -21 19h-9z" />
    <glyph glyph-name="macron" unicode="&#xaf;" horiz-adv-x="400" 
d="M130 573l28 120h285l-28 -120h-285z" />
    <glyph glyph-name="degree" unicode="&#xb0;" horiz-adv-x="345" 
d="M234 409q-63 0 -106 40t-43 101q0 69 49 112.5t115 43.5q63 0 106 -39.5t43 -98.5q0 -72 -48.5 -115.5t-115.5 -43.5zM237 480q33 0 55.5 23t22.5 62q0 32 -19 51t-51 19q-33 0 -54.5 -22t-21.5 -61q0 -32 18 -52t50 -20z" />
    <glyph glyph-name="twosuperior" unicode="&#xb2;" horiz-adv-x="343" 
d="M17 303l15 62q13 52 44.5 84t82.5 58q65 34 76 47q9 10 9 22q0 26 -30 26q-32 0 -53 -30h-75l26 113q59 22 135 22t117.5 -28.5t41.5 -77.5q0 -52 -30.5 -83.5t-85.5 -56.5l-31.5 -14l-27.5 -12t-19.5 -9.5t-16.5 -11t-9 -11.5h76l13 25h90l-30 -125h-318z" />
    <glyph glyph-name="threesuperior" unicode="&#xb3;" horiz-adv-x="343" 
d="M179 296q-105 0 -157 29l23 95h76q11 -31 47 -31q19 0 31.5 11t12.5 29q0 28 -37 28h-40l21 83h38q23 0 35 11t12 28q0 26 -33 26q-28 0 -49 -24h-72l26 108q65 18 128 18q75 0 113.5 -25.5t38.5 -71.5q0 -85 -99 -107v-2q73 -14 73 -76q0 -61 -50.5 -95t-137.5 -34z" />
    <glyph glyph-name="acute" unicode="&#xb4;" horiz-adv-x="400" 
d="M196 557l49 143h200l-13 -56l-110 -87h-126z" />
    <glyph glyph-name="paragraph" unicode="&#xb6;" horiz-adv-x="566" 
d="M144 -91l90 390q-80 11 -125 53t-45 114q0 121 78.5 177.5t208.5 56.5h308l-30 -128h-32q-9 0 -19 -9.5t-12 -18.5l-147 -635h-110l154 667h-55l-154 -667h-110z" />
    <glyph glyph-name="periodcentered" unicode="&#xb7;" horiz-adv-x="223" 
d="M115 197q-42 0 -70 27t-28 64q0 44 31.5 73.5t73.5 29.5q43 0 71 -27.5t28 -65.5q0 -43 -31.5 -72t-74.5 -29z" />
    <glyph glyph-name="cedilla" unicode="&#xb8;" horiz-adv-x="400" 
d="M113 -175q-62 0 -96 17l15 64h48q6 -13 23 -13q23 0 23 17q0 16 -24 16h-22l17 74h76l-6 -25q70 -6 70 -63q0 -41 -33.5 -64t-90.5 -23z" />
    <glyph glyph-name="onesuperior" unicode="&#xb9;" horiz-adv-x="293" 
d="M25 303l20 83h37q4 0 10.5 5.5t8.5 9.5l42 178l-39 -20h-27l22 93l116 48h122l-72 -299q-1 -4 2 -9.5t8 -5.5h40l-21 -83h-269z" />
    <glyph glyph-name="ordmasculine" unicode="&#xba;" horiz-adv-x="491" 
d="M277 253q-106 0 -165 52t-59 142q0 109 74 185.5t190 76.5q105 0 164 -52t59 -142q0 -110 -73 -186t-190 -76zM278 364q35 0 56.5 52.5t21.5 114.5q0 58 -42 58q-35 0 -56.5 -52.5t-21.5 -114.5q0 -58 42 -58z" />
    <glyph glyph-name="guillemotright" unicode="&#xbb;" horiz-adv-x="506" 
d="M191 40l12 51l121 169v3l-43 164l12 53h98l104 -192l-18 -77l-170 -171h-116zM-34 40l12 51l122 171v3l-44 162l12 53h98l104 -190l-18 -77l-170 -173h-116z" />
    <glyph glyph-name="onequarter" unicode="&#xbc;" horiz-adv-x="803" 
d="M491 0l20 83h29q4 0 10.5 5.5t8.5 10.5l3 14h-161l22 93l210 191h155l-48 -203h40l-19 -81h-41l-3 -14q-2 -5 1.5 -10.5t7.5 -5.5h28l-20 -83h-243zM49 -34l636 763h118l-636 -763h-118zM25 303l20 83h37q4 0 10.5 5.5t8.5 9.5l42 178l-39 -20h-27l22 93l116 48h122
l-72 -299q-1 -4 2 -9.5t8 -5.5h40l-21 -83h-269zM515 196v-2h74l21 88h-2z" />
    <glyph glyph-name="onehalf" unicode="&#xbd;" horiz-adv-x="844" 
d="M46 -34l636 763h118l-636 -763h-118zM25 303l20 83h37q4 0 10.5 5.5t8.5 9.5l42 178l-39 -20h-27l22 93l116 48h122l-72 -299q-1 -4 2 -9.5t8 -5.5h40l-21 -83h-269zM448 0l15 63q12 51 43 83t83 59q3 1 8 4l44 23t23 18t10 24q0 25 -30 25q-34 0 -53 -30h-75l26 113
q59 22 135 22q77 0 118 -28t41 -78q0 -52 -30.5 -83.5t-85.5 -56.5l-31.5 -14l-27.5 -12t-19.5 -9.5t-16 -10.5t-8.5 -11h75l13 24h90l-30 -125h-317z" />
    <glyph glyph-name="threequarters" unicode="&#xbe;" horiz-adv-x="811" 
d="M498 0l20 83h29q4 0 10.5 5.5t8.5 10.5l3 14h-161l22 93l210 191h155l-48 -203h40l-19 -81h-41l-3 -14q-2 -5 1.5 -10.5t7.5 -5.5h28l-20 -83h-243zM179 296q-105 0 -157 29l23 95h76q11 -31 47 -31q19 0 31.5 11t12.5 29q0 28 -37 28h-40l21 83h38q23 0 35 11t12 28
q0 26 -33 26q-28 0 -49 -24h-72l26 108q65 18 128 18q75 0 113.5 -25.5t38.5 -71.5q0 -85 -99 -107v-2q73 -14 73 -76q0 -61 -50.5 -95t-137.5 -34zM62 -34l636 763h118l-636 -763h-118zM522 196v-2h74l21 88h-2z" />
    <glyph glyph-name="questiondown" unicode="&#xbf;" horiz-adv-x="471" 
d="M337 449q-43 0 -71 27t-28 66q0 43 31.5 72t74.5 29q42 0 70 -27t28 -64q0 -44 -31.5 -73.5t-73.5 -29.5zM195 -75q-110 0 -166 43t-56 115q0 43 12.5 77t40 59.5t51 41t65.5 38.5q41 23 59.5 35.5t35.5 34t19 48.5h131q4 -112 -90 -189q-3 -3 -29 -22.5t-35.5 -28.5
t-21.5 -28t-12 -37q0 -39 41 -39q43 0 69 50h119l-37 -163q-83 -35 -196 -35z" />
    <glyph glyph-name="Agrave" unicode="&#xc0;" horiz-adv-x="748" 
d="M410 728l-92 87l13 56h172l27 -143h-120zM-51 0l28 123h12q28 0 45 31l227 391q6 8 2.5 17.5t-12.5 9.5h-35l29 128h377l45 -554q1 -8 9 -15.5t15 -7.5h17l-29 -123h-354l28 123h79l-5 91h-192q-25 -45 -22.5 -68t38.5 -23h25l-28 -123h-299zM408 528l-115 -208h128
l-11 208h-2z" />
    <glyph glyph-name="Aacute" unicode="&#xc1;" horiz-adv-x="748" 
d="M384 728l49 143h200l-13 -56l-110 -87h-126zM-51 0l28 123h12q28 0 45 31l227 391q6 8 2.5 17.5t-12.5 9.5h-35l29 128h377l45 -554q1 -8 9 -15.5t15 -7.5h17l-29 -123h-354l28 123h79l-5 91h-192q-25 -45 -22.5 -68t38.5 -23h25l-28 -123h-299zM408 528l-115 -208h128
l-11 208h-2z" />
    <glyph glyph-name="Acircumflex" unicode="&#xc2;" horiz-adv-x="748" 
d="M308 728l9 40l94 103h142l61 -103l-9 -40h-84l-52 47l-71 -47h-90zM-51 0l28 123h12q28 0 45 31l227 391q6 8 2.5 17.5t-12.5 9.5h-35l29 128h377l45 -554q1 -8 9 -15.5t15 -7.5h17l-29 -123h-354l28 123h79l-5 91h-192q-25 -45 -22.5 -68t38.5 -23h25l-28 -123h-299z
M408 528l-115 -208h128l-11 208h-2z" />
    <glyph glyph-name="Atilde" unicode="&#xc3;" horiz-adv-x="748" 
d="M289 728l18 77q35 62 108 62q23 0 62.5 -9t51.5 -9q27 0 40 22h89l-18 -77q-38 -63 -109 -63q-23 0 -62.5 10t-51.5 10q-26 0 -39 -23h-89zM-51 0l28 123h12q28 0 45 31l227 391q6 8 2.5 17.5t-12.5 9.5h-35l29 128h377l45 -554q1 -8 9 -15.5t15 -7.5h17l-29 -123h-354
l28 123h79l-5 91h-192q-25 -45 -22.5 -68t38.5 -23h25l-28 -123h-299zM408 528l-115 -208h128l-11 208h-2z" />
    <glyph glyph-name="Adieresis" unicode="&#xc4;" horiz-adv-x="748" 
d="M-51 0l28 123h12q28 0 45 31l227 391q6 8 2.5 17.5t-12.5 9.5h-35l29 128h377l45 -554q1 -8 9 -15.5t15 -7.5h17l-29 -123h-354l28 123h79l-5 91h-192q-25 -45 -22.5 -68t38.5 -23h25l-28 -123h-299zM408 528l-115 -208h128l-11 208h-2zM575 724q-40 0 -63.5 22.5
t-23.5 59.5q0 42 27 66.5t69 24.5q40 0 64 -22.5t24 -57.5q0 -43 -28 -68t-69 -25zM368 724q-40 0 -64 23t-24 59q0 42 27.5 66.5t69.5 24.5q40 0 63.5 -22.5t23.5 -57.5q0 -43 -27.5 -68t-68.5 -25z" />
    <glyph glyph-name="Aring" unicode="&#xc5;" horiz-adv-x="748" 
d="M471 729q-45 0 -75 27t-30 70q0 51 33.5 80t80.5 29q44 0 74 -27t30 -70q0 -51 -33.5 -80t-79.5 -29zM472 783q22 0 36 14t14 39q0 21 -12 33.5t-33 12.5t-34.5 -14.5t-13.5 -40.5q0 -20 11.5 -32t31.5 -12zM-51 0l28 123h12q28 0 45 31l227 391q6 8 2.5 17.5t-12.5 9.5
h-35l29 128h377l45 -554q1 -8 9 -15.5t15 -7.5h17l-29 -123h-354l28 123h79l-5 91h-192q-25 -45 -22.5 -68t38.5 -23h25l-28 -123h-299zM408 528l-115 -208h128l-11 208h-2z" />
    <glyph glyph-name="AE" unicode="&#xc6;" horiz-adv-x="1003" 
d="M1082 700l-53 -227h-132l-3 89h-141l-31 -135h157l-33 -140h-157l-35 -153h148l43 106h142l-55 -240h-596l28 123h54l21 91h-187q-32 -43 -29.5 -67t39.5 -24h21l-28 -123h-306l28 123h18q25 0 48 31l296 391q6 8 3 17.5t-13 9.5h-35l30 128h758zM514 562l-182 -242h131
l57 242h-6z" />
    <glyph glyph-name="Ccedilla" unicode="&#xc7;" horiz-adv-x="632" 
d="M240 -175q-62 0 -96 17l15 64h48q6 -13 23 -13q23 0 23 17q0 16 -24 16h-22l17 75q-99 24 -149 91t-50 169q0 192 115 321t290 129q72 0 118 -11h169l-58 -250h-145l-5 100q-22 8 -50 8q-84 0 -139.5 -82t-55.5 -214q0 -120 98 -120q69 0 129 67h115l-36 -161
q-105 -59 -233 -59q-14 0 -40 2l-3 -16q70 -6 70 -63q0 -41 -33.5 -64t-90.5 -23z" />
    <glyph glyph-name="Egrave" unicode="&#xc8;" horiz-adv-x="619" 
d="M371 728l-92 87l13 56h172l27 -143h-120zM-51 0l28 123h33q8 0 18.5 10.5t12.5 18.5l90 392q2 9 -2.5 18.5t-13.5 9.5h-34l30 128h587l-53 -227h-132l-3 89h-141l-31 -135h157l-33 -140h-157l-35 -153h148l43 106h142l-55 -240h-599z" />
    <glyph glyph-name="Eacute" unicode="&#xc9;" horiz-adv-x="619" 
d="M-51 0l28 123h33q8 0 18.5 10.5t12.5 18.5l90 392q2 9 -2.5 18.5t-13.5 9.5h-34l30 128h587l-53 -227h-132l-3 89h-141l-31 -135h157l-33 -140h-157l-35 -153h148l43 106h142l-55 -240h-599zM345 728l49 143h200l-13 -56l-110 -87h-126z" />
    <glyph glyph-name="Ecircumflex" unicode="&#xca;" horiz-adv-x="619" 
d="M-51 0l28 123h33q8 0 18.5 10.5t12.5 18.5l90 392q2 9 -2.5 18.5t-13.5 9.5h-34l30 128h587l-53 -227h-132l-3 89h-141l-31 -135h157l-33 -140h-157l-35 -153h148l43 106h142l-55 -240h-599zM269 728l9 40l94 103h142l61 -103l-9 -40h-84l-52 47l-71 -47h-90z" />
    <glyph glyph-name="Edieresis" unicode="&#xcb;" horiz-adv-x="619" 
d="M-51 0l28 123h33q8 0 18.5 10.5t12.5 18.5l90 392q2 9 -2.5 18.5t-13.5 9.5h-34l30 128h587l-53 -227h-132l-3 89h-141l-31 -135h157l-33 -140h-157l-35 -153h148l43 106h142l-55 -240h-599zM536 724q-40 0 -63.5 22.5t-23.5 59.5q0 42 27 66.5t69 24.5q40 0 64 -22.5
t24 -57.5q0 -43 -28 -68t-69 -25zM329 724q-40 0 -64 23t-24 59q0 42 27.5 66.5t69.5 24.5q40 0 63.5 -22.5t23.5 -57.5q0 -43 -27.5 -68t-68.5 -25z" />
    <glyph glyph-name="Igrave" unicode="&#xcc;" horiz-adv-x="376" 
d="M-51 0l28 123h38q8 0 18.5 10.5t12.5 18.5l90 392q2 9 -2.5 18.5t-13.5 9.5h-39l30 128h357l-29 -128h-38q-9 0 -18.5 -9.5t-11.5 -18.5l-91 -392q-2 -9 3 -19t13 -10h39l-28 -123h-358zM249 728l-92 87l13 56h172l27 -143h-120z" />
    <glyph glyph-name="Iacute" unicode="&#xcd;" horiz-adv-x="376" 
d="M223 728l49 143h200l-13 -56l-110 -87h-126zM-51 0l28 123h38q8 0 18.5 10.5t12.5 18.5l90 392q2 9 -2.5 18.5t-13.5 9.5h-39l30 128h357l-29 -128h-38q-9 0 -18.5 -9.5t-11.5 -18.5l-91 -392q-2 -9 3 -19t13 -10h39l-28 -123h-358z" />
    <glyph glyph-name="Icircumflex" unicode="&#xce;" horiz-adv-x="376" 
d="M147 728l9 40l94 103h142l61 -103l-9 -40h-84l-52 47l-71 -47h-90zM-51 0l28 123h38q8 0 18.5 10.5t12.5 18.5l90 392q2 9 -2.5 18.5t-13.5 9.5h-39l30 128h357l-29 -128h-38q-9 0 -18.5 -9.5t-11.5 -18.5l-91 -392q-2 -9 3 -19t13 -10h39l-28 -123h-358z" />
    <glyph glyph-name="Idieresis" unicode="&#xcf;" horiz-adv-x="376" 
d="M414 724q-40 0 -63.5 22.5t-23.5 59.5q0 42 27 66.5t69 24.5q40 0 64 -22.5t24 -57.5q0 -43 -28 -68t-69 -25zM207 724q-40 0 -64 23t-24 59q0 42 27.5 66.5t69.5 24.5q40 0 63.5 -22.5t23.5 -57.5q0 -43 -27.5 -68t-68.5 -25zM-51 0l28 123h38q8 0 18.5 10.5t12.5 18.5
l90 392q2 9 -2.5 18.5t-13.5 9.5h-39l30 128h357l-29 -128h-38q-9 0 -18.5 -9.5t-11.5 -18.5l-91 -392q-2 -9 3 -19t13 -10h39l-28 -123h-358z" />
    <glyph glyph-name="Eth" unicode="&#xd0;" horiz-adv-x="734" 
d="M16 288l28 122h56l31 134q2 8 -4.5 18t-14.5 10h-31l30 128h300q162 0 250 -74.5t88 -210.5q0 -88 -28.5 -163t-84 -131.5t-144 -88.5t-201.5 -32h-342l28 123h29q9 0 21 10.5t14 18.5l31 136h-56zM270 129h36q95 0 151 80t56 215q0 68 -31 103.5t-88 35.5h-25l-35 -153
h96l-28 -122h-96z" />
    <glyph glyph-name="Ntilde" unicode="&#xd1;" horiz-adv-x="726" 
d="M303 728l18 77q35 62 108 62q23 0 62.5 -9t51.5 -9q27 0 40 22h89l-18 -77q-38 -63 -109 -63q-23 0 -62.5 10t-51.5 10q-26 0 -39 -23h-89zM-51 0l28 123h33q8 0 18.5 10.5t12.5 18.5l90 392q2 9 -2.5 18.5t-13.5 9.5h-34l30 128h282l116 -373h3l57 245h-61l30 128h282
l-30 -128h-29q-9 0 -19 -9.5t-12 -18.5l-125 -544h-197l-137 414h-3l-67 -291h64l-28 -123h-288z" />
    <glyph glyph-name="Ograve" unicode="&#xd2;" horiz-adv-x="737" 
d="M345 -11q-150 0 -235 76.5t-85 210.5q0 187 122 310.5t294 123.5q142 0 226.5 -77.5t84.5 -210.5q0 -192 -117.5 -312.5t-289.5 -120.5zM355 136q71 0 117 87.5t46 200.5q0 129 -96 129q-72 0 -117.5 -86t-45.5 -203q0 -128 96 -128zM418 735l-92 87l13 56h172l27 -143
h-120z" />
    <glyph glyph-name="Oacute" unicode="&#xd3;" horiz-adv-x="737" 
d="M345 -11q-150 0 -235 76.5t-85 210.5q0 187 122 310.5t294 123.5q142 0 226.5 -77.5t84.5 -210.5q0 -192 -117.5 -312.5t-289.5 -120.5zM355 136q71 0 117 87.5t46 200.5q0 129 -96 129q-72 0 -117.5 -86t-45.5 -203q0 -128 96 -128zM392 735l49 143h200l-13 -56
l-110 -87h-126z" />
    <glyph glyph-name="Ocircumflex" unicode="&#xd4;" horiz-adv-x="737" 
d="M316 735l9 40l94 103h142l61 -103l-9 -40h-84l-52 47l-71 -47h-90zM345 -11q-150 0 -235 76.5t-85 210.5q0 187 122 310.5t294 123.5q142 0 226.5 -77.5t84.5 -210.5q0 -192 -117.5 -312.5t-289.5 -120.5zM355 136q71 0 117 87.5t46 200.5q0 129 -96 129
q-72 0 -117.5 -86t-45.5 -203q0 -128 96 -128z" />
    <glyph glyph-name="Otilde" unicode="&#xd5;" horiz-adv-x="737" 
d="M297 735l18 77q35 62 108 62q23 0 62.5 -9t51.5 -9q27 0 40 22h89l-18 -77q-38 -63 -109 -63q-23 0 -62.5 10t-51.5 10q-26 0 -39 -23h-89zM345 -11q-150 0 -235 76.5t-85 210.5q0 187 122 310.5t294 123.5q142 0 226.5 -77.5t84.5 -210.5q0 -192 -117.5 -312.5
t-289.5 -120.5zM355 136q71 0 117 87.5t46 200.5q0 129 -96 129q-72 0 -117.5 -86t-45.5 -203q0 -128 96 -128z" />
    <glyph glyph-name="Odieresis" unicode="&#xd6;" horiz-adv-x="737" 
d="M345 -11q-150 0 -235 76.5t-85 210.5q0 187 122 310.5t294 123.5q142 0 226.5 -77.5t84.5 -210.5q0 -192 -117.5 -312.5t-289.5 -120.5zM355 136q71 0 117 87.5t46 200.5q0 129 -96 129q-72 0 -117.5 -86t-45.5 -203q0 -128 96 -128zM581 722q-40 0 -63.5 22.5
t-23.5 59.5q0 42 27 66.5t69 24.5q40 0 64 -22.5t24 -57.5q0 -43 -28 -68t-69 -25zM374 722q-40 0 -64 23t-24 59q0 42 27.5 66.5t69.5 24.5q40 0 63.5 -22.5t23.5 -57.5q0 -43 -27.5 -68t-68.5 -25z" />
    <glyph glyph-name="multiply" unicode="&#xd7;" horiz-adv-x="529" 
d="M105 100l-93 111l163 136l-108 133l125 105l108 -134l161 134l92 -111l-162 -135l108 -133l-124 -106l-109 134z" />
    <glyph glyph-name="Oslash" unicode="&#xd8;" horiz-adv-x="737" 
d="M345 -11q-115 0 -193 46l-60 -64h-103l105 111q-69 74 -69 194q0 187 122 310.5t294 123.5q114 0 195 -53l60 64h104l-108 -115q60 -74 60 -184q0 -192 -117.5 -312.5t-289.5 -120.5zM255 262v-9l248 263q-25 43 -80 43q-74 0 -121 -88.5t-47 -208.5zM354 130
q73 0 120.5 90t47.5 206l-245 -259q25 -37 77 -37z" />
    <glyph glyph-name="Ugrave" unicode="&#xd9;" horiz-adv-x="724" 
d="M440 728l-92 87l13 56h172l27 -143h-120zM344 -8q-174 0 -242 74t-37 207l62 271q2 9 -2.5 18.5t-13.5 9.5h-30l29 128h356l-30 -128h-68l-76 -328q-25 -107 81 -107q48 0 72.5 24t36.5 79l76 332h-69l30 128h297l-30 -128h-28q-9 0 -19 -9.5t-12 -18.5l-72 -311
q-29 -124 -104.5 -182.5t-206.5 -58.5z" />
    <glyph glyph-name="Uacute" unicode="&#xda;" horiz-adv-x="724" 
d="M344 -8q-174 0 -242 74t-37 207l62 271q2 9 -2.5 18.5t-13.5 9.5h-30l29 128h356l-30 -128h-68l-76 -328q-25 -107 81 -107q48 0 72.5 24t36.5 79l76 332h-69l30 128h297l-30 -128h-28q-9 0 -19 -9.5t-12 -18.5l-72 -311q-29 -124 -104.5 -182.5t-206.5 -58.5zM414 728
l49 143h200l-13 -56l-110 -87h-126z" />
    <glyph glyph-name="Ucircumflex" unicode="&#xdb;" horiz-adv-x="724" 
d="M338 728l9 40l94 103h142l61 -103l-9 -40h-84l-52 47l-71 -47h-90zM344 -8q-174 0 -242 74t-37 207l62 271q2 9 -2.5 18.5t-13.5 9.5h-30l29 128h356l-30 -128h-68l-76 -328q-25 -107 81 -107q48 0 72.5 24t36.5 79l76 332h-69l30 128h297l-30 -128h-28q-9 0 -19 -9.5
t-12 -18.5l-72 -311q-29 -124 -104.5 -182.5t-206.5 -58.5z" />
    <glyph glyph-name="Udieresis" unicode="&#xdc;" horiz-adv-x="724" 
d="M344 -8q-174 0 -242 74t-37 207l62 271q2 9 -2.5 18.5t-13.5 9.5h-30l29 128h356l-30 -128h-68l-76 -328q-25 -107 81 -107q48 0 72.5 24t36.5 79l76 332h-69l30 128h297l-30 -128h-28q-9 0 -19 -9.5t-12 -18.5l-72 -311q-29 -124 -104.5 -182.5t-206.5 -58.5zM605 724
q-40 0 -63.5 22.5t-23.5 59.5q0 42 27 66.5t69 24.5q40 0 64 -22.5t24 -57.5q0 -43 -28 -68t-69 -25zM398 724q-40 0 -64 23t-24 59q0 42 27.5 66.5t69.5 24.5q40 0 63.5 -22.5t23.5 -57.5q0 -43 -27.5 -68t-68.5 -25z" />
    <glyph glyph-name="Yacute" unicode="&#xdd;" horiz-adv-x="686" 
d="M389 728l49 143h200l-13 -56l-110 -87h-126zM108 0l29 123h36q9 0 19.5 10t12.5 19l28 122l-112 277q-8 21 -24 21h-16l30 128h328l-30 -128h-61l59 -164h3l76 102q21 29 15.5 45.5t-35.5 16.5h-13l29 128h297l-30 -128h-11q-20 0 -45 -29l-228 -277l-26 -114
q-2 -9 2.5 -19t13.5 -10h38l-28 -123h-357z" />
    <glyph glyph-name="Thorn" unicode="&#xde;" horiz-adv-x="653" 
d="M-51 0l28 123h29q9 0 21 10.5t14 18.5l90 392q2 8 -4.5 18t-14.5 10h-31l30 128h351l-30 -128h-60l-9 -36h65q236 0 236 -151q0 -113 -78 -168t-220 -55h-89l-9 -39h63l-28 -123h-354zM372 420h-35l-35 -149h44q41 0 62.5 26t21.5 66q0 57 -58 57z" />
    <glyph glyph-name="germandbls" unicode="&#xdf;" horiz-adv-x="684" 
d="M-102 -162l26 115q26 7 43 26t26 61l106 474q21 93 100.5 145t217.5 52q122 0 189.5 -39t67.5 -105q0 -68 -86 -123q-48 -30 -66.5 -45t-18.5 -28q0 -9 8 -15.5t36 -24.5q9 -6 14 -9q50 -29 73 -57.5t23 -72.5q0 -85 -60.5 -142.5t-174.5 -57.5q-104 0 -173 36l29 124
h103q8 -38 41 -38q17 0 27 8.5t10 21.5q0 14 -14.5 24.5t-52.5 30.5q-44 25 -64 50t-20 63q0 56 67 125q9 10 28 28.5t27 27t15.5 21.5t7.5 24q0 17 -13 27.5t-37 10.5q-71 0 -89 -85l-103 -453q-34 -148 -167 -200h-146z" />
    <glyph glyph-name="agrave" unicode="&#xe0;" horiz-adv-x="567" 
d="M128 -7q-64 0 -103 36t-39 99q0 92 63 136.5t163 44.5q65 0 101 -12l9 37q13 57 -61 57q-57 0 -102 -39h-97l35 153q103 33 223 33q132 0 188.5 -48.5t34.5 -147.5l-45 -194q-2 -8 3.5 -16.5t12.5 -8.5h21l-23 -104q-54 -28 -122 -28q-92 0 -112 69q-64 -67 -150 -67z
M232 115q21 0 43 16l18 79q-17 6 -38 6q-29 0 -45.5 -18.5t-16.5 -46.5q0 -36 39 -36zM295 557l-92 87l13 56h172l27 -143h-120z" />
    <glyph glyph-name="aacute" unicode="&#xe1;" horiz-adv-x="567" 
d="M128 -7q-64 0 -103 36t-39 99q0 92 63 136.5t163 44.5q65 0 101 -12l9 37q13 57 -61 57q-57 0 -102 -39h-97l35 153q103 33 223 33q132 0 188.5 -48.5t34.5 -147.5l-45 -194q-2 -8 3.5 -16.5t12.5 -8.5h21l-23 -104q-54 -28 -122 -28q-92 0 -112 69q-64 -67 -150 -67z
M232 115q21 0 43 16l18 79q-17 6 -38 6q-29 0 -45.5 -18.5t-16.5 -46.5q0 -36 39 -36zM269 557l49 143h200l-13 -56l-110 -87h-126z" />
    <glyph glyph-name="acircumflex" unicode="&#xe2;" horiz-adv-x="567" 
d="M193 557l9 40l94 103h142l61 -103l-9 -40h-84l-52 47l-71 -47h-90zM128 -7q-64 0 -103 36t-39 99q0 92 63 136.5t163 44.5q65 0 101 -12l9 37q13 57 -61 57q-57 0 -102 -39h-97l35 153q103 33 223 33q132 0 188.5 -48.5t34.5 -147.5l-45 -194q-2 -8 3.5 -16.5t12.5 -8.5
h21l-23 -104q-54 -28 -122 -28q-92 0 -112 69q-64 -67 -150 -67zM232 115q21 0 43 16l18 79q-17 6 -38 6q-29 0 -45.5 -18.5t-16.5 -46.5q0 -36 39 -36z" />
    <glyph glyph-name="atilde" unicode="&#xe3;" horiz-adv-x="567" 
d="M157 557l18 77q35 62 108 62q23 0 62.5 -9t51.5 -9q27 0 40 22h89l-18 -77q-38 -63 -109 -63q-23 0 -62.5 10t-51.5 10q-26 0 -39 -23h-89zM128 -7q-64 0 -103 36t-39 99q0 92 63 136.5t163 44.5q65 0 101 -12l9 37q13 57 -61 57q-57 0 -102 -39h-97l35 153
q103 33 223 33q132 0 188.5 -48.5t34.5 -147.5l-45 -194q-2 -8 3.5 -16.5t12.5 -8.5h21l-23 -104q-54 -28 -122 -28q-92 0 -112 69q-64 -67 -150 -67zM232 115q21 0 43 16l18 79q-17 6 -38 6q-29 0 -45.5 -18.5t-16.5 -46.5q0 -36 39 -36z" />
    <glyph glyph-name="adieresis" unicode="&#xe4;" horiz-adv-x="567" 
d="M128 -7q-64 0 -103 36t-39 99q0 92 63 136.5t163 44.5q65 0 101 -12l9 37q13 57 -61 57q-57 0 -102 -39h-97l35 153q103 33 223 33q132 0 188.5 -48.5t34.5 -147.5l-45 -194q-2 -8 3.5 -16.5t12.5 -8.5h21l-23 -104q-54 -28 -122 -28q-92 0 -112 69q-64 -67 -150 -67z
M232 115q21 0 43 16l18 79q-17 6 -38 6q-29 0 -45.5 -18.5t-16.5 -46.5q0 -36 39 -36zM443 553q-40 0 -63.5 22.5t-23.5 59.5q0 42 27 66.5t69 24.5q40 0 64 -22.5t24 -57.5q0 -43 -28 -68t-69 -25zM236 553q-40 0 -64 23t-24 59q0 42 27.5 66.5t69.5 24.5q40 0 63.5 -22.5
t23.5 -57.5q0 -43 -27.5 -68t-68.5 -25z" />
    <glyph glyph-name="aring" unicode="&#xe5;" horiz-adv-x="567" 
d="M355 558q-45 0 -75 27t-30 70q0 51 33.5 80t80.5 29q44 0 74 -27t30 -70q0 -51 -33.5 -80t-79.5 -29zM356 612q22 0 36 14t14 39q0 21 -12 33.5t-33 12.5t-34.5 -14.5t-13.5 -40.5q0 -20 11.5 -32t31.5 -12zM128 -7q-64 0 -103 36t-39 99q0 92 63 136.5t163 44.5
q65 0 101 -12l9 37q13 57 -61 57q-57 0 -102 -39h-97l35 153q103 33 223 33q132 0 188.5 -48.5t34.5 -147.5l-45 -194q-2 -8 3.5 -16.5t12.5 -8.5h21l-23 -104q-54 -28 -122 -28q-92 0 -112 69q-64 -67 -150 -67zM232 115q21 0 43 16l18 79q-17 6 -38 6q-29 0 -45.5 -18.5
t-16.5 -46.5q0 -36 39 -36z" />
    <glyph glyph-name="ae" unicode="&#xe6;" horiz-adv-x="828" 
d="M142 -7q-72 0 -114 36t-42 99q0 92 61.5 138t160.5 46q65 0 104 -10l8 32q6 27 -8 42t-51 15q-55 0 -102 -38h-97l35 152q103 33 223 33q109 0 150 -40q61 40 163 40q99 0 152.5 -44t53.5 -114q0 -102 -84.5 -140.5t-249.5 -38.5q1 -81 65 -81q62 0 102 46h111l-32 -136
q-80 -40 -192 -40q-170 0 -230 89q-72 -86 -187 -86zM604 414q-31 0 -53.5 -30.5t-34.5 -80.5q66 5 96.5 19.5t30.5 47.5q0 44 -39 44zM302 146q-6 28 -6 62v4q-17 4 -41 4q-31 0 -46.5 -18.5t-15.5 -46.5q0 -36 43 -36q30 0 66 31z" />
    <glyph glyph-name="ccedilla" unicode="&#xe7;" horiz-adv-x="498" 
d="M175 -175q-64 0 -96 17l14 64h48q7 -13 24 -13q22 0 22 17q0 16 -24 16h-21l16 76q-153 39 -153 197q0 151 92.5 245t243.5 94q127 0 197 -34l-35 -152h-113q-5 24 -17 36t-38 12q-50 0 -81.5 -65.5t-31.5 -140.5q0 -74 60 -74q47 0 78 46h107l-32 -139q-76 -37 -173 -37
q-11 0 -31 2l-3 -17q35 -3 53 -20t18 -43q0 -41 -33.5 -64t-90.5 -23z" />
    <glyph glyph-name="egrave" unicode="&#xe8;" horiz-adv-x="538" 
d="M281 557l-92 87l13 56h172l27 -143h-120zM268 -10q-138 0 -200 57t-62 153q0 151 93.5 244.5t239.5 93.5q101 0 155.5 -44t54.5 -114q0 -53 -23.5 -90t-70 -57t-103.5 -29t-137 -10q3 -74 65 -74t102 46h111l-32 -136q-80 -40 -193 -40zM314 411q-33 0 -56 -31.5
t-34 -83.5q66 6 97.5 23t31.5 50q0 42 -39 42z" />
    <glyph glyph-name="eacute" unicode="&#xe9;" horiz-adv-x="538" 
d="M255 557l49 143h200l-13 -56l-110 -87h-126zM268 -10q-138 0 -200 57t-62 153q0 151 93.5 244.5t239.5 93.5q101 0 155.5 -44t54.5 -114q0 -53 -23.5 -90t-70 -57t-103.5 -29t-137 -10q3 -74 65 -74t102 46h111l-32 -136q-80 -40 -193 -40zM314 411q-33 0 -56 -31.5
t-34 -83.5q66 6 97.5 23t31.5 50q0 42 -39 42z" />
    <glyph glyph-name="ecircumflex" unicode="&#xea;" horiz-adv-x="538" 
d="M179 557l9 40l94 103h142l61 -103l-9 -40h-84l-52 47l-71 -47h-90zM268 -10q-138 0 -200 57t-62 153q0 151 93.5 244.5t239.5 93.5q101 0 155.5 -44t54.5 -114q0 -53 -23.5 -90t-70 -57t-103.5 -29t-137 -10q3 -74 65 -74t102 46h111l-32 -136q-80 -40 -193 -40zM314 411
q-33 0 -56 -31.5t-34 -83.5q66 6 97.5 23t31.5 50q0 42 -39 42z" />
    <glyph glyph-name="edieresis" unicode="&#xeb;" horiz-adv-x="538" 
d="M268 -10q-138 0 -200 57t-62 153q0 151 93.5 244.5t239.5 93.5q101 0 155.5 -44t54.5 -114q0 -53 -23.5 -90t-70 -57t-103.5 -29t-137 -10q3 -74 65 -74t102 46h111l-32 -136q-80 -40 -193 -40zM314 411q-33 0 -56 -31.5t-34 -83.5q66 6 97.5 23t31.5 50q0 42 -39 42z
M446 553q-40 0 -63.5 22.5t-23.5 59.5q0 42 27 66.5t69 24.5q40 0 64 -22.5t24 -57.5q0 -43 -28 -68t-69 -25zM239 553q-40 0 -64 23t-24 59q0 42 27.5 66.5t69.5 24.5q40 0 63.5 -22.5t23.5 -57.5q0 -43 -27.5 -68t-68.5 -25z" />
    <glyph glyph-name="igrave" unicode="&#xec;" horiz-adv-x="329" 
d="M135 -9q-142 0 -110 136l56 245q2 7 -3 16t-12 9h-32l25 111q76 26 153 26q58 0 84.5 -32.5t13.5 -89.5l-62 -264q-2 -8 3.5 -16.5t12.5 -8.5h31l-24 -105q-48 -27 -136 -27zM184 557l-92 87l13 56h172l27 -143h-120z" />
    <glyph glyph-name="iacute" unicode="&#xed;" horiz-adv-x="329" 
d="M135 -9q-142 0 -110 136l56 245q2 7 -3 16t-12 9h-32l25 111q76 26 153 26q58 0 84.5 -32.5t13.5 -89.5l-62 -264q-2 -8 3.5 -16.5t12.5 -8.5h31l-24 -105q-48 -27 -136 -27zM158 557l49 143h200l-13 -56l-110 -87h-126z" />
    <glyph glyph-name="icircumflex" unicode="&#xee;" horiz-adv-x="329" 
d="M135 -9q-142 0 -110 136l56 245q2 7 -3 16t-12 9h-32l25 111q76 26 153 26q58 0 84.5 -32.5t13.5 -89.5l-62 -264q-2 -8 3.5 -16.5t12.5 -8.5h31l-24 -105q-48 -27 -136 -27zM82 557l9 40l94 103h142l61 -103l-9 -40h-84l-52 47l-71 -47h-90z" />
    <glyph glyph-name="idieresis" unicode="&#xef;" horiz-adv-x="329" 
d="M135 -9q-142 0 -110 136l56 245q2 7 -3 16t-12 9h-32l25 111q76 26 153 26q58 0 84.5 -32.5t13.5 -89.5l-62 -264q-2 -8 3.5 -16.5t12.5 -8.5h31l-24 -105q-48 -27 -136 -27zM349 553q-40 0 -63.5 22.5t-23.5 59.5q0 42 27 66.5t69 24.5q40 0 64 -22.5t24 -57.5
q0 -43 -28 -68t-69 -25zM142 553q-40 0 -64 23t-24 59q0 42 27.5 66.5t69.5 24.5q40 0 63.5 -22.5t23.5 -57.5q0 -43 -27.5 -68t-68.5 -25z" />
    <glyph glyph-name="eth" unicode="&#xf0;" horiz-adv-x="594" 
d="M170 504l7 31l55 37l-50 12l27 116h101q44 -12 73 -25l37 25h100l-7 -31l-54 -37q135 -97 135 -273q0 -173 -89.5 -270.5t-239.5 -97.5q-123 0 -192 60t-69 161q0 87 39 152t93 94.5t112 29.5q79 0 115 -44q-16 56 -53 87l-40 -27h-100zM271 117q42 0 69.5 61.5
t27.5 130.5t-54 69q-41 0 -68.5 -61t-27.5 -129q0 -71 53 -71z" />
    <glyph glyph-name="ntilde" unicode="&#xf1;" horiz-adv-x="635" 
d="M210 557l18 77q35 62 108 62q23 0 62.5 -9t51.5 -9q27 0 40 22h89l-18 -77q-38 -63 -109 -63q-23 0 -62.5 10t-51.5 10q-26 0 -39 -23h-89zM447 -9q-141 0 -109 136l45 192q6 24 -3.5 36t-39.5 12q-18 0 -44 -8l-83 -359h-194q-9 0 -14.5 9t-3.5 19l79 344q2 7 -3 16
t-12 9h-31l25 111q76 26 151 26q48 0 75 -24.5t26 -69.5q102 98 201 98q63 0 92.5 -38t13.5 -105l-57 -247q-2 -8 3.5 -16.5t12.5 -8.5h26l-24 -105q-49 -27 -132 -27z" />
    <glyph glyph-name="ograve" unicode="&#xf2;" horiz-adv-x="588" 
d="M293 557l-92 87l13 56h172l27 -143h-120zM271 -9q-125 0 -195 62t-70 171q0 131 87.5 222.5t225.5 91.5q125 0 195 -62.5t70 -170.5q0 -132 -86.5 -223t-226.5 -91zM273 121q42 0 69 64.5t27 139.5q0 71 -53 71q-42 0 -69 -64t-27 -139q0 -72 53 -72z" />
    <glyph glyph-name="oacute" unicode="&#xf3;" horiz-adv-x="588" 
d="M271 -9q-125 0 -195 62t-70 171q0 131 87.5 222.5t225.5 91.5q125 0 195 -62.5t70 -170.5q0 -132 -86.5 -223t-226.5 -91zM273 121q42 0 69 64.5t27 139.5q0 71 -53 71q-42 0 -69 -64t-27 -139q0 -72 53 -72zM267 557l49 143h200l-13 -56l-110 -87h-126z" />
    <glyph glyph-name="ocircumflex" unicode="&#xf4;" horiz-adv-x="588" 
d="M271 -9q-125 0 -195 62t-70 171q0 131 87.5 222.5t225.5 91.5q125 0 195 -62.5t70 -170.5q0 -132 -86.5 -223t-226.5 -91zM273 121q42 0 69 64.5t27 139.5q0 71 -53 71q-42 0 -69 -64t-27 -139q0 -72 53 -72zM191 557l9 40l94 103h142l61 -103l-9 -40h-84l-52 47l-71 -47
h-90z" />
    <glyph glyph-name="otilde" unicode="&#xf5;" horiz-adv-x="588" 
d="M172 557l18 77q35 62 108 62q23 0 62.5 -9t51.5 -9q27 0 40 22h89l-18 -77q-38 -63 -109 -63q-23 0 -62.5 10t-51.5 10q-26 0 -39 -23h-89zM271 -9q-125 0 -195 62t-70 171q0 131 87.5 222.5t225.5 91.5q125 0 195 -62.5t70 -170.5q0 -132 -86.5 -223t-226.5 -91z
M273 121q42 0 69 64.5t27 139.5q0 71 -53 71q-42 0 -69 -64t-27 -139q0 -72 53 -72z" />
    <glyph glyph-name="odieresis" unicode="&#xf6;" horiz-adv-x="588" 
d="M271 -9q-125 0 -195 62t-70 171q0 131 87.5 222.5t225.5 91.5q125 0 195 -62.5t70 -170.5q0 -132 -86.5 -223t-226.5 -91zM273 121q42 0 69 64.5t27 139.5q0 71 -53 71q-42 0 -69 -64t-27 -139q0 -72 53 -72zM458 553q-40 0 -63.5 22.5t-23.5 59.5q0 42 27 66.5t69 24.5
q40 0 64 -22.5t24 -57.5q0 -43 -28 -68t-69 -25zM251 553q-40 0 -64 23t-24 59q0 42 27.5 66.5t69.5 24.5q40 0 63.5 -22.5t23.5 -57.5q0 -43 -27.5 -68t-68.5 -25z" />
    <glyph glyph-name="divide" unicode="&#xf7;" horiz-adv-x="517" 
d="M312 444q-42 0 -69 27.5t-25 64.5q3 44 35.5 73t75.5 29q42 0 68.5 -27.5t23.5 -66.5q-2 -42 -34.5 -71t-74.5 -29zM12 269l36 153h496l-35 -153h-497zM227 53q-42 0 -68.5 27.5t-24.5 64.5q3 44 35 73t75 29q42 0 69 -27.5t24 -66.5q-3 -42 -35.5 -71t-74.5 -29z" />
    <glyph glyph-name="oslash" unicode="&#xf8;" horiz-adv-x="588" 
d="M-32 -29l94 95q-56 61 -56 158q0 130 87.5 222t225.5 92q96 0 164 -41l51 53h91l-92 -95q51 -61 51 -150q0 -131 -87 -222.5t-226 -91.5q-94 0 -158 35l-54 -55h-91zM272 117q41 0 68 52.5t31 122.5l-145 -152q14 -23 46 -23zM218 224l145 153q-14 24 -46 24
q-41 0 -69 -54.5t-30 -122.5z" />
    <glyph glyph-name="ugrave" unicode="&#xf9;" horiz-adv-x="631" 
d="M322 557l-92 87l13 56h172l27 -143h-120zM443 -9q-119 0 -116 93q-93 -93 -188 -93q-67 0 -98 40t-14 112l52 229q2 7 -3 16t-12 9h-30l25 111q79 27 150 27q59 0 85 -35.5t12 -93.5l-48 -207q-12 -53 43 -53q20 0 38 6l86 376h195q10 0 15 -8.5t3 -19.5l-82 -352
q-2 -8 3.5 -16.5t12.5 -8.5h27l-24 -105q-49 -27 -132 -27z" />
    <glyph glyph-name="uacute" unicode="&#xfa;" horiz-adv-x="631" 
d="M443 -9q-119 0 -116 93q-93 -93 -188 -93q-67 0 -98 40t-14 112l52 229q2 7 -3 16t-12 9h-30l25 111q79 27 150 27q59 0 85 -35.5t12 -93.5l-48 -207q-12 -53 43 -53q20 0 38 6l86 376h195q10 0 15 -8.5t3 -19.5l-82 -352q-2 -8 3.5 -16.5t12.5 -8.5h27l-24 -105
q-49 -27 -132 -27zM296 557l49 143h200l-13 -56l-110 -87h-126z" />
    <glyph glyph-name="ucircumflex" unicode="&#xfb;" horiz-adv-x="631" 
d="M220 557l9 40l94 103h142l61 -103l-9 -40h-84l-52 47l-71 -47h-90zM443 -9q-119 0 -116 93q-93 -93 -188 -93q-67 0 -98 40t-14 112l52 229q2 7 -3 16t-12 9h-30l25 111q79 27 150 27q59 0 85 -35.5t12 -93.5l-48 -207q-12 -53 43 -53q20 0 38 6l86 376h195q10 0 15 -8.5
t3 -19.5l-82 -352q-2 -8 3.5 -16.5t12.5 -8.5h27l-24 -105q-49 -27 -132 -27z" />
    <glyph glyph-name="udieresis" unicode="&#xfc;" horiz-adv-x="631" 
d="M443 -9q-119 0 -116 93q-93 -93 -188 -93q-67 0 -98 40t-14 112l52 229q2 7 -3 16t-12 9h-30l25 111q79 27 150 27q59 0 85 -35.5t12 -93.5l-48 -207q-12 -53 43 -53q20 0 38 6l86 376h195q10 0 15 -8.5t3 -19.5l-82 -352q-2 -8 3.5 -16.5t12.5 -8.5h27l-24 -105
q-49 -27 -132 -27zM487 553q-40 0 -63.5 22.5t-23.5 59.5q0 42 27 66.5t69 24.5q40 0 64 -22.5t24 -57.5q0 -43 -28 -68t-69 -25zM280 553q-40 0 -64 23t-24 59q0 42 27.5 66.5t69.5 24.5q40 0 63.5 -22.5t23.5 -57.5q0 -43 -27.5 -68t-68.5 -25z" />
    <glyph glyph-name="yacute" unicode="&#xfd;" horiz-adv-x="619" 
d="M199 -172q-152 0 -225 32l32 137h125q17 -37 75 -37q89 0 108 87l12 53q-83 -70 -179 -70q-66 0 -97.5 39t-16.5 103l46 200q2 7 -3 16t-12 9h-30l25 111q79 27 150 27q59 0 85 -35.5t12 -93.5l-44 -191q-12 -53 43 -53q19 0 37 6l83 360h195q10 0 15 -8.5t3 -19.5
l-109 -471q-23 -99 -102 -150t-228 -51zM303 557l49 143h200l-13 -56l-110 -87h-126z" />
    <glyph glyph-name="thorn" unicode="&#xfe;" horiz-adv-x="596" 
d="M326 13q-82 0 -128 38l-22 -98h46l-27 -115h-314l27 115h25q8 0 18.5 8.5t11.5 15.5l131 570q2 7 -3.5 16t-11.5 9h-29l30 128h233q15 0 22 -12t3 -32l-45 -194q71 76 155 76q64 0 105.5 -45t41.5 -129q0 -177 -92 -275q-70 -76 -177 -76zM303 380q-12 0 -30 -5l-54 -234
q20 -9 43 -9q51 0 82 51.5t31 126.5q0 70 -72 70z" />
    <glyph glyph-name="ydieresis" unicode="&#xff;" horiz-adv-x="619" 
d="M199 -172q-152 0 -225 32l32 137h125q17 -37 75 -37q89 0 108 87l12 53q-83 -70 -179 -70q-66 0 -97.5 39t-16.5 103l46 200q2 7 -3 16t-12 9h-30l25 111q79 27 150 27q59 0 85 -35.5t12 -93.5l-44 -191q-12 -53 43 -53q19 0 37 6l83 360h195q10 0 15 -8.5t3 -19.5
l-109 -471q-23 -99 -102 -150t-228 -51zM494 553q-40 0 -63.5 22.5t-23.5 59.5q0 42 27 66.5t69 24.5q40 0 64 -22.5t24 -57.5q0 -43 -28 -68t-69 -25zM287 553q-40 0 -64 23t-24 59q0 42 27.5 66.5t69.5 24.5q40 0 63.5 -22.5t23.5 -57.5q0 -43 -27.5 -68t-68.5 -25z" />
    <glyph glyph-name="Amacron" unicode="&#x100;" horiz-adv-x="748" 
d="M315 744l28 120h285l-28 -120h-285zM-51 0l28 123h12q28 0 45 31l227 391q6 8 2.5 17.5t-12.5 9.5h-35l29 128h377l45 -554q1 -8 9 -15.5t15 -7.5h17l-29 -123h-354l28 123h79l-5 91h-192q-25 -45 -22.5 -68t38.5 -23h25l-28 -123h-299zM408 528l-115 -208h128l-11 208
h-2z" />
    <glyph glyph-name="amacron" unicode="&#x101;" horiz-adv-x="567" 
d="M203 573l28 120h285l-28 -120h-285zM128 -7q-64 0 -103 36t-39 99q0 92 63 136.5t163 44.5q65 0 101 -12l9 37q13 57 -61 57q-57 0 -102 -39h-97l35 153q103 33 223 33q132 0 188.5 -48.5t34.5 -147.5l-45 -194q-2 -8 3.5 -16.5t12.5 -8.5h21l-23 -104q-54 -28 -122 -28
q-92 0 -112 69q-64 -67 -150 -67zM232 115q21 0 43 16l18 79q-17 6 -38 6q-29 0 -45.5 -18.5t-16.5 -46.5q0 -36 39 -36z" />
    <glyph glyph-name="Abreve" unicode="&#x102;" horiz-adv-x="748" 
d="M470 727q-113 0 -140 88l13 56h92q0 -35 38 -35t50 35h100l-16 -69q-17 -32 -52 -53.5t-85 -21.5zM-51 0l28 123h12q28 0 45 31l227 391q6 8 2.5 17.5t-12.5 9.5h-35l29 128h377l45 -554q1 -8 9 -15.5t15 -7.5h17l-29 -123h-354l28 123h79l-5 91h-192q-25 -45 -22.5 -68
t38.5 -23h25l-28 -123h-299zM408 528l-115 -208h128l-11 208h-2z" />
    <glyph glyph-name="abreve" unicode="&#x103;" horiz-adv-x="567" 
d="M352 556q-113 0 -140 88l13 56h92q0 -35 38 -35t50 35h100l-16 -69q-17 -32 -52 -53.5t-85 -21.5zM128 -7q-64 0 -103 36t-39 99q0 92 63 136.5t163 44.5q65 0 101 -12l9 37q13 57 -61 57q-57 0 -102 -39h-97l35 153q103 33 223 33q132 0 188.5 -48.5t34.5 -147.5
l-45 -194q-2 -8 3.5 -16.5t12.5 -8.5h21l-23 -104q-54 -28 -122 -28q-92 0 -112 69q-64 -67 -150 -67zM232 115q21 0 43 16l18 79q-17 6 -38 6q-29 0 -45.5 -18.5t-16.5 -46.5q0 -36 39 -36z" />
    <glyph glyph-name="Aogonek" unicode="&#x104;" horiz-adv-x="748" 
d="M561 -169q-47 0 -75.5 18.5t-28.5 51.5q0 34 31 59.5t80 39.5h-243l28 123h79l-5 91h-192q-25 -45 -22.5 -68t38.5 -23h25l-28 -123h-299l28 123h12q28 0 45 31l227 391q6 8 2.5 17.5t-12.5 9.5h-35l29 128h377l45 -554q1 -8 9 -15.5t15 -7.5h17l-29 -123h-42
q-43 -35 -43 -56q0 -22 33 -22h21l-18 -76q-28 -15 -69 -15zM408 528l-115 -208h128l-11 208h-2z" />
    <glyph glyph-name="aogonek" unicode="&#x105;" horiz-adv-x="567" 
d="M405 -169q-47 0 -75.5 19t-28.5 51q0 56 86 90q-89 0 -109 68q-63 -66 -150 -66q-64 0 -103.5 36t-39.5 99q0 92 63.5 136.5t163.5 44.5q64 0 102 -12l8 37q13 57 -61 57q-57 0 -102 -39h-97l35 153q103 33 223 33q132 0 188.5 -48.5t34.5 -147.5l-45 -194
q-2 -8 3.5 -16.5t12.5 -8.5h21l-23 -103q-74 -46 -74 -75q0 -23 33 -23h21l-18 -77q-28 -14 -69 -14zM232 112q22 0 42 17l20 85q-19 7 -39 7q-29 0 -45.5 -20.5t-16.5 -49.5q0 -39 39 -39z" />
    <glyph glyph-name="Cacute" unicode="&#x106;" horiz-adv-x="632" 
d="M337 -11q-154 0 -233 72t-79 200q0 192 115 321t290 129q72 0 118 -11h169l-58 -250h-145l-5 100q-22 8 -50 8q-84 0 -139.5 -82t-55.5 -214q0 -120 98 -120q69 0 129 67h115l-36 -161q-105 -59 -233 -59zM383 735l49 143h200l-13 -56l-110 -87h-126z" />
    <glyph glyph-name="cacute" unicode="&#x107;" horiz-adv-x="498" 
d="M262 -10q-131 0 -194 55.5t-63 153.5q0 151 92.5 245t243.5 94q127 0 197 -34l-35 -152h-113q-5 24 -17 36t-38 12q-50 0 -81.5 -65.5t-31.5 -140.5q0 -74 60 -74q47 0 78 46h107l-32 -139q-76 -37 -173 -37zM261 557l49 143h200l-13 -56l-110 -87h-126z" />
    <glyph glyph-name="Ccircumflex" unicode="&#x108;" horiz-adv-x="632" 
d="M337 -11q-154 0 -233 72t-79 200q0 192 115 321t290 129q72 0 118 -11h169l-58 -250h-145l-5 100q-22 8 -50 8q-84 0 -139.5 -82t-55.5 -214q0 -120 98 -120q69 0 129 67h115l-36 -161q-105 -59 -233 -59zM307 735l9 40l94 103h142l61 -103l-9 -40h-84l-52 47l-71 -47
h-90z" />
    <glyph glyph-name="ccircumflex" unicode="&#x109;" horiz-adv-x="498" 
d="M262 -10q-131 0 -194 55.5t-63 153.5q0 151 92.5 245t243.5 94q127 0 197 -34l-35 -152h-113q-5 24 -17 36t-38 12q-50 0 -81.5 -65.5t-31.5 -140.5q0 -74 60 -74q47 0 78 46h107l-32 -139q-76 -37 -173 -37zM185 557l9 40l94 103h142l61 -103l-9 -40h-84l-52 47l-71 -47
h-90z" />
    <glyph glyph-name="Cdotaccent" unicode="&#x10a;" horiz-adv-x="632" 
d="M465 736q-42 0 -67.5 23.5t-25.5 60.5q0 45 30 71.5t74 26.5q42 0 67.5 -23.5t25.5 -60.5q0 -46 -30 -72t-74 -26zM337 -11q-154 0 -233 72t-79 200q0 192 115 321t290 129q72 0 118 -11h169l-58 -250h-145l-5 100q-22 8 -50 8q-84 0 -139.5 -82t-55.5 -214
q0 -120 98 -120q69 0 129 67h115l-36 -161q-105 -59 -233 -59z" />
    <glyph glyph-name="cdotaccent" unicode="&#x10b;" horiz-adv-x="498" 
d="M343 558q-42 0 -67.5 23.5t-25.5 60.5q0 45 30 71.5t74 26.5q42 0 67.5 -23.5t25.5 -60.5q0 -46 -30 -72t-74 -26zM262 -10q-131 0 -194 55.5t-63 153.5q0 151 92.5 245t243.5 94q127 0 197 -34l-35 -152h-113q-5 24 -17 36t-38 12q-50 0 -81.5 -65.5t-31.5 -140.5
q0 -74 60 -74q47 0 78 46h107l-32 -139q-76 -37 -173 -37z" />
    <glyph glyph-name="Ccaron" unicode="&#x10c;" horiz-adv-x="632" 
d="M337 -11q-154 0 -233 72t-79 200q0 192 115 321t290 129q72 0 118 -11h169l-58 -250h-145l-5 100q-22 8 -50 8q-84 0 -139.5 -82t-55.5 -214q0 -120 98 -120q69 0 129 67h115l-36 -161q-105 -59 -233 -59zM392 735l-61 103l9 40h84l52 -48l71 48h90l-9 -40l-94 -103h-142
z" />
    <glyph glyph-name="ccaron" unicode="&#x10d;" horiz-adv-x="498" 
d="M262 -10q-131 0 -194 55.5t-63 153.5q0 151 92.5 245t243.5 94q127 0 197 -34l-35 -152h-113q-5 24 -17 36t-38 12q-50 0 -81.5 -65.5t-31.5 -140.5q0 -74 60 -74q47 0 78 46h107l-32 -139q-76 -37 -173 -37zM270 557l-61 103l9 40h84l52 -48l71 48h90l-9 -40l-94 -103
h-142z" />
    <glyph glyph-name="Dcaron" unicode="&#x10e;" horiz-adv-x="734" 
d="M-51 0l28 123h29q9 0 21 10.5t14 18.5l90 392q2 8 -4.5 18t-14.5 10h-31l30 128h300q162 0 250 -74.5t88 -210.5q0 -88 -28.5 -163t-84 -131.5t-144 -88.5t-201.5 -32h-342zM270 129h36q95 0 151 80t56 215q0 68 -31 103.5t-88 35.5h-25zM348 728l-61 103l9 40h84l52 -48
l71 48h90l-9 -40l-94 -103h-142z" />
    <glyph glyph-name="dcaron" unicode="&#x10f;" horiz-adv-x="623" 
d="M665 555l39 145h164l-13 -56l-75 -89h-115zM158 -10q-71 0 -113.5 49t-42.5 140q0 78 27.5 154.5t77.5 127.5q74 77 173 77q84 0 126 -51l20 85h-51l30 128h235q15 0 22 -12.5t2 -31.5l-117 -508q-2 -8 3.5 -16.5t12.5 -8.5h26l-24 -105q-49 -27 -122 -27q-106 0 -120 76
q-73 -77 -165 -77zM292 128q15 0 33 6l57 249q-18 7 -40 7q-56 0 -87.5 -54.5t-31.5 -139.5q0 -68 69 -68z" />
    <glyph glyph-name="Dcroat" unicode="&#x110;" horiz-adv-x="734" 
d="M16 288l28 122h56l31 134q2 8 -4.5 18t-14.5 10h-31l30 128h300q162 0 250 -74.5t88 -210.5q0 -88 -28.5 -163t-84 -131.5t-144 -88.5t-201.5 -32h-342l28 123h29q9 0 21 10.5t14 18.5l31 136h-56zM270 129h36q95 0 151 80t56 215q0 68 -31 103.5t-88 35.5h-25l-35 -153
h96l-28 -122h-96z" />
    <glyph glyph-name="dcroat" unicode="&#x111;" horiz-adv-x="623" 
d="M341 553l23 94h79l13 53h184q15 0 22.5 -10t3.5 -28l-4 -15h47l-22 -94h-46l-94 -405q-2 -8 3.5 -16.5t12.5 -8.5h26l-24 -105q-49 -27 -122 -27q-106 0 -120 76q-73 -77 -165 -77q-71 0 -113.5 49t-42.5 140q0 78 27.5 154.5t77.5 127.5q74 77 173 77q84 0 127 -51
l15 66h-81zM292 128q15 0 33 6l58 249q-19 7 -41 7q-56 0 -87.5 -54.5t-31.5 -139.5q0 -68 69 -68z" />
    <glyph glyph-name="Emacron" unicode="&#x112;" horiz-adv-x="619" 
d="M279 744l28 120h285l-28 -120h-285zM-51 0l28 123h33q8 0 18.5 10.5t12.5 18.5l90 392q2 9 -2.5 18.5t-13.5 9.5h-34l30 128h587l-53 -227h-132l-3 89h-141l-31 -135h157l-33 -140h-157l-35 -153h148l43 106h142l-55 -240h-599z" />
    <glyph glyph-name="emacron" unicode="&#x113;" horiz-adv-x="538" 
d="M189 573l28 120h285l-28 -120h-285zM268 -10q-138 0 -200 57t-62 153q0 151 93.5 244.5t239.5 93.5q101 0 155.5 -44t54.5 -114q0 -53 -23.5 -90t-70 -57t-103.5 -29t-137 -10q3 -74 65 -74t102 46h111l-32 -136q-80 -40 -193 -40zM314 411q-33 0 -56 -31.5t-34 -83.5
q66 6 97.5 23t31.5 50q0 42 -39 42z" />
    <glyph glyph-name="Ebreve" unicode="&#x114;" horiz-adv-x="619" 
d="M-51 0l28 123h33q8 0 18.5 10.5t12.5 18.5l90 392q2 9 -2.5 18.5t-13.5 9.5h-34l30 128h587l-53 -227h-132l-3 89h-141l-31 -135h157l-33 -140h-157l-35 -153h148l43 106h142l-55 -240h-599zM411 734q-113 0 -140 88l13 56h92q0 -35 38 -35t50 35h100l-16 -69
q-17 -32 -52 -53.5t-85 -21.5z" />
    <glyph glyph-name="ebreve" unicode="&#x115;" horiz-adv-x="538" 
d="M268 -10q-138 0 -200 57t-62 153q0 151 93.5 244.5t239.5 93.5q101 0 155.5 -44t54.5 -114q0 -53 -23.5 -90t-70 -57t-103.5 -29t-137 -10q3 -74 65 -74t102 46h111l-32 -136q-80 -40 -193 -40zM314 411q-33 0 -56 -31.5t-34 -83.5q66 6 97.5 23t31.5 50q0 42 -39 42z
M343 556q-113 0 -140 88l13 56h92q0 -35 38 -35t50 35h100l-16 -69q-17 -32 -52 -53.5t-85 -21.5z" />
    <glyph glyph-name="Edotaccent" unicode="&#x116;" horiz-adv-x="619" 
d="M428 729q-42 0 -67.5 23.5t-25.5 60.5q0 45 30 71.5t74 26.5q42 0 67.5 -23.5t25.5 -60.5q0 -45 -30 -71.5t-74 -26.5zM-51 0l28 123h33q8 0 18.5 10.5t12.5 18.5l90 392q2 9 -2.5 18.5t-13.5 9.5h-34l30 128h587l-53 -227h-132l-3 89h-141l-31 -135h157l-33 -140h-157
l-35 -153h148l43 106h142l-55 -240h-599z" />
    <glyph glyph-name="edotaccent" unicode="&#x117;" horiz-adv-x="538" 
d="M337 558q-42 0 -67.5 23.5t-25.5 60.5q0 45 30 71.5t74 26.5q42 0 67.5 -23.5t25.5 -60.5q0 -46 -30 -72t-74 -26zM268 -10q-138 0 -200 57t-62 153q0 151 93.5 244.5t239.5 93.5q101 0 155.5 -44t54.5 -114q0 -53 -23.5 -90t-70 -57t-103.5 -29t-137 -10q3 -74 65 -74
t102 46h111l-32 -136q-80 -40 -193 -40zM314 411q-33 0 -56 -31.5t-34 -83.5q66 6 97.5 23t31.5 50q0 42 -39 42z" />
    <glyph glyph-name="Eogonek" unicode="&#x118;" horiz-adv-x="619" 
d="M-51 0l28 123h33q8 0 18.5 10.5t12.5 18.5l90 392q2 9 -2.5 18.5t-13.5 9.5h-34l30 128h587l-53 -227h-132l-3 89h-141l-31 -135h157l-33 -140h-157l-35 -153h148l43 106h142l-55 -240h-37q-43 -35 -43 -56q0 -22 33 -22h21l-18 -76q-28 -15 -69 -15q-47 0 -75.5 18.5
t-28.5 51.5q0 34 31 59.5t80 39.5h-493z" />
    <glyph glyph-name="eogonek" unicode="&#x119;" horiz-adv-x="538" 
d="M352 -169q-47 0 -75.5 18.5t-28.5 51.5q0 31 24 56t60 40q-28 -7 -64 -7q-262 0 -262 219q0 147 93.5 238t239.5 91q101 0 155.5 -44t54.5 -114q0 -53 -23.5 -90t-70 -57t-103.5 -29t-137 -10q3 -74 65 -74t102 46h111l-32 -136q-76 -47 -76 -84q0 -24 33 -24h21l-18 -76
q-28 -15 -69 -15zM314 411q-33 0 -56 -31.5t-34 -83.5q66 6 97.5 23t31.5 50q0 42 -39 42z" />
    <glyph glyph-name="Ecaron" unicode="&#x11a;" horiz-adv-x="619" 
d="M-51 0l28 123h33q8 0 18.5 10.5t12.5 18.5l90 392q2 9 -2.5 18.5t-13.5 9.5h-34l30 128h587l-53 -227h-132l-3 89h-141l-31 -135h157l-33 -140h-157l-35 -153h148l43 106h142l-55 -240h-599zM354 728l-61 103l9 40h84l52 -48l71 48h90l-9 -40l-94 -103h-142z" />
    <glyph glyph-name="ecaron" unicode="&#x11b;" horiz-adv-x="538" 
d="M268 -10q-138 0 -200 57t-62 153q0 151 93.5 244.5t239.5 93.5q101 0 155.5 -44t54.5 -114q0 -53 -23.5 -90t-70 -57t-103.5 -29t-137 -10q3 -74 65 -74t102 46h111l-32 -136q-80 -40 -193 -40zM314 411q-33 0 -56 -31.5t-34 -83.5q66 6 97.5 23t31.5 50q0 42 -39 42z
M264 557l-61 103l9 40h84l52 -48l71 48h90l-9 -40l-94 -103h-142z" />
    <glyph glyph-name="Gcircumflex" unicode="&#x11c;" horiz-adv-x="697" 
d="M307 -11q-135 0 -208.5 71.5t-73.5 193.5q0 193 116.5 324.5t303.5 131.5q65 0 115 -10h167l-56 -243h-146l-7 92q-22 9 -54 9q-87 0 -142.5 -89.5t-56.5 -220.5q0 -59 20 -86.5t65 -27.5q22 0 47 7l21 95h-49l28 122h314l-29 -125h-18q-9 0 -19 -9.5t-12 -18.5l-47 -205
h-117q-5 20 -23 20q-60 -31 -139 -31zM315 735l9 40l94 103h142l61 -103l-9 -40h-84l-52 47l-71 -47h-90z" />
    <glyph glyph-name="gcircumflex" unicode="&#x11d;" horiz-adv-x="532" 
d="M194 557l9 40l94 103h142l61 -103l-9 -40h-84l-52 47l-71 -47h-90zM185 -181q-134 0 -193 28.5t-59 85.5q0 79 123 114q-20 9 -33 27.5t-13 40.5q0 70 90 114q-59 38 -59 109q0 90 68.5 145t186.5 55q44 0 87 -10h197l-29 -131h-12q-11 0 -23 -14v-2q0 -86 -66.5 -138
t-180.5 -52q-66 0 -111 13q-4 -12 -4 -18q0 -27 35 -27h148q158 0 158 -124q0 -216 -310 -216zM269 284q25 0 44 31t19 78q0 40 -38 40q-24 0 -42 -29.5t-18 -74.5t35 -45zM263 0h-144q-3 -10 -3 -23q0 -25 15 -34.5t63 -9.5q47 0 77 11.5t30 33.5t-38 22z" />
    <glyph glyph-name="Gbreve" unicode="&#x11e;" horiz-adv-x="697" 
d="M307 -11q-135 0 -208.5 71.5t-73.5 193.5q0 193 116.5 324.5t303.5 131.5q65 0 115 -10h167l-56 -243h-146l-7 92q-22 9 -54 9q-87 0 -142.5 -89.5t-56.5 -220.5q0 -59 20 -86.5t65 -27.5q22 0 47 7l21 95h-49l28 122h314l-29 -125h-18q-9 0 -19 -9.5t-12 -18.5l-47 -205
h-117q-5 20 -23 20q-60 -31 -139 -31zM475 734q-113 0 -140 88l13 56h92q0 -35 38 -35t50 35h100l-16 -69q-17 -32 -52 -53.5t-85 -21.5z" />
    <glyph glyph-name="gbreve" unicode="&#x11f;" horiz-adv-x="532" 
d="M353 556q-113 0 -140 88l13 56h92q0 -35 38 -35t50 35h100l-16 -69q-17 -32 -52 -53.5t-85 -21.5zM185 -181q-134 0 -193 28.5t-59 85.5q0 79 123 114q-20 9 -33 27.5t-13 40.5q0 70 90 114q-59 38 -59 109q0 90 68.5 145t186.5 55q44 0 87 -10h197l-29 -131h-12
q-11 0 -23 -14v-2q0 -86 -66.5 -138t-180.5 -52q-66 0 -111 13q-4 -12 -4 -18q0 -27 35 -27h148q158 0 158 -124q0 -216 -310 -216zM269 284q25 0 44 31t19 78q0 40 -38 40q-24 0 -42 -29.5t-18 -74.5t35 -45zM263 0h-144q-3 -10 -3 -23q0 -25 15 -34.5t63 -9.5
q47 0 77 11.5t30 33.5t-38 22z" />
    <glyph glyph-name="Gdotaccent" unicode="&#x120;" horiz-adv-x="697" 
d="M474 736q-42 0 -67.5 23.5t-25.5 60.5q0 45 30 71.5t74 26.5q42 0 67.5 -23.5t25.5 -60.5q0 -46 -30 -72t-74 -26zM307 -11q-135 0 -208.5 71.5t-73.5 193.5q0 193 116.5 324.5t303.5 131.5q65 0 115 -10h167l-56 -243h-146l-7 92q-22 9 -54 9q-87 0 -142.5 -89.5
t-56.5 -220.5q0 -59 20 -86.5t65 -27.5q22 0 47 7l21 95h-49l28 122h314l-29 -125h-18q-9 0 -19 -9.5t-12 -18.5l-47 -205h-117q-5 20 -23 20q-60 -31 -139 -31z" />
    <glyph glyph-name="gdotaccent" unicode="&#x121;" horiz-adv-x="532" 
d="M352 558q-42 0 -67.5 23.5t-25.5 60.5q0 45 30 71.5t74 26.5q42 0 67.5 -23.5t25.5 -60.5q0 -46 -30 -72t-74 -26zM185 -181q-134 0 -193 28.5t-59 85.5q0 79 123 114q-20 9 -33 27.5t-13 40.5q0 70 90 114q-59 38 -59 109q0 90 68.5 145t186.5 55q44 0 87 -10h197
l-29 -131h-12q-11 0 -23 -14v-2q0 -86 -66.5 -138t-180.5 -52q-66 0 -111 13q-4 -12 -4 -18q0 -27 35 -27h148q158 0 158 -124q0 -216 -310 -216zM269 284q25 0 44 31t19 78q0 40 -38 40q-24 0 -42 -29.5t-18 -74.5t35 -45zM263 0h-144q-3 -10 -3 -23q0 -25 15 -34.5
t63 -9.5q47 0 77 11.5t30 33.5t-38 22z" />
    <glyph glyph-name="Gcommaaccent" unicode="&#x122;" horiz-adv-x="697" 
d="M307 -11q-135 0 -208.5 71.5t-73.5 193.5q0 193 116.5 324.5t303.5 131.5q65 0 115 -10h167l-56 -243h-146l-7 92q-22 9 -54 9q-87 0 -142.5 -89.5t-56.5 -220.5q0 -59 20 -86.5t65 -27.5q22 0 47 7l21 95h-49l28 122h314l-29 -125h-18q-9 0 -19 -9.5t-12 -18.5l-47 -205
h-117q-5 20 -23 20q-60 -31 -139 -31zM155 -237l13 58q57 7 57 28q0 6 -19 23.5t-19 40.5q0 31 22 48.5t54 17.5q35 0 57 -21t22 -55q0 -131 -187 -140z" />
    <glyph glyph-name="gcommaaccent" unicode="&#x123;" horiz-adv-x="532" 
d="M330 558q-35 0 -56.5 21t-21.5 55q0 132 186 140l-13 -58q-57 -6 -57 -28q0 -6 19 -23t19 -40q0 -32 -22 -49.5t-54 -17.5zM185 -181q-134 0 -193 28.5t-59 85.5q0 79 123 114q-20 9 -33 27.5t-13 40.5q0 70 90 114q-59 38 -59 109q0 90 68.5 145t186.5 55q44 0 87 -10
h197l-29 -131h-12q-11 0 -23 -14v-2q0 -86 -66.5 -138t-180.5 -52q-66 0 -111 13q-4 -12 -4 -18q0 -27 35 -27h148q158 0 158 -124q0 -216 -310 -216zM269 284q25 0 44 31t19 78q0 40 -38 40q-24 0 -42 -29.5t-18 -74.5t35 -45zM263 0h-144q-3 -10 -3 -23q0 -25 15 -34.5
t63 -9.5q47 0 77 11.5t30 33.5t-38 22z" />
    <glyph glyph-name="Hcircumflex" unicode="&#x124;" horiz-adv-x="758" 
d="M-51 0l28 123h33q8 0 18.5 10.5t12.5 18.5l90 392q2 9 -2.5 18.5t-13.5 9.5h-34l30 128h347l-30 -128h-56l-37 -158h159l36 158h-56l29 128h348l-30 -128h-32q-9 0 -19 -9.5t-12 -18.5l-90 -392q-2 -9 3 -19t13 -10h34l-28 -123h-348l28 123h57l39 172h-158l-40 -172h57
l-28 -123h-348zM338 728l9 40l94 103h142l61 -103l-9 -40h-84l-52 47l-71 -47h-90z" />
    <glyph glyph-name="hcircumflex" unicode="&#x125;" horiz-adv-x="635" 
d="M447 -9q-141 0 -109 136l45 192q6 24 -3.5 36t-39.5 12q-19 0 -45 -8l-82 -359h-194q-9 0 -14.5 9t-3.5 19l119 519q2 8 -3 16.5t-12 8.5h-28l29 128h234q15 0 21.5 -12t2.5 -32l-49 -213q99 95 197 95q63 0 92.5 -38t13.5 -105l-57 -247q-2 -8 3.5 -16.5t12.5 -8.5h26
l-24 -105q-49 -27 -132 -27zM261 721l9 40l94 103h142l61 -103l-9 -40h-84l-52 47l-71 -47h-90z" />
    <glyph glyph-name="Hbar" unicode="&#x126;" horiz-adv-x="759" 
d="M342 0l28 123h57l38 165h-159l-38 -165h57l-28 -123h-348l28 123h33q8 0 18.5 10.5t12.5 18.5l68 299h-58l18 75h58l4 18q2 9 -2.5 18.5t-13.5 9.5h-34l30 128h347l-30 -128h-56l-11 -46h158l11 46h-56l29 128h348l-30 -128h-32q-9 0 -19 -9.5t-12 -18.5l-4 -18h58
l-18 -75h-58l-68 -299q-2 -9 3 -19t13 -10h34l-28 -123h-348zM344 451l-11 -48h158l11 48h-158z" />
    <glyph glyph-name="hbar" unicode="&#x127;" horiz-adv-x="635" 
d="M73 553l22 94h48l12 53h185q14 0 21.5 -11.5t3.5 -27.5l-3 -14h79l-22 -94h-79l-25 -110q99 95 197 95q63 0 92.5 -38t13.5 -105l-57 -247q-2 -8 3.5 -16.5t12.5 -8.5h26l-24 -105q-48 -27 -131 -27q-142 0 -110 136l45 198q6 24 -3 35.5t-39 12.5q-20 0 -44 -9l-84 -364
h-194q-9 0 -14.5 9t-3.5 19l120 525h-48z" />
    <glyph glyph-name="Imacron" unicode="&#x12a;" horiz-adv-x="376" 
d="M157 744l28 120h285l-28 -120h-285zM-51 0l28 123h38q8 0 18.5 10.5t12.5 18.5l90 392q2 9 -2.5 18.5t-13.5 9.5h-39l30 128h357l-29 -128h-38q-9 0 -18.5 -9.5t-11.5 -18.5l-91 -392q-2 -9 3 -19t13 -10h39l-28 -123h-358z" />
    <glyph glyph-name="imacron" unicode="&#x12b;" horiz-adv-x="329" 
d="M135 -9q-142 0 -110 136l56 245q2 7 -3 16t-12 9h-32l25 111q76 26 153 26q58 0 84.5 -32.5t13.5 -89.5l-62 -264q-2 -8 3.5 -16.5t12.5 -8.5h31l-24 -105q-48 -27 -136 -27zM92 573l28 120h285l-28 -120h-285z" />
    <glyph glyph-name="Iogonek" unicode="&#x12e;" horiz-adv-x="376" 
d="M-51 0l28 123h38q8 0 18.5 10.5t12.5 18.5l90 392q2 9 -2.5 18.5t-13.5 9.5h-39l30 128h357l-29 -128h-38q-9 0 -18.5 -9.5t-11.5 -18.5l-91 -392q-2 -9 3 -19t13 -10h39l-28 -123h-44q-43 -35 -43 -56q0 -22 33 -22h21l-18 -76q-28 -15 -69 -15q-47 0 -75.5 18.5
t-28.5 51.5q0 34 31 59.5t80 39.5h-245z" />
    <glyph glyph-name="iogonek" unicode="&#x12f;" horiz-adv-x="329" 
d="M167 -169q-47 0 -76 18.5t-29 51.5q0 56 87 90h-17q-139 3 -107 136l56 245q2 7 -3 16t-12 9h-32l25 111q76 26 153 26q58 0 84.5 -32.5t13.5 -89.5l-61 -264q-2 -8 3 -16.5t12 -8.5h31l-24 -105q-71 -43 -71 -73q0 -23 33 -23h21l-19 -77q-28 -14 -68 -14zM233 553
q-44 0 -70 24t-26 61q0 45 31.5 71.5t77.5 26.5q43 0 69 -23.5t26 -59.5q0 -46 -31 -73t-77 -27z" />
    <glyph glyph-name="Idotaccent" unicode="&#x130;" horiz-adv-x="376" 
d="M309 729q-42 0 -67.5 23.5t-25.5 60.5q0 45 30 71.5t74 26.5q42 0 67.5 -23.5t25.5 -60.5q0 -45 -30 -71.5t-74 -26.5zM-51 0l28 123h38q8 0 18.5 10.5t12.5 18.5l90 392q2 9 -2.5 18.5t-13.5 9.5h-39l30 128h357l-29 -128h-38q-9 0 -18.5 -9.5t-11.5 -18.5l-91 -392
q-2 -9 3 -19t13 -10h39l-28 -123h-358z" />
    <glyph glyph-name="dotlessi" unicode="&#x131;" horiz-adv-x="329" 
d="M135 -9q-142 0 -110 136l56 245q2 7 -3 16t-12 9h-32l25 111q76 26 153 26q58 0 84.5 -32.5t13.5 -89.5l-62 -264q-2 -8 3.5 -16.5t12.5 -8.5h31l-24 -105q-48 -27 -136 -27z" />
    <glyph glyph-name="Jcircumflex" unicode="&#x134;" horiz-adv-x="538" 
d="M310 728l9 40l94 103h142l61 -103l-9 -40h-84l-52 47l-71 -47h-90zM161 -8q-125 0 -204 38l34 150h113q15 -42 58 -42q46 0 61 60l79 346q2 9 -2.5 18.5t-13.5 9.5h-42l30 128h358l-30 -128h-35q-9 0 -18.5 -9.5t-11.5 -18.5l-76 -326q-28 -122 -94 -174t-206 -52z" />
    <glyph glyph-name="jcircumflex" unicode="&#x135;" horiz-adv-x="304" 
d="M4 -170q-65 0 -116 15l25 110h28q26 0 38 10.5t18 37.5l84 369q2 8 -3 16.5t-12 8.5h-32l25 111q76 26 153 26q58 0 84.5 -32.5t13.5 -89.5l-97 -419q-20 -89 -71 -126t-138 -37zM71 557l9 40l94 103h142l61 -103l-9 -40h-84l-52 47l-71 -47h-90z" />
    <glyph glyph-name="Kcommaaccent" unicode="&#x136;" horiz-adv-x="728" 
d="M-51 0l28 123h33q8 0 18.5 10.5t12.5 18.5l90 392q2 9 -2.5 18.5t-13.5 9.5h-34l30 128h339l-29 -128h-49l-39 -167l145 115q24 20 21 36t-27 16h-9l30 128h320l-29 -128h-9q-16 0 -49 -27l-184 -150l101 -245q11 -27 26 -27h18l-28 -123h-267l18 108l-62 162l-55 -38
l-25 -109h56l-28 -123h-347zM170 -237l13 58q57 7 57 28q0 6 -19 23.5t-19 40.5q0 31 22 48.5t54 17.5q35 0 57 -21t22 -55q0 -131 -187 -140z" />
    <glyph glyph-name="kcommaaccent" unicode="&#x137;" horiz-adv-x="592" 
d="M448 -9q-30 0 -50 6t-34 22.5t-21 30t-20 44.5l-35 87q-35 -15 -37 -16l-38 -165h-194q-10 0 -15 9t-3 19l119 519q2 7 -3.5 16t-11.5 9h-29l30 128h234q15 0 21.5 -12t2.5 -32l-77 -335q57 42 101.5 101t55.5 106h181l-23 -105q-49 -69 -133 -140l56 -135q11 -25 28 -25
h21l-24 -105q-41 -27 -102 -27zM117 -237l13 58q57 7 57 28q0 6 -19 23.5t-19 40.5q0 31 22 48.5t54 17.5q35 0 57 -21t22 -55q0 -131 -187 -140z" />
    <glyph glyph-name="Lacute" unicode="&#x139;" horiz-adv-x="605" 
d="M-51 0l28 123h33q8 0 18.5 10.5t12.5 18.5l90 392q2 9 -2.5 18.5t-13.5 9.5h-34l30 128h370l-30 -128h-79l-102 -438h134l49 124h142l-59 -258h-587zM221 728l49 143h200l-13 -56l-110 -87h-126z" />
    <glyph glyph-name="lacute" unicode="&#x13a;" horiz-adv-x="331" 
d="M137 -9q-142 0 -110 136l96 420q2 7 -3 16t-12 9h-31l29 128h237q15 0 22 -12t2 -32l-117 -508q-2 -8 3.5 -16.5t12.5 -8.5h32l-24 -105q-48 -27 -137 -27zM194 721l49 143h200l-13 -56l-110 -87h-126z" />
    <glyph glyph-name="Lcommaaccent" unicode="&#x13b;" horiz-adv-x="605" 
d="M-51 0l28 123h33q8 0 18.5 10.5t12.5 18.5l90 392q2 9 -2.5 18.5t-13.5 9.5h-34l30 128h370l-30 -128h-79l-102 -438h134l49 124h142l-59 -258h-587zM110 -237l13 58q57 7 57 28q0 6 -19 23.5t-19 40.5q0 31 22 48.5t54 17.5q35 0 57 -21t22 -55q0 -131 -187 -140z" />
    <glyph glyph-name="lcommaaccent" unicode="&#x13c;" horiz-adv-x="331" 
d="M-33 -237l13 58q57 7 57 28q0 6 -19 23.5t-19 40.5q0 31 22 48.5t54 17.5q35 0 57 -21t22 -55q0 -131 -187 -140zM137 -9q-142 0 -110 136l96 420q2 7 -3 16t-12 9h-31l29 128h237q15 0 22 -12t2 -32l-117 -508q-2 -8 3.5 -16.5t12.5 -8.5h32l-24 -105q-48 -27 -137 -27z
" />
    <glyph glyph-name="Lcaron" unicode="&#x13d;" horiz-adv-x="605" 
d="M475 552l38 148h166l-13 -56l-76 -92h-115zM-51 0l28 123h33q8 0 18.5 10.5t12.5 18.5l90 392q2 9 -2.5 18.5t-13.5 9.5h-34l30 128h370l-30 -128h-79l-102 -438h134l49 124h142l-59 -258h-587z" />
    <glyph glyph-name="lcaron" unicode="&#x13e;" horiz-adv-x="331" 
d="M368 555l40 145h164l-13 -56l-76 -89h-115zM137 -9q-142 0 -110 136l96 420q2 7 -3 16t-12 9h-31l29 128h237q15 0 22 -12t2 -32l-117 -508q-2 -8 3.5 -16.5t12.5 -8.5h32l-24 -105q-48 -27 -137 -27z" />
    <glyph glyph-name="Lslash" unicode="&#x141;" horiz-adv-x="605" 
d="M-4 206l29 125l61 20l45 193q2 9 -2.5 18.5t-13.5 9.5h-34l30 128h370l-30 -128h-79l-33 -139l157 51l-29 -125l-157 -51l-40 -174h134l49 124h142l-59 -258h-587l28 123h33q8 0 18.5 10.5t12.5 18.5l17 74z" />
    <glyph glyph-name="lslash" unicode="&#x142;" horiz-adv-x="335" 
d="M6 231l27 118l50 23l40 175q2 7 -3 16t-12 9h-31l29 128h237q15 0 22 -12t2 -32l-39 -170l52 24l-27 -119l-53 -25l-50 -218q-2 -8 3.5 -16.5t12.5 -8.5h35l-24 -105q-49 -27 -140 -27q-142 0 -110 136l29 127z" />
    <glyph glyph-name="Nacute" unicode="&#x143;" horiz-adv-x="726" 
d="M-51 0l28 123h33q8 0 18.5 10.5t12.5 18.5l90 392q2 9 -2.5 18.5t-13.5 9.5h-34l30 128h282l116 -373h3l57 245h-61l30 128h282l-30 -128h-29q-9 0 -19 -9.5t-12 -18.5l-125 -544h-197l-137 414h-3l-67 -291h64l-28 -123h-288zM398 728l49 143h200l-13 -56l-110 -87h-126
z" />
    <glyph glyph-name="nacute" unicode="&#x144;" horiz-adv-x="635" 
d="M447 -9q-141 0 -109 136l45 192q6 24 -3.5 36t-39.5 12q-18 0 -44 -8l-83 -359h-194q-9 0 -14.5 9t-3.5 19l79 344q2 7 -3 16t-12 9h-31l25 111q76 26 151 26q48 0 75 -24.5t26 -69.5q102 98 201 98q63 0 92.5 -38t13.5 -105l-57 -247q-2 -8 3.5 -16.5t12.5 -8.5h26
l-24 -105q-49 -27 -132 -27zM305 557l49 143h200l-13 -56l-110 -87h-126z" />
    <glyph glyph-name="Ncommaaccent" unicode="&#x145;" horiz-adv-x="726" 
d="M-51 0l28 123h33q8 0 18.5 10.5t12.5 18.5l90 392q2 9 -2.5 18.5t-13.5 9.5h-34l30 128h282l116 -373h3l57 245h-61l30 128h282l-30 -128h-29q-9 0 -19 -9.5t-12 -18.5l-125 -544h-197l-137 414h-3l-67 -291h64l-28 -123h-288zM170 -237l13 58q57 7 57 28q0 6 -19 23.5
t-19 40.5q0 31 22 48.5t54 17.5q35 0 57 -21t22 -55q0 -131 -187 -140z" />
    <glyph glyph-name="ncommaaccent" unicode="&#x146;" horiz-adv-x="635" 
d="M447 -9q-141 0 -109 136l45 192q6 24 -3.5 36t-39.5 12q-18 0 -44 -8l-83 -359h-194q-9 0 -14.5 9t-3.5 19l79 344q2 7 -3 16t-12 9h-31l25 111q76 26 151 26q48 0 75 -24.5t26 -69.5q102 98 201 98q63 0 92.5 -38t13.5 -105l-57 -247q-2 -8 3.5 -16.5t12.5 -8.5h26
l-24 -105q-49 -27 -132 -27zM122 -237l13 58q57 7 57 28q0 6 -19 23.5t-19 40.5q0 31 22 48.5t54 17.5q35 0 57 -21t22 -55q0 -131 -187 -140z" />
    <glyph glyph-name="Ncaron" unicode="&#x147;" horiz-adv-x="726" 
d="M-51 0l28 123h33q8 0 18.5 10.5t12.5 18.5l90 392q2 9 -2.5 18.5t-13.5 9.5h-34l30 128h282l116 -373h3l57 245h-61l30 128h282l-30 -128h-29q-9 0 -19 -9.5t-12 -18.5l-125 -544h-197l-137 414h-3l-67 -291h64l-28 -123h-288zM407 728l-61 103l9 40h84l52 -48l71 48h90
l-9 -40l-94 -103h-142z" />
    <glyph glyph-name="ncaron" unicode="&#x148;" horiz-adv-x="635" 
d="M447 -9q-141 0 -109 136l45 192q6 24 -3.5 36t-39.5 12q-18 0 -44 -8l-83 -359h-194q-9 0 -14.5 9t-3.5 19l79 344q2 7 -3 16t-12 9h-31l25 111q76 26 151 26q48 0 75 -24.5t26 -69.5q102 98 201 98q63 0 92.5 -38t13.5 -105l-57 -247q-2 -8 3.5 -16.5t12.5 -8.5h26
l-24 -105q-49 -27 -132 -27zM314 557l-61 103l9 40h84l52 -48l71 48h90l-9 -40l-94 -103h-142z" />
    <glyph glyph-name="Omacron" unicode="&#x14c;" horiz-adv-x="737" 
d="M328 759l28 120h285l-28 -120h-285zM345 -11q-150 0 -235 76.5t-85 210.5q0 187 122 310.5t294 123.5q142 0 226.5 -77.5t84.5 -210.5q0 -192 -117.5 -312.5t-289.5 -120.5zM355 136q71 0 117 87.5t46 200.5q0 129 -96 129q-72 0 -117.5 -86t-45.5 -203q0 -128 96 -128z
" />
    <glyph glyph-name="omacron" unicode="&#x14d;" horiz-adv-x="588" 
d="M201 573l28 120h285l-28 -120h-285zM271 -9q-125 0 -195 62t-70 171q0 131 87.5 222.5t225.5 91.5q125 0 195 -62.5t70 -170.5q0 -132 -86.5 -223t-226.5 -91zM273 121q42 0 69 64.5t27 139.5q0 71 -53 71q-42 0 -69 -64t-27 -139q0 -72 53 -72z" />
    <glyph glyph-name="Ohungarumlaut" unicode="&#x150;" horiz-adv-x="737" 
d="M345 -11q-150 0 -235 76.5t-85 210.5q0 187 122 310.5t294 123.5q142 0 226.5 -77.5t84.5 -210.5q0 -192 -117.5 -312.5t-289.5 -120.5zM355 136q71 0 117 87.5t46 200.5q0 129 -96 129q-72 0 -117.5 -86t-45.5 -203q0 -128 96 -128zM506 743l42 143h167l-12 -53l-87 -90
h-110zM310 743l43 143h167l-13 -53l-87 -90h-110z" />
    <glyph glyph-name="ohungarumlaut" unicode="&#x151;" horiz-adv-x="588" 
d="M271 -9q-125 0 -195 62t-70 171q0 131 87.5 222.5t225.5 91.5q125 0 195 -62.5t70 -170.5q0 -132 -86.5 -223t-226.5 -91zM273 121q42 0 69 64.5t27 139.5q0 71 -53 71q-42 0 -69 -64t-27 -139q0 -72 53 -72zM379 557l42 143h167l-12 -53l-87 -90h-110zM183 557l43 143
h167l-13 -53l-87 -90h-110z" />
    <glyph glyph-name="OE" unicode="&#x152;" horiz-adv-x="983" 
d="M1062 700l-53 -227h-132l-3 89h-141l-31 -135h157l-33 -140h-157l-35 -153h148l43 106h142l-55 -240h-549q-162 0 -250 73t-88 202q0 192 117 308.5t341 116.5h579zM500 565h-33q-94 0 -150.5 -85t-56.5 -218q0 -129 119 -129h22z" />
    <glyph glyph-name="oe" unicode="&#x153;" horiz-adv-x="891" 
d="M622 -10q-128 0 -186 61q-73 -60 -166 -60q-125 0 -194.5 61.5t-69.5 170.5q0 132 87 223.5t225 91.5q114 0 175 -69q78 69 199 69q101 0 155.5 -44t54.5 -114q0 -53 -23.5 -90t-70 -57t-103.5 -29t-137 -10q3 -74 65 -74t102 46h111l-32 -136q-80 -40 -192 -40zM272 121
q43 0 69 63.5t26 140.5q0 71 -52 71q-43 0 -69 -64t-26 -139q0 -72 52 -72zM667 411q-33 0 -56 -31.5t-34 -83.5q66 6 97.5 23t31.5 50q0 42 -39 42z" />
    <glyph glyph-name="Racute" unicode="&#x154;" horiz-adv-x="707" 
d="M-51 0l28 123h33q8 0 18.5 10.5t12.5 18.5l90 392q2 9 -2.5 18.5t-13.5 9.5h-34l30 128h334q132 0 198 -46t66 -128q0 -76 -48 -125.5t-138 -67.5v-4q46 -11 68.5 -39.5t31.5 -96.5l6 -45q4 -25 22 -25h16l-28 -123h-235l-9 190q-2 45 -14.5 61t-46.5 16h-33l-33 -144h63
l-28 -123h-354zM364 563l-40 -175h40q107 0 107 111q0 64 -73 64h-34zM343 728l49 143h200l-13 -56l-110 -87h-126z" />
    <glyph glyph-name="racute" unicode="&#x155;" horiz-adv-x="436" 
d="M224 557l49 143h200l-13 -56l-110 -87h-126zM19 0q-9 0 -14.5 9t-3.5 19l79 344q2 7 -3 16t-12 9h-31l25 111q76 26 151 26q44 0 69.5 -25t27.5 -69q54 92 148 92q19 0 31 -4l-41 -176h-26q-74 0 -133 -37l-73 -315h-194z" />
    <glyph glyph-name="Rcommaaccent" unicode="&#x156;" horiz-adv-x="707" 
d="M171 -237l13 58q57 7 57 28q0 6 -19 23.5t-19 40.5q0 31 22 48.5t54 17.5q35 0 57 -21t22 -55q0 -131 -187 -140zM-51 0l28 123h33q8 0 18.5 10.5t12.5 18.5l90 392q2 9 -2.5 18.5t-13.5 9.5h-34l30 128h334q132 0 198 -46t66 -128q0 -76 -48 -125.5t-138 -67.5v-4
q46 -11 68.5 -39.5t31.5 -96.5l6 -45q4 -25 22 -25h16l-28 -123h-235l-9 190q-2 45 -14.5 61t-46.5 16h-33l-33 -144h63l-28 -123h-354zM364 563l-40 -175h40q107 0 107 111q0 64 -73 64h-34z" />
    <glyph glyph-name="rcommaaccent" unicode="&#x157;" horiz-adv-x="436" 
d="M-53 -237l13 58q57 7 57 28q0 6 -19 23.5t-19 40.5q0 31 22 48.5t54 17.5q35 0 57 -21t22 -55q0 -131 -187 -140zM19 0q-9 0 -14.5 9t-3.5 19l79 344q2 7 -3 16t-12 9h-31l25 111q76 26 151 26q44 0 69.5 -25t27.5 -69q54 92 148 92q19 0 31 -4l-41 -176h-26
q-74 0 -133 -37l-73 -315h-194z" />
    <glyph glyph-name="Rcaron" unicode="&#x158;" horiz-adv-x="707" 
d="M-51 0l28 123h33q8 0 18.5 10.5t12.5 18.5l90 392q2 9 -2.5 18.5t-13.5 9.5h-34l30 128h334q132 0 198 -46t66 -128q0 -76 -48 -125.5t-138 -67.5v-4q46 -11 68.5 -39.5t31.5 -96.5l6 -45q4 -25 22 -25h16l-28 -123h-235l-9 190q-2 45 -14.5 61t-46.5 16h-33l-33 -144h63
l-28 -123h-354zM364 563l-40 -175h40q107 0 107 111q0 64 -73 64h-34zM352 728l-61 103l9 40h84l52 -48l71 48h90l-9 -40l-94 -103h-142z" />
    <glyph glyph-name="rcaron" unicode="&#x159;" horiz-adv-x="436" 
d="M233 557l-61 103l9 40h84l52 -48l71 48h90l-9 -40l-94 -103h-142zM19 0q-9 0 -14.5 9t-3.5 19l79 344q2 7 -3 16t-12 9h-31l25 111q76 26 151 26q44 0 69.5 -25t27.5 -69q54 92 148 92q19 0 31 -4l-41 -176h-26q-74 0 -133 -37l-73 -315h-194z" />
    <glyph glyph-name="Sacute" unicode="&#x15a;" horiz-adv-x="552" 
d="M245 -11q-66 0 -136 11h-155l50 220h150l4 -87q24 -8 61 -8q43 0 68 17.5t25 50.5q0 15 -4.5 25t-19 20t-26 15l-40.5 18q-37 15 -60.5 28t-49 35t-37.5 53t-12 73q0 116 77.5 183.5t212.5 67.5q72 0 134 -11h130l-48 -203h-145l-5 78q-24 8 -54 8q-42 0 -66 -17.5
t-24 -50.5q0 -25 14.5 -38t48.5 -28q53 -21 86 -38.5t60 -41.5t38.5 -55.5t11.5 -73.5q0 -113 -74 -182t-215 -69zM308 735l49 143h200l-13 -56l-110 -87h-126z" />
    <glyph glyph-name="sacute" unicode="&#x15b;" horiz-adv-x="467" 
d="M190 -8q-144 0 -225 44l31 130h104q11 -25 29 -37.5t51 -12.5q25 0 42.5 10t17.5 30q0 16 -15.5 24.5t-56.5 18.5q-65 16 -100.5 48.5t-35.5 91.5q0 99 67.5 148t178.5 49q122 0 211 -36l-30 -131h-106q-22 47 -74 47q-56 0 -56 -37q0 -15 14 -24.5t50 -19.5
q78 -19 116 -48t38 -90q0 -99 -65.5 -152t-185.5 -53zM224 557l49 143h200l-13 -56l-110 -87h-126z" />
    <glyph glyph-name="Scircumflex" unicode="&#x15c;" horiz-adv-x="552" 
d="M245 -11q-66 0 -136 11h-155l50 220h150l4 -87q24 -8 61 -8q43 0 68 17.5t25 50.5q0 15 -4.5 25t-19 20t-26 15l-40.5 18q-37 15 -60.5 28t-49 35t-37.5 53t-12 73q0 116 77.5 183.5t212.5 67.5q72 0 134 -11h130l-48 -203h-145l-5 78q-24 8 -54 8q-42 0 -66 -17.5
t-24 -50.5q0 -25 14.5 -38t48.5 -28q53 -21 86 -38.5t60 -41.5t38.5 -55.5t11.5 -73.5q0 -113 -74 -182t-215 -69zM228 735l9 40l94 103h142l61 -103l-9 -40h-84l-52 47l-71 -47h-90z" />
    <glyph glyph-name="scircumflex" unicode="&#x15d;" horiz-adv-x="467" 
d="M190 -8q-144 0 -225 44l31 130h104q11 -25 29 -37.5t51 -12.5q25 0 42.5 10t17.5 30q0 16 -15.5 24.5t-56.5 18.5q-65 16 -100.5 48.5t-35.5 91.5q0 99 67.5 148t178.5 49q122 0 211 -36l-30 -131h-106q-22 47 -74 47q-56 0 -56 -37q0 -15 14 -24.5t50 -19.5
q78 -19 116 -48t38 -90q0 -99 -65.5 -152t-185.5 -53zM148 557l9 40l94 103h142l61 -103l-9 -40h-84l-52 47l-71 -47h-90z" />
    <glyph glyph-name="Scedilla" unicode="&#x15e;" horiz-adv-x="552" 
d="M188 -175q-62 0 -96 17l15 64h48q6 -13 23 -13q23 0 23 17q0 16 -24 16h-22l15 66q-25 2 -61 8h-155l50 220h150l4 -87q24 -8 61 -8q43 0 68 17.5t25 50.5q0 15 -4.5 25t-19 20t-26 15l-40.5 18q-37 15 -60.5 28t-49 35t-37.5 53t-12 73q0 116 77.5 183.5t212.5 67.5
q72 0 134 -11h130l-48 -203h-145l-5 78q-24 8 -54 8q-42 0 -66 -17.5t-24 -50.5q0 -25 14.5 -38t48.5 -28q53 -21 86 -38.5t60 -41.5t38.5 -55.5t11.5 -73.5q0 -113 -74 -182t-215 -69l-3 -14q70 -6 70 -63q0 -41 -33.5 -64t-90.5 -23z" />
    <glyph glyph-name="scedilla" unicode="&#x15f;" horiz-adv-x="467" 
d="M137 -175q-62 0 -96 17l15 64h48q6 -13 23 -13q23 0 23 17q0 16 -24 16h-22l16 69q-91 7 -155 41l31 130h104q11 -25 29 -37.5t51 -12.5q25 0 42.5 10t17.5 30q0 16 -15.5 24.5t-56.5 18.5q-65 16 -100.5 48.5t-35.5 91.5q0 99 67.5 148t178.5 49q122 0 211 -36l-30 -131
h-106q-22 47 -74 47q-56 0 -56 -37q0 -15 14 -24.5t50 -19.5q78 -19 116 -48t38 -90q0 -98 -64 -150.5t-182 -54.5l-4 -17q70 -6 70 -63q0 -41 -33.5 -64t-90.5 -23z" />
    <glyph glyph-name="Scaron" unicode="&#x160;" horiz-adv-x="552" 
d="M245 -11q-66 0 -136 11h-155l50 220h150l4 -87q24 -8 61 -8q43 0 68 17.5t25 50.5q0 15 -4.5 25t-19 20t-26 15l-40.5 18q-37 15 -60.5 28t-49 35t-37.5 53t-12 73q0 116 77.5 183.5t212.5 67.5q72 0 134 -11h130l-48 -203h-145l-5 78q-24 8 -54 8q-42 0 -66 -17.5
t-24 -50.5q0 -25 14.5 -38t48.5 -28q53 -21 86 -38.5t60 -41.5t38.5 -55.5t11.5 -73.5q0 -113 -74 -182t-215 -69zM303 735l-61 103l9 40h84l52 -48l71 48h90l-9 -40l-94 -103h-142z" />
    <glyph glyph-name="scaron" unicode="&#x161;" horiz-adv-x="467" 
d="M190 -8q-144 0 -225 44l31 130h104q11 -25 29 -37.5t51 -12.5q25 0 42.5 10t17.5 30q0 16 -15.5 24.5t-56.5 18.5q-65 16 -100.5 48.5t-35.5 91.5q0 99 67.5 148t178.5 49q122 0 211 -36l-30 -131h-106q-22 47 -74 47q-56 0 -56 -37q0 -15 14 -24.5t50 -19.5
q78 -19 116 -48t38 -90q0 -99 -65.5 -152t-185.5 -53zM233 557l-61 103l9 40h84l52 -48l71 48h90l-9 -40l-94 -103h-142z" />
    <glyph glyph-name="Tcommaaccent" unicode="&#x162;" horiz-adv-x="673" 
d="M99 0l28 123h37q8 0 18.5 10.5t12.5 18.5l95 414h-55l-47 -129h-136l60 263h653l-61 -263h-138l11 129h-53l-95 -414q-2 -9 3 -19t13 -10h38l-28 -123h-356zM125 -237l13 58q57 7 57 28q0 6 -19 23.5t-19 40.5q0 31 22 48.5t54 17.5q35 0 57 -21t22 -55q0 -131 -187 -140
z" />
    <glyph glyph-name="tcommaaccent" unicode="&#x163;" horiz-adv-x="361" 
d="M34 397l29 131h50l32 137h219l-32 -137h77l-29 -131h-78l-49 -211q-14 -63 49 -63h20l-27 -119q-51 -15 -104 -15q-202 0 -160 184l52 224h-49zM-13 -237l13 58q57 7 57 28q0 6 -19 23.5t-19 40.5q0 31 22 48.5t54 17.5q35 0 57 -21t22 -55q0 -131 -187 -140z" />
    <glyph glyph-name="Tcaron" unicode="&#x164;" horiz-adv-x="673" 
d="M99 0l28 123h37q8 0 18.5 10.5t12.5 18.5l95 414h-55l-47 -129h-136l60 263h653l-61 -263h-138l11 129h-53l-95 -414q-2 -9 3 -19t13 -10h38l-28 -123h-356zM360 728l-61 103l9 40h84l52 -48l71 48h90l-9 -40l-94 -103h-142z" />
    <glyph glyph-name="tcaron" unicode="&#x165;" horiz-adv-x="361" 
d="M363 555l39 145h164l-13 -56l-75 -89h-115zM34 397l29 131h50l32 137h219l-32 -137h77l-29 -131h-78l-49 -211q-14 -63 49 -63h20l-27 -119q-51 -15 -104 -15q-202 0 -160 184l52 224h-49z" />
    <glyph glyph-name="Umacron" unicode="&#x16a;" horiz-adv-x="724" 
d="M348 744l28 120h285l-28 -120h-285zM344 -8q-174 0 -242 74t-37 207l62 271q2 9 -2.5 18.5t-13.5 9.5h-30l29 128h356l-30 -128h-68l-76 -328q-25 -107 81 -107q48 0 72.5 24t36.5 79l76 332h-69l30 128h297l-30 -128h-28q-9 0 -19 -9.5t-12 -18.5l-72 -311
q-29 -124 -104.5 -182.5t-206.5 -58.5z" />
    <glyph glyph-name="umacron" unicode="&#x16b;" horiz-adv-x="631" 
d="M230 573l28 120h285l-28 -120h-285zM443 -9q-119 0 -116 93q-93 -93 -188 -93q-67 0 -98 40t-14 112l52 229q2 7 -3 16t-12 9h-30l25 111q79 27 150 27q59 0 85 -35.5t12 -93.5l-48 -207q-12 -53 43 -53q20 0 38 6l86 376h195q10 0 15 -8.5t3 -19.5l-82 -352
q-2 -8 3.5 -16.5t12.5 -8.5h27l-24 -105q-49 -27 -132 -27z" />
    <glyph glyph-name="Ubreve" unicode="&#x16c;" horiz-adv-x="724" 
d="M498 727q-113 0 -140 88l13 56h92q0 -35 38 -35t50 35h100l-16 -69q-17 -32 -52 -53.5t-85 -21.5zM344 -8q-174 0 -242 74t-37 207l62 271q2 9 -2.5 18.5t-13.5 9.5h-30l29 128h356l-30 -128h-68l-76 -328q-25 -107 81 -107q48 0 72.5 24t36.5 79l76 332h-69l30 128h297
l-30 -128h-28q-9 0 -19 -9.5t-12 -18.5l-72 -311q-29 -124 -104.5 -182.5t-206.5 -58.5z" />
    <glyph glyph-name="ubreve" unicode="&#x16d;" horiz-adv-x="631" 
d="M379 556q-113 0 -140 88l13 56h92q0 -35 38 -35t50 35h100l-16 -69q-17 -32 -52 -53.5t-85 -21.5zM443 -9q-119 0 -116 93q-93 -93 -188 -93q-67 0 -98 40t-14 112l52 229q2 7 -3 16t-12 9h-30l25 111q79 27 150 27q59 0 85 -35.5t12 -93.5l-48 -207q-12 -53 43 -53
q20 0 38 6l86 376h195q10 0 15 -8.5t3 -19.5l-82 -352q-2 -8 3.5 -16.5t12.5 -8.5h27l-24 -105q-49 -27 -132 -27z" />
    <glyph glyph-name="Uring" unicode="&#x16e;" horiz-adv-x="724" 
d="M344 -8q-174 0 -242 74t-37 207l62 271q2 9 -2.5 18.5t-13.5 9.5h-30l29 128h356l-30 -128h-68l-76 -328q-25 -107 81 -107q48 0 72.5 24t36.5 79l76 332h-69l30 128h297l-30 -128h-28q-9 0 -19 -9.5t-12 -18.5l-72 -311q-29 -124 -104.5 -182.5t-206.5 -58.5zM499 718
q-45 0 -75 27t-30 70q0 51 33.5 80t80.5 29q44 0 74 -27t30 -70q0 -51 -33.5 -80t-79.5 -29zM500 772q22 0 36 14t14 39q0 21 -12 33.5t-33 12.5t-34.5 -14.5t-13.5 -40.5q0 -20 11.5 -32t31.5 -12z" />
    <glyph glyph-name="uring" unicode="&#x16f;" horiz-adv-x="631" 
d="M443 -9q-119 0 -116 93q-93 -93 -188 -93q-67 0 -98 40t-14 112l52 229q2 7 -3 16t-12 9h-30l25 111q79 27 150 27q59 0 85 -35.5t12 -93.5l-48 -207q-12 -53 43 -53q20 0 38 6l86 376h195q10 0 15 -8.5t3 -19.5l-82 -352q-2 -8 3.5 -16.5t12.5 -8.5h27l-24 -105
q-49 -27 -132 -27zM376 558q-45 0 -75 27t-30 70q0 51 33.5 80t80.5 29q44 0 74 -27t30 -70q0 -51 -33.5 -80t-79.5 -29zM377 612q22 0 36 14t14 39q0 21 -12 33.5t-33 12.5t-34.5 -14.5t-13.5 -40.5q0 -20 11.5 -32t31.5 -12z" />
    <glyph glyph-name="Uhungarumlaut" unicode="&#x170;" horiz-adv-x="724" 
d="M526 728l42 143h167l-12 -53l-87 -90h-110zM330 728l43 143h167l-13 -53l-87 -90h-110zM344 -8q-174 0 -242 74t-37 207l62 271q2 9 -2.5 18.5t-13.5 9.5h-30l29 128h356l-30 -128h-68l-76 -328q-25 -107 81 -107q48 0 72.5 24t36.5 79l76 332h-69l30 128h297l-30 -128
h-28q-9 0 -19 -9.5t-12 -18.5l-72 -311q-29 -124 -104.5 -182.5t-206.5 -58.5z" />
    <glyph glyph-name="uhungarumlaut" unicode="&#x171;" horiz-adv-x="631" 
d="M408 557l42 143h167l-12 -53l-87 -90h-110zM212 557l43 143h167l-13 -53l-87 -90h-110zM443 -9q-119 0 -116 93q-93 -93 -188 -93q-67 0 -98 40t-14 112l52 229q2 7 -3 16t-12 9h-30l25 111q79 27 150 27q59 0 85 -35.5t12 -93.5l-48 -207q-12 -53 43 -53q20 0 38 6
l86 376h195q10 0 15 -8.5t3 -19.5l-82 -352q-2 -8 3.5 -16.5t12.5 -8.5h27l-24 -105q-49 -27 -132 -27z" />
    <glyph glyph-name="Uogonek" unicode="&#x172;" horiz-adv-x="724" 
d="M354 -169q-47 0 -75.5 19t-28.5 51q0 60 84 91q-169 3 -234.5 77t-34.5 204l62 271q2 9 -2.5 18.5t-13.5 9.5h-30l29 128h356l-30 -128h-68l-76 -328q-12 -55 8 -81t73 -26q47 0 72 24.5t37 78.5l76 332h-69l30 128h297l-30 -128h-28q-9 0 -19 -9.5t-12 -18.5l-72 -311
q-25 -105 -76 -156.5t-142 -77.5q-20 -5 -34.5 -21t-14.5 -34q0 -22 32 -22h21l-18 -77q-28 -14 -69 -14z" />
    <glyph glyph-name="uogonek" unicode="&#x173;" horiz-adv-x="631" 
d="M453 -9h-10q-119 0 -116 93q-93 -93 -188 -93q-67 0 -98 40t-14 112l52 229q2 7 -3 16t-12 9h-30l25 111q79 27 150 27q59 0 85 -35.5t12 -93.5l-48 -207q-12 -53 43 -53q20 0 38 6l86 376h195q10 0 15 -8.5t3 -19.5l-82 -352q-2 -8 3.5 -16.5t12.5 -8.5h27l-24 -105
q-71 -43 -71 -73q0 -23 33 -23h21l-19 -77q-28 -14 -68 -14q-47 0 -76 18.5t-29 51.5q0 56 87 90z" />
    <glyph glyph-name="Ydieresis" unicode="&#x178;" horiz-adv-x="686" 
d="M108 0l29 123h36q9 0 19.5 10t12.5 19l28 122l-112 277q-8 21 -24 21h-16l30 128h328l-30 -128h-61l59 -164h3l76 102q21 29 15.5 45.5t-35.5 16.5h-13l29 128h297l-30 -128h-11q-20 0 -45 -29l-228 -277l-26 -114q-2 -9 2.5 -19t13.5 -10h38l-28 -123h-357zM580 724
q-40 0 -63.5 22.5t-23.5 59.5q0 42 27 66.5t69 24.5q40 0 64 -22.5t24 -57.5q0 -43 -28 -68t-69 -25zM373 724q-40 0 -64 23t-24 59q0 42 27.5 66.5t69.5 24.5q40 0 63.5 -22.5t23.5 -57.5q0 -43 -27.5 -68t-68.5 -25z" />
    <glyph glyph-name="Zacute" unicode="&#x179;" horiz-adv-x="589" 
d="M-51 0l36 153l395 405v4h-131l-39 -84h-135l51 222h549l-37 -157l-395 -405v-4h142l43 98h142l-54 -232h-567zM331 728l49 143h200l-13 -56l-110 -87h-126z" />
    <glyph glyph-name="zacute" unicode="&#x17a;" horiz-adv-x="514" 
d="M-44 0l32 139l294 254h-95l-35 -64h-116l46 199h481l-32 -143l-300 -254h102l31 63h121l-44 -194h-485zM257 557l49 143h200l-13 -56l-110 -87h-126z" />
    <glyph glyph-name="Zdotaccent" unicode="&#x17b;" horiz-adv-x="589" 
d="M408 729q-42 0 -67.5 23.5t-25.5 60.5q0 45 30 71.5t74 26.5q42 0 67.5 -23.5t25.5 -60.5q0 -45 -30 -71.5t-74 -26.5zM-51 0l36 153l395 405v4h-131l-39 -84h-135l51 222h549l-37 -157l-395 -405v-4h142l43 98h142l-54 -232h-567z" />
    <glyph glyph-name="zdotaccent" unicode="&#x17c;" horiz-adv-x="514" 
d="M339 558q-42 0 -67.5 23.5t-25.5 60.5q0 45 30 71.5t74 26.5q42 0 67.5 -23.5t25.5 -60.5q0 -46 -30 -72t-74 -26zM-44 0l32 139l294 254h-95l-35 -64h-116l46 199h481l-32 -143l-300 -254h102l31 63h121l-44 -194h-485z" />
    <glyph glyph-name="Zcaron" unicode="&#x17d;" horiz-adv-x="589" 
d="M-51 0l36 153l395 405v4h-131l-39 -84h-135l51 222h549l-37 -157l-395 -405v-4h142l43 98h142l-54 -232h-567zM328 728l-61 103l9 40h84l52 -48l71 48h90l-9 -40l-94 -103h-142z" />
    <glyph glyph-name="zcaron" unicode="&#x17e;" horiz-adv-x="514" 
d="M-44 0l32 139l294 254h-95l-35 -64h-116l46 199h481l-32 -143l-300 -254h102l31 63h121l-44 -194h-485zM266 557l-61 103l9 40h84l52 -48l71 48h90l-9 -40l-94 -103h-142z" />
    <glyph glyph-name="florin" unicode="&#x192;" horiz-adv-x="383" 
d="M27 319l29 124h58l27 114q36 157 229 157q60 0 103 -15l-27 -114h-20q-30 0 -45.5 -11.5t-22.5 -38.5l-23 -92h78l-29 -124h-79l-57 -235q-17 -71 -57 -114t-110 -70h-134l24 108q25 8 39 26.5t22 54.5l53 230h-58z" />
    <glyph glyph-name="Scommaaccent" unicode="&#x218;" horiz-adv-x="552" 
d="M245 -11q-66 0 -136 11h-155l50 220h150l4 -87q24 -8 61 -8q43 0 68 17.5t25 50.5q0 15 -4.5 25t-19 20t-26 15l-40.5 18q-37 15 -60.5 28t-49 35t-37.5 53t-12 73q0 116 77.5 183.5t212.5 67.5q72 0 134 -11h130l-48 -203h-145l-5 78q-24 8 -54 8q-42 0 -66 -17.5
t-24 -50.5q0 -25 14.5 -38t48.5 -28q53 -21 86 -38.5t60 -41.5t38.5 -55.5t11.5 -73.5q0 -113 -74 -182t-215 -69zM85 -237l13 58q57 7 57 28q0 6 -19 23.5t-19 40.5q0 31 22 48.5t54 17.5q35 0 57 -21t22 -55q0 -131 -187 -140z" />
    <glyph glyph-name="scommaaccent" unicode="&#x219;" horiz-adv-x="467" 
d="M190 -8q-144 0 -225 44l31 130h104q11 -25 29 -37.5t51 -12.5q25 0 42.5 10t17.5 30q0 16 -15.5 24.5t-56.5 18.5q-65 16 -100.5 48.5t-35.5 91.5q0 99 67.5 148t178.5 49q122 0 211 -36l-30 -131h-106q-22 47 -74 47q-56 0 -56 -37q0 -15 14 -24.5t50 -19.5
q78 -19 116 -48t38 -90q0 -99 -65.5 -152t-185.5 -53zM12 -237l13 58q57 7 57 28q0 6 -19 23.5t-19 40.5q0 31 22 48.5t54 17.5q35 0 57 -21t22 -55q0 -131 -187 -140z" />
    <glyph glyph-name="uni0237" unicode="&#x237;" horiz-adv-x="304" 
d="M4 -170q-65 0 -116 15l25 110h28q26 0 38 10.5t18 37.5l84 369q2 8 -3 16.5t-12 8.5h-32l25 111q76 26 153 26q58 0 84.5 -32.5t13.5 -89.5l-97 -419q-20 -89 -71 -126t-138 -37z" />
    <glyph glyph-name="circumflex" unicode="&#x2c6;" horiz-adv-x="400" 
d="M120 557l9 40l94 103h142l61 -103l-9 -40h-84l-52 47l-71 -47h-90z" />
    <glyph glyph-name="caron" unicode="&#x2c7;" horiz-adv-x="400" 
d="M205 557l-61 103l9 40h84l52 -48l71 48h90l-9 -40l-94 -103h-142z" />
    <glyph glyph-name="breve" unicode="&#x2d8;" horiz-adv-x="400" 
d="M289 556q-113 0 -140 88l13 56h92q0 -35 38 -35t50 35h100l-16 -69q-17 -32 -52 -53.5t-85 -21.5z" />
    <glyph glyph-name="dotaccent" unicode="&#x2d9;" horiz-adv-x="400" 
d="M282 558q-42 0 -67.5 23.5t-25.5 60.5q0 45 30 71.5t74 26.5q42 0 67.5 -23.5t25.5 -60.5q0 -46 -30 -72t-74 -26z" />
    <glyph glyph-name="ring" unicode="&#x2da;" horiz-adv-x="400" 
d="M289 558q-45 0 -75 27t-30 70q0 51 33.5 80t80.5 29q44 0 74 -27t30 -70q0 -51 -33.5 -80t-79.5 -29zM290 612q22 0 36 14t14 39q0 21 -12 33.5t-33 12.5t-34.5 -14.5t-13.5 -40.5q0 -20 11.5 -32t31.5 -12z" />
    <glyph glyph-name="ogonek" unicode="&#x2db;" horiz-adv-x="400" 
d="M138 -169q-47 0 -75.5 18.5t-28.5 51.5q0 34 31 59.5t80 39.5h69q-43 -35 -43 -56q0 -22 33 -22h21l-18 -76q-28 -15 -69 -15z" />
    <glyph glyph-name="tilde" unicode="&#x2dc;" horiz-adv-x="400" 
d="M101 557l18 77q35 62 108 62q23 0 62.5 -9t51.5 -9q27 0 40 22h89l-18 -77q-38 -63 -109 -63q-23 0 -62.5 10t-51.5 10q-26 0 -39 -23h-89z" />
    <glyph glyph-name="hungarumlaut" unicode="&#x2dd;" horiz-adv-x="400" 
d="M308 557l42 143h167l-12 -53l-87 -90h-110zM112 557l43 143h167l-13 -53l-87 -90h-110z" />
    <glyph glyph-name="uni2009" unicode="&#x2009;" horiz-adv-x="82" 
 />
    <glyph glyph-name="endash" unicode="&#x2013;" horiz-adv-x="414" 
d="M6 212l33 145h381l-34 -145h-380z" />
    <glyph glyph-name="emdash" unicode="&#x2014;" horiz-adv-x="687" 
d="M6 212l33 145h654l-34 -145h-653z" />
    <glyph glyph-name="quoteleft" unicode="&#x2018;" horiz-adv-x="212" 
d="M161 413q-40 0 -66.5 25t-26.5 69q0 90 64 140t174 55l-17 -73q-71 -11 -71 -43q0 -6 2 -9.5t9.5 -9.5t11.5 -10q20 -20 20 -48q0 -42 -28.5 -69t-71.5 -27z" />
    <glyph glyph-name="quoteright" unicode="&#x2019;" horiz-adv-x="212" 
d="M46 421l17 73q71 11 71 43q0 6 -2 9.5t-9.5 9.5t-11.5 10q-20 20 -20 48q0 42 28 69t71 27q40 0 67 -25t27 -69q0 -90 -64 -140t-174 -55z" />
    <glyph glyph-name="quotesinglbase" unicode="&#x201a;" horiz-adv-x="213" 
d="M-77 -113l17 74q71 9 71 43q0 6 -2 9.5t-9.5 9.5t-11.5 10q-21 19 -21 47q0 42 28.5 69t71.5 27q40 0 66.5 -24.5t26.5 -68.5q0 -90 -63.5 -140.5t-173.5 -55.5z" />
    <glyph glyph-name="quotedblleft" unicode="&#x201c;" horiz-adv-x="423" 
d="M373 413q-40 0 -67 25t-27 69q0 90 64 140t174 55l-17 -73q-71 -11 -71 -43q0 -6 2 -9.5t9.5 -9.5t11.5 -10q21 -19 21 -48q0 -42 -28.5 -69t-71.5 -27zM161 413q-40 0 -66.5 25t-26.5 69q0 90 64 140t174 55l-17 -73q-71 -11 -71 -43q0 -6 2 -9.5t9.5 -9.5t11.5 -10
q20 -20 20 -48q0 -42 -28.5 -69t-71.5 -27z" />
    <glyph glyph-name="quotedblright" unicode="&#x201d;" horiz-adv-x="423" 
d="M257 421l17 73q71 11 71 43q0 6 -2 9.5t-9.5 9.5t-11.5 10q-20 20 -20 48q0 42 28.5 69t71.5 27q40 0 66.5 -25t26.5 -69q0 -90 -64 -140t-174 -55zM46 421l17 73q71 11 71 43q0 6 -2 9.5t-9.5 9.5t-11.5 10q-20 20 -20 48q0 42 28 69t71 27q40 0 67 -25t27 -69
q0 -90 -64 -140t-174 -55z" />
    <glyph glyph-name="quotedblbase" unicode="&#x201e;" horiz-adv-x="424" 
d="M134 -113l17 74q71 9 71 43q0 6 -2 9.5t-9.5 9.5t-11.5 10q-20 20 -20 47q0 42 28 69t71 27q41 0 67.5 -24.5t26.5 -68.5q0 -89 -64 -140t-174 -56zM-77 -113l17 74q71 9 71 43q0 6 -2 9.5t-9.5 9.5t-11.5 10q-21 19 -21 47q0 42 28.5 69t71.5 27q40 0 66.5 -24.5
t26.5 -68.5q0 -90 -63.5 -140.5t-173.5 -55.5z" />
    <glyph glyph-name="dagger" unicode="&#x2020;" horiz-adv-x="473" 
d="M131 -49l-9 291l16 69l106 123l-153 -63l-49 30l34 147l63 22l115 -82l-38 122l12 48l40 42h138l21 -55l-11 -48l-97 -116l154 65l49 -31l-34 -147l-63 -21l-115 82l45 -133l-16 -69l-133 -276h-75z" />
    <glyph glyph-name="daggerdbl" unicode="&#x2021;" horiz-adv-x="472" 
d="M95 -49l-19 58l11 49l88 101l-147 -61l-49 31l33 144l62 23l113 -80l-45 99l8 34l88 90l-145 -59l-48 31l33 144l61 23l116 -82l-40 112l12 49l41 43h137l21 -58l-12 -48l-90 -103l150 62l49 -31l-33 -144l-62 -22l-113 79l45 -99l-8 -34l-90 -91l146 60l50 -31l-33 -144
l-62 -22l-117 82l40 -114l-11 -48l-40 -43h-140z" />
    <glyph glyph-name="bullet" unicode="&#x2022;" horiz-adv-x="346" 
d="M168 122q-66 0 -109.5 40t-43.5 104q0 79 50.5 125.5t122.5 46.5q66 0 108.5 -39.5t42.5 -103.5q0 -81 -49.5 -127t-121.5 -46z" />
    <glyph glyph-name="ellipsis" unicode="&#x2026;" horiz-adv-x="662" 
d="M508 -7q-42 0 -70.5 27t-28.5 64q0 44 31.5 73.5t74.5 29.5q42 0 70 -27.5t28 -65.5q0 -43 -31.5 -72t-73.5 -29zM288 -7q-42 0 -70 27t-28 64q0 44 31 73.5t74 29.5q42 0 70 -27.5t28 -65.5q0 -43 -31 -72t-74 -29zM68 -7q-42 0 -70 27t-28 64q0 44 31.5 73.5t73.5 29.5
q43 0 71 -27.5t28 -65.5q0 -43 -31.5 -72t-74.5 -29z" />
    <glyph glyph-name="perthousand" unicode="&#x2030;" horiz-adv-x="1255" 
d="M229 323q-72 0 -117.5 40.5t-45.5 111.5q0 104 67.5 169t156.5 65q73 0 119 -40.5t46 -111.5q0 -105 -68.5 -169.5t-157.5 -64.5zM70 -34l636 763h118l-636 -763h-118zM1004 -9q-73 0 -118 40t-45 111q0 105 67.5 170t155.5 65q74 0 119.5 -40.5t45.5 -111.5
q0 -105 -68 -169.5t-157 -64.5zM605 -9q-72 0 -117.5 40t-45.5 111q0 105 67.5 170t155.5 65q74 0 120 -40.5t46 -111.5q0 -105 -68.5 -169.5t-157.5 -64.5zM242 417q28 0 48 49.5t20 101.5q0 46 -32 46q-28 0 -48.5 -50t-20.5 -103q0 -44 33 -44zM1017 84q28 0 48 49.5
t20 102.5q0 45 -32 45q-29 0 -49 -49.5t-20 -103.5q0 -44 33 -44zM618 84q28 0 48 49.5t20 102.5q0 45 -32 45q-28 0 -48.5 -50t-20.5 -103q0 -44 33 -44z" />
    <glyph glyph-name="guilsinglleft" unicode="&#x2039;" horiz-adv-x="292" 
d="M120 40l-109 192l18 77l175 171h122l-12 -51l-129 -170v-3l51 -163l-12 -53h-104z" />
    <glyph glyph-name="guilsinglright" unicode="&#x203a;" horiz-adv-x="292" 
d="M-34 40l12 51l129 170v3l-51 163l12 53h104l109 -192l-18 -77l-175 -171h-122z" />
    <glyph glyph-name="fraction" unicode="&#x2044;" horiz-adv-x="204" 
d="M-258 -34l636 763h118l-636 -763h-118z" />
    <glyph glyph-name="Euro" unicode="&#x20ac;" horiz-adv-x="624" 
d="M34 363l21 88h48q22 62 62 114q115 146 310 146q134 0 225 -44l-41 -172h-119q-13 63 -70 63q-76 0 -121 -107h150l-35 -88h-144l-8 -41h136l-34 -87h-110v-2q0 -47 18.5 -69t58.5 -22q59 0 103 54h112l-37 -163q-93 -44 -196 -44q-145 0 -220.5 67.5t-75.5 178.5h-62
l20 87h47q1 8 3.5 23.5t2.5 17.5h-44z" />
    <glyph glyph-name="trademark" unicode="&#x2122;" horiz-adv-x="719" 
d="M343 420l14 59h12q9 0 12 11l32 138q3 11 -6 11h-14l15 61h163l5 -118h1l58 118h177l-15 -61h-13q-3 0 -7 -4t-5 -7l-32 -138q-1 -3 1 -7t5 -4h14l-13 -59h-154l14 59h22l31 137h-1l-99 -196h-62l-10 196h-1l-31 -137h23l-14 -59h-122zM109 420l13 59h14q9 0 12 11
l34 147h-19l-18 -47h-58l25 110h283l-26 -110h-60l4 47h-19l-34 -147q-1 -3 1 -7t6 -4h15l-13 -59h-160z" />
    <glyph glyph-name="onethird" unicode="&#x2153;" horiz-adv-x="838" 
d="M606 -7q-101 0 -157 29l23 95h76q12 -31 47 -31q19 0 31.5 11t12.5 29q0 29 -37 29h-40l20 83h39q23 0 35 11t12 27q0 27 -33 27q-29 0 -49 -25h-72l26 108q65 18 128 18q75 0 113.5 -25.5t38.5 -71.5q0 -83 -99 -107v-2q73 -12 73 -75q0 -62 -50.5 -96t-137.5 -34z
M46 -34l636 763h118l-636 -763h-118zM25 303l20 83h37q4 0 10.5 5.5t8.5 9.5l42 178l-39 -20h-27l22 93l116 48h122l-72 -299q-1 -4 2 -9.5t8 -5.5h40l-21 -83h-269z" />
    <glyph glyph-name="twothirds" unicode="&#x2154;" horiz-adv-x="865" 
d="M633 -7q-101 0 -157 29l23 95h76q12 -31 47 -31q19 0 31.5 11t12.5 29q0 29 -37 29h-40l20 83h39q23 0 35 11t12 27q0 27 -33 27q-29 0 -49 -25h-72l26 108q65 18 128 18q75 0 113.5 -25.5t38.5 -71.5q0 -83 -99 -107v-2q73 -12 73 -75q0 -62 -50.5 -96t-137.5 -34z
M76 -34l636 763h118l-636 -763h-118zM16 303l15 62q13 52 44.5 84t82.5 58q65 34 76 47q9 10 9 22q0 26 -30 26q-32 0 -53 -30h-75l26 113q59 22 135 22t117.5 -28.5t41.5 -77.5q0 -52 -30.5 -83.5t-85.5 -56.5l-31.5 -14l-27.5 -12t-19.5 -9.5t-16.5 -11t-9 -11.5h76l13 25
h90l-30 -125h-318z" />
    <glyph glyph-name="oneeighth" unicode="&#x215b;" horiz-adv-x="858" 
d="M615 -7q-86 0 -134 30t-48 79q0 43 28 71t78 40v2q-48 19 -48 64q0 60 52 93t135 33q75 0 118 -28t43 -74q0 -74 -85 -94v-2q61 -21 61 -74q0 -65 -53.5 -102.5t-146.5 -37.5zM619 81q22 0 35 18t13 40q0 38 -32 38q-23 0 -36.5 -18.5t-13.5 -42.5q0 -35 34 -35zM656 239
q18 0 29 14.5t11 33.5q0 30 -28 30q-18 0 -29 -15.5t-11 -34.5q0 -28 28 -28zM45 -34l636 763h118l-636 -763h-118zM25 303l20 83h37q4 0 10.5 5.5t8.5 9.5l42 178l-39 -20h-27l22 93l116 48h122l-72 -299q-1 -4 2 -9.5t8 -5.5h40l-21 -83h-269z" />
    <glyph glyph-name="threeeighths" unicode="&#x215c;" horiz-adv-x="853" 
d="M610 -7q-86 0 -134 30t-48 79q0 43 28 71t78 40v2q-48 19 -48 64q0 60 52 93t135 33q75 0 118 -28t43 -74q0 -74 -85 -94v-2q61 -21 61 -74q0 -65 -53.5 -102.5t-146.5 -37.5zM614 81q22 0 35 18t13 40q0 38 -32 38q-23 0 -36.5 -18.5t-13.5 -42.5q0 -35 34 -35zM651 239
q19 0 29.5 14.5t10.5 33.5q0 30 -28 30q-18 0 -29 -15.5t-11 -34.5q0 -28 28 -28zM48 -34l636 763h118l-636 -763h-118zM179 296q-105 0 -157 29l23 95h76q11 -31 47 -31q19 0 31.5 11t12.5 29q0 28 -37 28h-40l21 83h38q23 0 35 11t12 28q0 26 -33 26q-28 0 -49 -24h-72
l26 108q65 18 128 18q75 0 113.5 -25.5t38.5 -71.5q0 -85 -99 -107v-2q73 -14 73 -76q0 -61 -50.5 -95t-137.5 -34z" />
    <glyph glyph-name="fiveeighths" unicode="&#x215d;" horiz-adv-x="847" 
d="M604 -7q-86 0 -134 30t-48 79q0 43 28 71t78 40v2q-48 19 -48 64q0 60 52 93t135 33q75 0 118 -28t43 -74q0 -74 -85 -94v-2q61 -21 61 -74q0 -65 -53.5 -102.5t-146.5 -37.5zM608 81q22 0 35 18t13 40q0 38 -32 38q-23 0 -36.5 -18.5t-13.5 -42.5q0 -35 34 -35zM645 239
q19 0 29.5 14.5t10.5 33.5q0 30 -28 30q-18 0 -29 -15.5t-11 -34.5q0 -28 28 -28zM40 -34l636 763h118l-636 -763h-118zM177 295q-97 0 -155 27l23 96h78q12 -29 45 -29q21 0 34 13t13 36q0 31 -33 31q-22 0 -39 -17h-84l60 248h292l-29 -121h-91l-5 21h-85l-17 -72h1
q34 26 80 26q52 0 81.5 -26.5t29.5 -74.5q0 -74 -54.5 -116t-144.5 -42z" />
    <glyph glyph-name="seveneighths" unicode="&#x215e;" horiz-adv-x="828" 
d="M69 303l15 61l207 222v3h-108l-21 -37h-93l36 148h318l-28 -117l-166 -280h-160zM585 -7q-86 0 -134 30t-48 79q0 43 28 71t78 40v2q-48 19 -48 64q0 60 52 93t135 33q75 0 118 -28t43 -74q0 -74 -85 -94v-2q61 -21 61 -74q0 -65 -53.5 -102.5t-146.5 -37.5zM589 81
q22 0 35 18t13 40q0 38 -32 38q-23 0 -36.5 -18.5t-13.5 -42.5q0 -35 34 -35zM626 239q18 0 29 14.5t11 33.5q0 30 -28 30q-18 0 -29 -15.5t-11 -34.5q0 -28 28 -28zM16 -34l636 763h118l-636 -763h-118z" />
    <glyph glyph-name="minus" unicode="&#x2212;" horiz-adv-x="517" 
d="M12 269l36 153h496l-35 -153h-497z" />
    <glyph glyph-name="space_uni0326" unicode="&#xf6c3;" horiz-adv-x="400" 
d="M14 -237l13 58q57 7 57 28q0 6 -19 23.5t-19 40.5q0 31 22 48.5t54 17.5q35 0 57 -21t22 -55q0 -131 -187 -140z" />
    <glyph glyph-name="paragraph.cap" horiz-adv-x="566" 
d="M165 0l69 299q-80 11 -125 53t-45 114q0 121 78.5 177.5t208.5 56.5h308l-30 -128h-32q-9 0 -19 -9.5t-12 -18.5l-126 -544h-110l133 576h-55l-133 -576h-110z" />
    <glyph glyph-name="bullet.cap" horiz-adv-x="346" 
d="M180 170q-66 0 -109.5 39t-43.5 103q0 79 50.5 126t122.5 47q66 0 108.5 -38.5t42.5 -102.5q0 -81 -49.5 -127.5t-121.5 -46.5z" />
    <glyph glyph-name="at.cap" horiz-adv-x="778" 
d="M408 -9q-73 0 -137.5 20t-117 59.5t-83.5 106t-31 151.5q0 89 37 164t96 122t128.5 72.5t137.5 25.5q145 0 246.5 -80t101.5 -217q0 -122 -63 -184.5t-168 -62.5q-102 0 -128 62q-46 -58 -113 -58q-51 0 -81 32.5t-30 91.5q0 102 61 171q52 57 128 57q60 0 94 -42
q35 35 56 35h90l-50 -220q-6 -25 -1.5 -38t21.5 -13q42 0 71 42t29 124q0 106 -72 166.5t-191 60.5q-57 0 -110.5 -19.5t-98 -56.5t-71 -98.5t-26.5 -137.5q0 -135 75 -200t202 -65q126 0 210 53h56l-13 -58q-93 -66 -255 -66zM387 264q15 0 33 14l34 148q-12 4 -23 4
q-34 0 -53.5 -38t-19.5 -90q0 -38 29 -38z" />
    <glyph glyph-name="dagger.cap" horiz-adv-x="473" 
d="M142 0l-15 263l16 69l105 119l-155 -65l-49 30l34 147l63 22l116 -81l-39 113l10 41l40 42h138l21 -55l-9 -41l-94 -106l154 64l49 -30l-34 -148l-63 -21l-117 82l46 -128l-15 -69l-127 -248h-75z" />
    <glyph glyph-name="daggerdbl.cap" horiz-adv-x="472" 
d="M107 0l-20 55l11 46l85 91l-146 -57l-49 29l31 137l62 21l113 -75l-47 95l7 28l90 88l-145 -57l-49 30l31 136l61 22l117 -77l-43 100l11 47l40 41h138l22 -55l-11 -46l-85 -91l146 57l50 -30l-32 -136l-61 -21l-115 76l46 -96l-6 -29l-90 -88l146 58l50 -30l-32 -137
l-61 -20l-117 77l42 -103l-11 -45l-40 -41h-139z" />
    <glyph glyph-name="less.cap" horiz-adv-x="453" 
d="M285 0l-268 288l32 135l376 277h116l-29 -124l-261 -232v-3l157 -215l-29 -126h-94z" />
    <glyph glyph-name="greater.cap" horiz-adv-x="453" 
d="M-47 0l28 123l262 233v3l-158 214l30 127h94l267 -288l-31 -135l-376 -277h-116z" />
    <glyph glyph-name="guillemotleft.cap" horiz-adv-x="727" 
d="M563 0l-234 287l30 129l344 284h112l-28 -124l-233 -237v-3l129 -210l-29 -126h-91zM252 0l-232 297l29 128l343 275h113l-29 -124l-233 -231v-3l129 -216l-29 -126h-91z" />
    <glyph glyph-name="guillemotright.cap" horiz-adv-x="726" 
d="M263 0l28 123l234 231v3l-130 216l30 127h91l232 -297l-30 -128l-342 -275h-113zM-47 0l28 123l233 238v3l-129 209l29 127h91l234 -287l-30 -129l-344 -284h-112z" />
    <glyph glyph-name="quotedblleft.cap" horiz-adv-x="1030" 
d="M766 -9q-110 0 -177.5 65t-67.5 177q0 197 160 327.5t437 140.5l-30 -129q-109 -8 -164.5 -46t-55.5 -88q0 -20 10.5 -33t37.5 -32.5t44 -35.5q46 -40 46 -115q0 -102 -66 -166.5t-174 -64.5zM258 -9q-111 0 -178.5 64.5t-67.5 177.5q0 197 160.5 327.5t436.5 140.5
l-29 -129q-109 -8 -164.5 -46t-55.5 -88q0 -20 10.5 -33t37.5 -32.5t44 -35.5q46 -42 46 -115q0 -102 -66.5 -166.5t-173.5 -64.5z" />
    <glyph glyph-name="quotedblright.cap" horiz-adv-x="1030" 
d="M462 0l29 123q109 11 165 50.5t56 88.5q0 20 -10.5 33t-37.5 32.5t-44 35.5q-46 42 -46 116q0 102 66.5 166.5t173.5 64.5q110 0 177.5 -65t67.5 -177q0 -198 -160 -328t-437 -140zM-46 0l28 123q109 11 165 50.5t56 88.5q0 20 -10.5 33t-37.5 32.5t-44 35.5
q-46 44 -46 116q0 102 66.5 166.5t173.5 64.5q111 0 178.5 -65t67.5 -177q0 -198 -160.5 -328t-436.5 -140z" />
    <glyph glyph-name="quoteleft.cap" horiz-adv-x="521" 
d="M258 -9q-111 0 -178.5 64.5t-67.5 177.5q0 197 160.5 327.5t436.5 140.5l-29 -129q-109 -8 -164.5 -46t-55.5 -88q0 -20 10.5 -33t37.5 -32.5t44 -35.5q46 -42 46 -115q0 -102 -66.5 -166.5t-173.5 -64.5z" />
    <glyph glyph-name="quoteright.cap" horiz-adv-x="522" 
d="M-46 0l28 123q109 11 165 50.5t56 88.5q0 20 -10.5 33t-37.5 32.5t-44 35.5q-46 44 -46 116q0 102 66.5 166.5t173.5 64.5q111 0 178.5 -65t67.5 -177q0 -198 -160.5 -328t-436.5 -140z" />
    <glyph glyph-name="hyphen.cap" horiz-adv-x="297" 
d="M14 250l36 155h263l-36 -155h-263z" />
    <glyph glyph-name="endash.cap" horiz-adv-x="414" 
d="M16 256l33 144h381l-33 -144h-381z" />
    <glyph glyph-name="emdash.cap" horiz-adv-x="687" 
d="M16 256l33 144h654l-33 -144h-654z" />
    <glyph glyph-name="questiondown.cap" horiz-adv-x="471" 
d="M352 513q-43 0 -71 27t-28 66q0 43 31.5 72t74.5 29q42 0 70 -27t28 -64q0 -44 -31.5 -73.5t-73.5 -29.5zM210 -11q-110 0 -166 43t-56 115q0 43 12.5 77t40 59.5t51 41t65.5 38.5q41 23 59.5 35.5t35.5 34t19 48.5h131q4 -112 -90 -189q-3 -3 -29 -22.5t-35.5 -28.5
t-21.5 -28t-12 -37q0 -39 41 -39q43 0 69 50h119l-37 -163q-83 -35 -196 -35z" />
    <glyph glyph-name="exclamdown.cap" horiz-adv-x="248" 
d="M233 481l-28 -353l-30 -128h-221l30 128l145 353h104zM209 707q42 0 70 -27t28 -64q0 -44 -31 -73.5t-74 -29.5q-42 0 -70 27.5t-28 65.5q0 43 31 72t74 29z" />
    <glyph glyph-name="R.alt" horiz-adv-x="717" 
d="M541 -9q-73 0 -107 28.5t-37 96.5l-4 75q-1 44 -16.5 60t-47.5 16h-28l-33 -144h63l-28 -123h-354l28 123h33q8 0 18.5 10.5t12.5 18.5l90 392q2 9 -3.5 18.5t-14.5 9.5h-32l30 128h334q132 0 198 -46t66 -128q0 -76 -48 -125.5t-138 -67.5v-4q41 -12 64.5 -41.5
t36.5 -94.5l10 -52q1 -6 8.5 -12t13.5 -6h20l-25 -110q-48 -22 -110 -22zM364 563l-40 -175h40q107 0 107 111q0 64 -73 64h-34z" />
    <glyph glyph-name="a.alt" horiz-adv-x="614" 
d="M437 -9q-99 0 -118 77q-64 -78 -160 -78q-71 0 -113.5 49t-42.5 140q0 79 27 155t77 127q74 77 177 77q96 0 143 -64q46 54 92 54h109l-87 -380q-2 -8 3 -16.5t12 -8.5h26l-23 -105q-49 -27 -122 -27zM293 129q14 0 25 4l58 253q-20 4 -33 4q-56 0 -87.5 -54.5
t-31.5 -139.5q0 -67 69 -67z" />
    <glyph glyph-name="f.alt" horiz-adv-x="355" 
d="M34 397l29 131h53l5 23q19 88 72.5 125.5t149.5 37.5q62 0 107 -15l-27 -114h-22q-31 0 -44.5 -8.5t-19.5 -33.5l-4 -15h71l-30 -131h-69l-88 -404q-37 -163 -200 -163q-70 0 -112 19l25 109h17q23 0 35 9.5t17 34.5l88 395h-53z" />
    <glyph glyph-name="g.alt" horiz-adv-x="609" 
d="M192 -172q-152 0 -225 32l33 138h125q17 -38 74 -38q91 0 110 87l10 46q-63 -63 -152 -63q-77 0 -119 44.5t-42 125.5q0 69 24.5 136.5t68.5 116.5q75 85 187 85q91 0 136 -71q43 61 91 61h125l-115 -499q-23 -99 -102 -150t-229 -51zM296 143q16 0 37 8l53 231
q-20 8 -42 8q-51 0 -84 -52t-33 -122q0 -38 16.5 -54.5t52.5 -18.5z" />
    <glyph glyph-name="y.alt" horiz-adv-x="565" 
d="M-36 -162l25 109q98 20 156 62l-67 367q-2 8 -7 14.5t-11 6.5h-26l25 111q61 27 129 27q45 0 67.5 -23.5t30.5 -77.5l29 -232q82 154 110 326h184l-27 -118q-43 -104 -85 -177.5t-119 -170.5q-68 -84 -121.5 -132.5t-123.5 -91.5h-169z" />
    <glyph glyph-name="z.alt" horiz-adv-x="503" 
d="M340 -10q-45 0 -115 21.5t-96 21.5q-43 0 -67 -33h-106l27 122l277 224v4q-21 0 -48.5 1.5t-38.5 1.5q-26 0 -36 -23h-107l45 193q44 14 91 14q42 0 116 -19t101 -19q41 0 64 29h105l-26 -114l-284 -239v-4q16 0 42 -2t40 -2q28 0 44 27h107l-42 -182q-42 -22 -93 -22z
" />
    <glyph glyph-name="germandbls.alt" horiz-adv-x="683" 
d="M2 -170q-70 0 -112 19l26 109h17q23 0 35 9.5t17 34.5l115 512q21 93 100.5 145t217.5 52q122 0 189.5 -39t67.5 -105q0 -68 -86 -123q-48 -30 -66.5 -45t-18.5 -28q0 -9 8 -15.5t36 -24.5q9 -6 14 -9q50 -29 73 -57.5t23 -72.5q0 -85 -60.5 -142.5t-174.5 -57.5
q-104 0 -173 36l29 124h103q8 -38 41 -38q17 0 27 8.5t10 21.5q0 14 -14.5 24.5t-52.5 30.5q-44 25 -64 50t-20 63q0 56 67 125q9 10 28 28.5t27 27t15.5 21.5t7.5 24q0 17 -13 27.5t-37 10.5q-71 0 -89 -85l-112 -498q-36 -163 -201 -163z" />
    <glyph glyph-name="ampersand.alt" horiz-adv-x="747" 
d="M262 -9q-135 0 -201 50t-66 132q0 91 56.5 148.5t147.5 82.5q-15 38 -15 78q0 106 69 167t184 61q72 0 107 -10h152l-45 -196h-139l-6 58q-10 4 -28 4q-67 0 -67 -66q0 -33 39 -87l88 -122q20 34 28 53h-24l24 103h215l-27 -116h-15q-23 0 -36 -25q-33 -67 -82 -128
l24 -32q16 -23 31 -23h18l-28 -123h-190l-26 36q-88 -45 -188 -45zM301 131q37 0 70 13l-114 157q-40 -38 -40 -90q0 -37 21 -58.5t63 -21.5z" />
    <glyph glyph-name="f_i.alt" horiz-adv-x="637" 
d="M442 -9q-141 0 -109 136l61 270h-89l-88 -404q-37 -163 -200 -163q-70 0 -112 19l25 109h17q24 0 36 10t17 34l87 395h-53l29 131h53l5 23q19 87 72.5 125t141.5 38q64 0 103 -15l-26 -114h-17q-26 0 -39 -8.5t-19 -33.5l-4 -15h186q57 0 84 -30t14 -86l-61 -264
q-2 -8 3.5 -16.5t12.5 -8.5h31l-24 -105q-49 -27 -137 -27zM542 553q-42 0 -68 24t-26 61q0 45 31 71.5t76 26.5q43 0 68.5 -23.5t25.5 -60.5q0 -46 -31 -72.5t-76 -26.5z" />
    <glyph glyph-name="f_l.alt" horiz-adv-x="637" 
d="M34 397l29 131h53l5 23q19 88 74.5 125.5t153.5 37.5q49 0 109 -14h191q15 0 21.5 -12t2.5 -32l-117 -508q-2 -8 3.5 -16.5t12.5 -8.5h32l-24 -105q-49 -27 -137 -27q-142 0 -110 136l105 458h-37q-31 0 -44.5 -8.5t-19.5 -33.5l-4 -15h63l-30 -131h-61l-88 -404
q-37 -163 -200 -163q-70 0 -112 19l25 109h17q23 0 35 9.5t17 34.5l88 395h-53z" />
    <glyph glyph-name="f_f.alt" horiz-adv-x="662" 
d="M33 397l29 131h51l4 15q20 86 73 124t141 38q63 0 103 -14l-26 -110h-12q-28 0 -41.5 -8.5t-19.5 -33.5l-3 -11h91l5 23q19 87 73 125t149 38q62 0 107 -15l-27 -114h-22q-31 0 -44.5 -8.5t-19.5 -33.5l-4 -15h71l-30 -131h-69l-87 -398q-37 -163 -199 -163
q-67 0 -107 19l25 109h11q23 0 35 9.5t18 34.5l86 389h-90l-87 -404q-37 -163 -201 -163q-71 0 -111 19l25 109h17q23 0 35 9.5t17 34.5l86 395h-52z" />
    <glyph glyph-name="f_b.alt" horiz-adv-x="933" 
d="M337 543l-4 -15h63l-30 -131h-61l-88 -404q-37 -163 -200 -163q-70 0 -112 19l25 109h17q24 0 36 10t17 34l87 395h-53l29 131h53l5 23q19 87 75.5 125t153.5 38q50 0 110 -14h190q15 0 21.5 -12t2.5 -32l-44 -192q70 74 153 74q66 0 107.5 -45t41.5 -129
q0 -90 -24.5 -165.5t-62.5 -121.5q-73 -87 -186 -87q-98 0 -147 72q-49 -62 -86 -62h-121l134 585h-38q-32 0 -45.5 -8.5t-18.5 -33.5zM640 379q-14 0 -31 -5l-55 -238q20 -11 42 -11q53 0 84.5 52.5t31.5 130.5q0 38 -17.5 54.5t-54.5 16.5z" />
    <glyph glyph-name="f_h.alt" horiz-adv-x="945" 
d="M337 543l-4 -15h63l-30 -131h-61l-88 -404q-37 -163 -200 -163q-70 0 -112 19l25 109h17q24 0 36 10t17 34l87 395h-53l29 131h53l5 23q19 87 75.5 125t153.5 38q50 0 110 -14h190q15 0 21.5 -12t2.5 -32l-49 -213q99 95 197 95q63 0 92.5 -38t13.5 -105l-57 -247
q-2 -8 3.5 -16.5t12.5 -8.5h26l-24 -105q-49 -27 -132 -27q-141 0 -109 136l45 192q6 24 -3.5 36t-39.5 12q-19 0 -45 -8l-82 -359h-194q-9 0 -14.5 9t-3.5 19l128 557h-38q-32 0 -45.5 -8.5t-18.5 -33.5z" />
    <glyph glyph-name="f_j.alt" horiz-adv-x="613" 
d="M618 412l-97 -419q-20 -89 -70.5 -126t-137.5 -37q-58 0 -107 15l25 110h18q26 0 38 10.5t18 37.5l90 394h-90l-88 -404q-37 -163 -200 -163q-70 0 -112 19l25 109h17q24 0 36 10t17 34l87 395h-53l29 131h53l5 23q19 86 73 124.5t142 38.5q65 0 104 -15l-27 -114h-18
q-26 0 -39.5 -9t-18.5 -33l-4 -15h186q59 0 85.5 -30t13.5 -86zM543 553q-43 0 -68.5 24t-25.5 61q0 45 31 71.5t76 26.5q43 0 68.5 -23.5t25.5 -60.5q0 -46 -31 -72.5t-76 -26.5z" />
    <glyph glyph-name="f_k.alt" horiz-adv-x="902" 
d="M758 -9q-30 0 -50 6t-34 22.5t-21 30t-20 44.5l-35 87q-35 -15 -37 -16l-38 -165h-194q-9 0 -14.5 9t-3.5 19l128 557h-38q-32 0 -45.5 -8.5t-18.5 -33.5l-4 -15h63l-30 -131h-61l-88 -404q-37 -163 -200 -163q-70 0 -112 19l25 109h17q24 0 36 10t17 34l87 395h-53
l29 131h53l5 23q19 87 75.5 125t153.5 38q50 0 110 -14h190q15 0 21.5 -12t2.5 -32l-77 -335q57 42 101.5 101t55.5 106h181l-23 -105q-49 -69 -133 -140l56 -135q11 -25 28 -25h21l-24 -105q-41 -27 -102 -27z" />
    <glyph glyph-name="f_t.alt" horiz-adv-x="674" 
d="M34 397l29 131h53l5 23q19 86 73 124.5t142 38.5q62 0 101 -15l-27 -114h-15q-26 0 -39.5 -9t-18.5 -33l-4 -15h93l32 137h219l-32 -137h77l-29 -131h-78l-49 -211q-14 -63 49 -63h20l-27 -119q-51 -15 -104 -15q-202 0 -160 184l52 224h-91l-88 -404q-37 -163 -200 -163
q-70 0 -112 19l25 109h17q24 0 36 10t17 34l87 395h-53z" />
    <glyph glyph-name="f_f_i.alt" horiz-adv-x="944" 
d="M749 -9q-141 0 -110 136l62 270h-89l-87 -398q-37 -163 -199 -163q-67 0 -107 19l25 109h11q23 0 35 9.5t18 34.5l86 389h-90l-87 -404q-37 -163 -201 -163q-71 0 -111 19l25 109h17q23 0 35 9.5t17 34.5l86 395h-52l29 131h51l4 15q20 86 73 124t141 38q63 0 103 -14
l-26 -110h-12q-28 0 -41.5 -8.5t-19.5 -33.5l-3 -11h91l5 23q19 86 72.5 124.5t141.5 38.5q64 0 103 -15l-26 -114h-17q-26 0 -39 -8.5t-19 -33.5l-4 -15h186q57 0 84 -30t14 -86l-61 -264q-2 -8 3.5 -16.5t12.5 -8.5h31l-24 -105q-49 -27 -137 -27zM849 553q-42 0 -68 24
t-26 61q0 45 31 71.5t76 26.5q43 0 68.5 -23.5t25.5 -60.5q0 -46 -31 -72.5t-76 -26.5z" />
    <glyph glyph-name="f_f_l.alt" horiz-adv-x="944" 
d="M33 397l29 131h51l4 15q20 86 73 124t141 38q63 0 103 -14l-26 -110h-12q-28 0 -41.5 -8.5t-19.5 -33.5l-3 -11h91l5 23q19 87 75 125t153 38q49 0 109 -14h191q15 0 21.5 -12t2.5 -32l-117 -508q-2 -8 3.5 -16.5t12.5 -8.5h32l-24 -105q-49 -27 -137 -27
q-142 0 -111 136l106 458h-37q-31 0 -44.5 -8.5t-19.5 -33.5l-4 -15h62l-29 -131h-61l-87 -398q-37 -163 -199 -163q-67 0 -107 19l25 109h11q23 0 35 9.5t18 34.5l86 389h-90l-87 -404q-36 -163 -201 -163q-71 0 -111 19l25 109h17q23 0 35 9.5t17 34.5l86 395h-52z" />
    <glyph glyph-name="f_f_b.alt" horiz-adv-x="1240" 
d="M644 543l-4 -15h62l-29 -131h-61l-87 -398q-37 -163 -199 -163q-67 0 -107 19l25 109h11q23 0 35 9.5t18 34.5l86 389h-90l-87 -404q-37 -163 -201 -163q-71 0 -111 19l25 109h17q23 0 35 9.5t17 34.5l86 395h-52l29 131h51l4 15q20 86 73 124t141 38q63 0 103 -14
l-26 -110h-12q-28 0 -42 -9t-19 -33l-3 -11h91l5 23q19 87 75.5 125t153.5 38q50 0 110 -14h190q15 0 21.5 -12t2.5 -32l-44 -192q70 74 153 74q66 0 107.5 -45t41.5 -129q0 -90 -24.5 -165.5t-62.5 -121.5q-73 -87 -186 -87q-98 0 -147 72q-49 -62 -86 -62h-121l134 585
h-38q-32 0 -45.5 -8.5t-18.5 -33.5zM947 379q-14 0 -31 -5l-55 -238q20 -11 42 -11q53 0 84.5 52.5t31.5 130.5q0 38 -17.5 54.5t-54.5 16.5z" />
    <glyph glyph-name="f_f_h.alt" horiz-adv-x="1252" 
d="M644 543l-4 -15h62l-29 -131h-61l-87 -398q-37 -163 -199 -163q-67 0 -107 19l25 109h11q23 0 35 9.5t18 34.5l86 389h-90l-87 -404q-37 -163 -201 -163q-71 0 -111 19l25 109h17q23 0 35 9.5t17 34.5l86 395h-52l29 131h51l4 15q20 86 73 124t141 38q63 0 103 -14
l-26 -110h-12q-28 0 -42 -9t-19 -33l-3 -11h91l5 23q19 87 75.5 125t153.5 38q50 0 110 -14h190q15 0 21.5 -12t2.5 -32l-49 -213q99 95 197 95q63 0 92.5 -38t13.5 -105l-57 -247q-2 -8 3.5 -16.5t12.5 -8.5h26l-24 -105q-49 -27 -132 -27q-141 0 -109 136l45 192
q6 24 -3.5 36t-39.5 12q-19 0 -45 -8l-82 -359h-194q-9 0 -14.5 9t-3.5 19l128 557h-38q-32 0 -45.5 -8.5t-18.5 -33.5z" />
    <glyph glyph-name="f_f_j.alt" horiz-adv-x="946" 
d="M925 412l-97 -419q-20 -89 -70.5 -126t-137.5 -37q-58 0 -107 15l25 110h18q26 0 38 10.5t18 37.5l90 394h-90l-87 -398q-37 -163 -199 -163q-67 0 -107 19l25 109h11q23 0 35 9.5t18 34.5l86 389h-90l-87 -404q-37 -163 -201 -163q-71 0 -111 19l25 109h17q23 0 35 9.5
t17 34.5l86 395h-52l29 131h51l4 15q20 86 73 124t141 38q63 0 103 -14l-26 -110h-12q-28 0 -42 -9t-19 -33l-3 -11h91l5 23q19 86 73 124.5t142 38.5q65 0 104 -15l-27 -114h-18q-26 0 -39.5 -9t-18.5 -33l-4 -15h186q59 0 85.5 -30t13.5 -86zM850 553q-43 0 -68.5 24
t-25.5 61q0 45 31 71.5t76 26.5q43 0 68.5 -23.5t25.5 -60.5q0 -46 -31 -72.5t-76 -26.5z" />
    <glyph glyph-name="f_f_k.alt" horiz-adv-x="1209" 
d="M1065 -9q-30 0 -50 6t-34 22.5t-21 30t-20 44.5l-35 87q-35 -15 -37 -16l-38 -165h-194q-9 0 -14.5 9t-3.5 19l128 557h-38q-32 0 -45.5 -8.5t-18.5 -33.5l-4 -15h62l-29 -131h-61l-87 -398q-37 -163 -199 -163q-67 0 -107 19l25 109h11q23 0 35 9.5t18 34.5l86 389h-90
l-87 -404q-37 -163 -201 -163q-71 0 -111 19l25 109h17q23 0 35 9.5t17 34.5l86 395h-52l29 131h51l4 15q20 86 73 124t141 38q63 0 103 -14l-26 -110h-12q-28 0 -42 -9t-19 -33l-3 -11h91l5 23q19 87 75.5 125t153.5 38q50 0 110 -14h190q15 0 21.5 -12t2.5 -32l-77 -335
q57 42 101.5 101t55.5 106h181l-23 -105q-49 -69 -133 -140l56 -135q11 -25 28 -25h21l-24 -105q-41 -27 -102 -27z" />
    <glyph glyph-name="f_f_t.alt" horiz-adv-x="981" 
d="M33 397l29 131h51l4 15q20 86 73 124t141 38q63 0 103 -14l-26 -110h-12q-28 0 -42 -9t-19 -33l-3 -11h91l5 23q19 86 73 124.5t142 38.5q62 0 101 -15l-27 -114h-15q-26 0 -39.5 -9t-18.5 -33l-4 -15h93l32 137h219l-32 -137h77l-29 -131h-78l-49 -211q-14 -63 49 -63
h20l-27 -119q-51 -15 -104 -15q-202 0 -160 184l52 224h-91l-87 -398q-37 -163 -199 -163q-67 0 -107 19l25 109h11q23 0 35 9.5t18 34.5l86 389h-90l-87 -404q-37 -163 -201 -163q-71 0 -111 19l25 109h17q23 0 35 9.5t17 34.5l86 395h-52z" />
    <glyph glyph-name="f_igrave.alt" horiz-adv-x="637" 
d="M443 -9q-141 0 -110 136l62 270h-90l-88 -404q-37 -163 -200 -163q-70 0 -112 19l25 109h17q24 0 36 10t17 34l87 395h-53l29 131h53l5 23q36 163 209 163q55 0 100 -15l-27 -114h-11q-24 0 -36.5 -8.5t-18.5 -33.5l-4 -15h186q59 0 85.5 -30t13.5 -86l-61 -264
q-2 -8 3.5 -16.5t12.5 -8.5h30l-23 -105q-49 -27 -137 -27zM496 557l-60 87l13 56h166l3 -143h-122z" />
    <glyph glyph-name="f_iacute.alt" horiz-adv-x="637" 
d="M443 -9q-141 0 -110 136l62 270h-90l-88 -404q-37 -163 -200 -163q-70 0 -112 19l25 109h17q24 0 36 10t17 34l87 395h-53l29 131h53l5 23q19 87 73 125t149 38q62 0 107 -15l-27 -114h-22q-31 0 -44.5 -8.5t-19.5 -33.5l-4 -15h186q59 0 85.5 -30t13.5 -86l-61 -264
q-2 -8 3.5 -16.5t12.5 -8.5h30l-23 -105q-49 -27 -137 -27zM459 557l49 143h201l-14 -56l-109 -87h-127z" />
    <glyph glyph-name="f_icircumflex.alt" horiz-adv-x="637" 
d="M443 -9q-141 0 -110 136l62 270h-90l-88 -404q-37 -163 -200 -163q-70 0 -112 19l25 109h17q24 0 36 10t17 34l87 395h-53l29 131h53l5 23q36 163 212 163q52 0 91 -15l-27 -114h-8q-23 0 -34.5 -8.5t-17.5 -33.5l-4 -15h186q59 0 85.5 -30t13.5 -86l-61 -264
q-2 -8 3.5 -16.5t12.5 -8.5h30l-23 -105q-49 -27 -137 -27zM407 557l9 40l79 103h129l45 -103l-10 -40h-86l-30 47l-47 -47h-89z" />
    <glyph glyph-name="f_idieresis.alt" horiz-adv-x="637" 
d="M443 -9q-141 0 -110 136l62 270h-90l-88 -404q-37 -163 -200 -163q-70 0 -112 19l25 109h17q24 0 36 10t17 34l87 395h-53l29 131h53l5 23q36 163 212 163q52 0 91 -15l-27 -114h-8q-23 0 -34.5 -8.5t-17.5 -33.5l-4 -15h186q59 0 85.5 -30t13.5 -86l-61 -264
q-2 -8 3.5 -16.5t12.5 -8.5h30l-23 -105q-49 -27 -137 -27zM482 554q-30 0 -47 17t-17 45q0 48 25.5 78.5t62.5 30.5q30 0 47.5 -17t17.5 -46q0 -47 -25.5 -77.5t-63.5 -30.5zM643 554q-29 0 -46.5 17t-17.5 46q0 47 25.5 77.5t62.5 30.5q30 0 47 -17.5t17 -46.5
q0 -47 -25 -77t-63 -30z" />
    <glyph glyph-name="f_iogonek.alt" horiz-adv-x="637" 
d="M618 412l-61 -264q-2 -8 3 -16.5t12 -8.5h31l-24 -105q-71 -43 -71 -73q0 -23 33 -23h21l-19 -77q-28 -14 -68 -14q-47 0 -76 18.5t-29 51.5q0 56 87 90h-17q-139 3 -107 136l62 270h-90l-88 -404q-37 -163 -200 -163q-70 0 -112 19l25 109h17q24 0 36 10t17 34l87 395
h-53l29 131h53l5 23q19 86 73 124.5t142 38.5q65 0 104 -15l-27 -114h-18q-25 0 -38.5 -9t-19.5 -33l-4 -15h186q59 0 85.5 -30t13.5 -86zM543 553q-43 0 -68.5 24t-25.5 61q0 45 31 71.5t76 26.5q43 0 68.5 -23.5t25.5 -59.5q0 -46 -31 -73t-76 -27z" />
    <glyph glyph-name="f_imacron.alt" horiz-adv-x="637" 
d="M443 -9q-141 0 -110 136l62 270h-90l-88 -404q-37 -163 -200 -163q-70 0 -112 19l25 109h17q24 0 36 10t17 34l87 395h-53l29 131h53l5 23q19 86 71.5 124.5t137.5 38.5q54 0 95 -15l-26 -114h-10q-23 0 -34.5 -8.5t-17.5 -33.5l-4 -15h186q59 0 85.5 -30t13.5 -86
l-61 -264q-2 -8 3.5 -16.5t12.5 -8.5h30l-23 -105q-49 -27 -137 -27zM415 573l28 120h243l-28 -120h-243z" />
    <glyph glyph-name="f_f_igrave.alt" horiz-adv-x="944" 
d="M326 -164q-67 0 -107 19l25 109h11q24 0 36 10t17 34l86 389h-90l-87 -404q-37 -163 -201 -163q-71 0 -111 19l25 109h17q23 0 35 9.5t17 34.5l86 395h-52l29 131h51l4 15q35 162 214 162q63 0 103 -14l-26 -110h-12q-28 0 -41.5 -8.5t-19.5 -33.5l-3 -11h91l5 23
q37 163 209 163q55 0 100 -15l-27 -114h-11q-24 0 -36.5 -8.5t-18.5 -33.5l-4 -15h186q59 0 85.5 -30t13.5 -86l-61 -264q-2 -8 3.5 -16.5t12.5 -8.5h30l-24 -105q-48 -27 -136 -27q-141 0 -110 136l62 270h-90l-87 -398q-37 -163 -199 -163zM803 557l-60 87l13 56h166
l3 -143h-122z" />
    <glyph glyph-name="f_f_iacute.alt" horiz-adv-x="944" 
d="M326 -164q-67 0 -107 19l25 109h11q24 0 36 10t17 34l86 389h-90l-87 -404q-37 -163 -201 -163q-71 0 -111 19l25 109h17q23 0 35 9.5t17 34.5l86 395h-52l29 131h51l4 15q35 162 214 162q63 0 103 -14l-26 -110h-12q-28 0 -41.5 -8.5t-19.5 -33.5l-3 -11h91l5 23
q20 87 73.5 125t148.5 38q62 0 107 -15l-27 -114h-22q-31 0 -44.5 -8.5t-19.5 -33.5l-4 -15h186q59 0 85.5 -30t13.5 -86l-61 -264q-2 -8 3.5 -16.5t12.5 -8.5h30l-24 -105q-48 -27 -136 -27q-141 0 -110 136l62 270h-90l-87 -398q-37 -163 -199 -163zM766 557l49 143h201
l-14 -56l-109 -87h-127z" />
    <glyph glyph-name="f_f_icircumflex.alt" horiz-adv-x="944" 
d="M326 -164q-67 0 -107 19l25 109h11q24 0 36 10t17 34l86 389h-90l-87 -404q-37 -163 -201 -163q-71 0 -111 19l25 109h17q23 0 35 9.5t17 34.5l86 395h-52l29 131h51l4 15q35 162 214 162q63 0 103 -14l-26 -110h-12q-28 0 -41.5 -8.5t-19.5 -33.5l-3 -11h91l5 23
q37 163 212 163q52 0 91 -15l-27 -114h-8q-23 0 -34.5 -8.5t-17.5 -33.5l-4 -15h186q59 0 85.5 -30t13.5 -86l-61 -264q-2 -8 3.5 -16.5t12.5 -8.5h30l-24 -105q-48 -27 -136 -27q-141 0 -110 136l62 270h-90l-87 -398q-37 -163 -199 -163zM714 557l9 40l79 103h129l45 -103
l-10 -40h-86l-30 47l-47 -47h-89z" />
    <glyph glyph-name="f_f_idieresis.alt" horiz-adv-x="944" 
d="M326 -164q-67 0 -107 19l25 109h11q24 0 36 10t17 34l86 389h-90l-87 -404q-37 -163 -201 -163q-71 0 -111 19l25 109h17q23 0 35 9.5t17 34.5l86 395h-52l29 131h51l4 15q35 162 214 162q63 0 103 -14l-26 -110h-12q-28 0 -41.5 -8.5t-19.5 -33.5l-3 -11h91l5 23
q37 163 209 163q49 0 90 -15l-27 -114h-5q-22 0 -33.5 -9t-17.5 -33l-4 -15h186q59 0 85.5 -30t13.5 -86l-61 -264q-2 -8 3.5 -16.5t12.5 -8.5h30l-24 -105q-48 -27 -136 -27q-141 0 -110 136l62 270h-90l-87 -398q-37 -163 -199 -163zM789 554q-30 0 -47 17t-17 45
q0 48 25.5 78.5t62.5 30.5q30 0 47.5 -17t17.5 -46q0 -47 -25.5 -77.5t-63.5 -30.5zM949 554q-29 0 -46 17t-17 46q0 47 25.5 77.5t62.5 30.5q30 0 47 -17.5t17 -46.5q0 -47 -25.5 -77t-63.5 -30z" />
    <glyph glyph-name="f_f_iogonek.alt" horiz-adv-x="944" 
d="M326 -164q-67 0 -107 19l25 109h11q24 0 36 10t17 34l86 389h-90l-87 -404q-37 -163 -201 -163q-71 0 -111 19l25 109h17q23 0 35 9.5t17 34.5l86 395h-52l29 131h51l4 15q35 162 214 162q63 0 103 -14l-26 -110h-12q-28 0 -41.5 -8.5t-19.5 -33.5l-3 -11h91l5 23
q20 86 73.5 124.5t141.5 38.5q65 0 104 -15l-27 -114h-18q-25 0 -38.5 -9t-19.5 -33l-4 -15h186q59 0 85.5 -30t13.5 -86l-61 -264q-2 -8 3 -16.5t12 -8.5h31l-24 -105q-71 -43 -71 -73q0 -23 33 -23h21l-19 -77q-28 -14 -68 -14q-47 0 -76 18.5t-29 51.5q0 56 87 90h-17
q-139 3 -107 136l62 270h-90l-87 -398q-37 -163 -199 -163zM850 553q-43 0 -68.5 24t-25.5 61q0 45 31 71.5t76 26.5q43 0 68.5 -23.5t25.5 -59.5q0 -46 -31 -73t-76 -27z" />
    <glyph glyph-name="f_f_imacron.alt" horiz-adv-x="944" 
d="M326 -164q-67 0 -107 19l25 109h11q24 0 36 10t17 34l86 389h-90l-87 -404q-37 -163 -201 -163q-71 0 -111 19l25 109h17q23 0 35 9.5t17 34.5l86 395h-52l29 131h51l4 15q35 162 214 162q63 0 103 -14l-26 -110h-12q-28 0 -41.5 -8.5t-19.5 -33.5l-3 -11h91l5 23
q20 86 72 124.5t137 38.5q55 0 94 -15l-25 -114h-10q-23 0 -34.5 -8.5t-17.5 -33.5l-4 -15h186q59 0 85.5 -30t13.5 -86l-61 -264q-2 -8 3.5 -16.5t12.5 -8.5h30l-24 -105q-48 -27 -136 -27q-141 0 -110 136l62 270h-90l-87 -398q-37 -163 -199 -163zM722 573l28 120h242
l-27 -120h-243z" />
    <glyph glyph-name="zero.num" horiz-adv-x="438" 
d="M242 295q-81 0 -128.5 44.5t-48.5 117.5q-1 47 16.5 94t47.5 79q74 77 180 77q80 0 127 -45.5t48 -119.5q0 -103 -65 -171q-72 -76 -177 -76zM251 393q28 0 47 40q27 61 27 126q0 42 -30 42q-28 0 -45 -39q-28 -60 -28 -127q0 -42 29 -42z" />
    <glyph glyph-name="one.num" horiz-adv-x="293" 
d="M25 303l20 83h37q4 0 10.5 5.5t8.5 9.5l42 178l-39 -20h-27l22 93l116 48h122l-72 -299q-1 -4 2 -9.5t8 -5.5h40l-21 -83h-269z" />
    <glyph glyph-name="two.num" horiz-adv-x="343" 
d="M17 303l15 62q13 52 44.5 84t82.5 58q65 34 76 47q9 10 9 22q0 26 -30 26q-32 0 -53 -30h-75l26 113q59 22 135 22t117.5 -28.5t41.5 -77.5q0 -52 -30.5 -83.5t-85.5 -56.5l-31.5 -14l-27.5 -12t-19.5 -9.5t-16.5 -11t-9 -11.5h76l13 25h90l-30 -125h-318z" />
    <glyph glyph-name="three.num" horiz-adv-x="343" 
d="M179 296q-105 0 -157 29l23 95h76q11 -31 47 -31q19 0 31.5 11t12.5 29q0 28 -37 28h-40l21 83h38q23 0 35 11t12 28q0 26 -33 26q-28 0 -49 -24h-72l26 108q65 18 128 18q75 0 113.5 -25.5t38.5 -71.5q0 -85 -99 -107v-2q73 -14 73 -76q0 -61 -50.5 -95t-137.5 -34z" />
    <glyph glyph-name="four.num" horiz-adv-x="375" 
d="M133 303l20 83h28q4 0 11 5.5t8 9.5l4 15h-161l22 93l210 191h154l-48 -203h40l-18 -81h-42l-3 -15q-1 -4 2.5 -9.5t7.5 -5.5h27l-19 -83h-243zM156 499v-2h75l21 87h-3z" />
    <glyph glyph-name="five.num" horiz-adv-x="345" 
d="M177 295q-97 0 -155 27l23 96h78q12 -29 45 -29q21 0 34 13t13 36q0 31 -33 31q-22 0 -39 -17h-84l60 248h292l-29 -121h-91l-5 21h-85l-17 -72h1q34 26 80 26q52 0 81.5 -26.5t29.5 -74.5q0 -74 -54.5 -116t-144.5 -42z" />
    <glyph glyph-name="six.num" horiz-adv-x="404" 
d="M237 295q-83 0 -128.5 41t-45.5 110q0 104 67 180q71 80 202 80q78 0 130 -19l-25 -102h-70q-17 19 -47 19q-44 0 -69 -41q-10 -16 -18 -38q39 31 98 31q49 0 76.5 -26t27.5 -72q0 -72 -56 -117.5t-142 -45.5zM248 476q-9 0 -29 -6q-4 -24 -4 -49q0 -36 26 -36
q18 0 29.5 18t11.5 44q0 29 -34 29z" />
    <glyph glyph-name="seven.num" horiz-adv-x="335" 
d="M71 303l15 61l207 222v3h-108l-21 -37h-93l36 148h318l-28 -117l-166 -280h-160z" />
    <glyph glyph-name="eight.num" horiz-adv-x="401" 
d="M228 295q-86 0 -134 30.5t-48 78.5q0 43 28 71.5t78 39.5v3q-48 19 -48 64q0 59 52.5 92t134.5 33q75 0 118.5 -28t43.5 -74q0 -73 -85 -93v-2q61 -22 61 -75q0 -64 -54 -102t-147 -38zM232 383q22 0 35.5 18.5t13.5 40.5q0 37 -33 37q-22 0 -35.5 -18.5t-13.5 -42.5
q0 -35 33 -35zM270 542q18 0 28.5 14.5t10.5 33.5q0 30 -27 30q-18 0 -29.5 -15.5t-11.5 -34.5q0 -28 29 -28z" />
    <glyph glyph-name="nine.num" horiz-adv-x="404" 
d="M180 296q-80 0 -132 19l25 102h71q15 -19 49 -19q49 0 73 40q10 15 18 40q-39 -32 -99 -32q-49 0 -77 26t-28 72q0 73 56 117.5t142 44.5q83 0 128 -42.5t45 -113.5q0 -107 -62 -177q-71 -77 -209 -77zM266 526q10 0 30 6q4 23 4 46q0 39 -26 39q-19 0 -30.5 -17.5
t-11.5 -43.5q0 -30 34 -30z" />
    <glyph glyph-name="zero.den" horiz-adv-x="437" 
d="M172 -7q-82 0 -129.5 44.5t-47.5 116.5q-1 47 16.5 94t47.5 79q71 77 180 77q81 0 127.5 -45t46.5 -119q2 -101 -64 -172q-71 -75 -177 -75zM181 90q28 0 46 41q28 58 28 125q0 42 -30 42q-29 0 -46 -39q-28 -63 -28 -127q0 -42 30 -42z" />
    <glyph glyph-name="one.den" horiz-adv-x="293" 
d="M-44 0l20 83h37q5 0 11.5 6t7.5 10l42 178l-38 -21h-28l23 94l115 47h122l-71 -298q-2 -5 1.5 -10.5t7.5 -5.5h40l-20 -83h-270z" />
    <glyph glyph-name="two.den" horiz-adv-x="344" 
d="M-52 0l15 63q12 51 43 83t83 59q3 1 8 4l44 23t23 18t10 24q0 25 -30 25q-34 0 -53 -30h-75l26 113q59 22 135 22q77 0 118 -28t41 -78q0 -52 -30.5 -83.5t-85.5 -56.5l-31.5 -14l-27.5 -12t-19.5 -9.5t-16 -10.5t-8.5 -11h75l13 24h90l-30 -125h-317z" />
    <glyph glyph-name="three.den" horiz-adv-x="342" 
d="M110 -7q-101 0 -157 29l23 95h76q12 -31 47 -31q19 0 31.5 11t12.5 29q0 29 -37 29h-40l20 83h39q23 0 35 11t12 27q0 27 -33 27q-29 0 -49 -25h-72l26 108q65 18 128 18q75 0 113.5 -25.5t38.5 -71.5q0 -83 -99 -107v-2q73 -12 73 -75q0 -62 -50.5 -96t-137.5 -34z" />
    <glyph glyph-name="four.den" horiz-adv-x="376" 
d="M64 0l20 83h29q4 0 10.5 5.5t8.5 10.5l3 14h-161l22 93l210 191h155l-48 -203h40l-19 -81h-41l-3 -14q-2 -5 1.5 -10.5t7.5 -5.5h28l-20 -83h-243zM88 196v-2h74l21 88h-2z" />
    <glyph glyph-name="five.den" horiz-adv-x="345" 
d="M107 -7q-99 0 -155 26l23 96h78q11 -28 45 -28q20 0 33.5 13t13.5 36q0 30 -33 30q-22 0 -39 -17h-84l60 248h292l-29 -120h-91l-5 20h-85l-17 -72h1q32 26 80 26q52 0 81 -26.5t29 -74.5q0 -74 -54 -115.5t-144 -41.5z" />
    <glyph glyph-name="six.den" horiz-adv-x="404" 
d="M167 -7q-82 0 -127.5 41t-45.5 109q0 107 67 181q71 80 201 80q79 0 131 -19l-26 -103h-70q-18 20 -47 20q-42 0 -69 -42q-9 -14 -17 -37q38 30 97 30q49 0 76.5 -25.5t27.5 -71.5q0 -73 -56 -118t-142 -45zM179 174q-12 0 -30 -6q-4 -24 -4 -50q0 -36 26 -36
q18 0 29.5 18.5t11.5 43.5q0 30 -33 30z" />
    <glyph glyph-name="seven.den" horiz-adv-x="336" 
d="M3 0l15 61l206 223v2h-107l-21 -36h-94l37 147h318l-29 -117l-165 -280h-160z" />
    <glyph glyph-name="eight.den" horiz-adv-x="401" 
d="M158 -7q-86 0 -134 30t-48 79q0 43 28 71t78 40v2q-48 19 -48 64q0 60 52 93t135 33q75 0 118 -28t43 -74q0 -74 -85 -94v-2q61 -21 61 -74q0 -65 -53.5 -102.5t-146.5 -37.5zM162 81q22 0 35 18t13 40q0 38 -32 38q-23 0 -36.5 -18.5t-13.5 -42.5q0 -35 34 -35zM199 239
q19 0 29.5 14.5t10.5 33.5q0 30 -28 30q-18 0 -29 -15.5t-11 -34.5q0 -28 28 -28z" />
    <glyph glyph-name="nine.den" horiz-adv-x="404" 
d="M110 -7q-80 0 -131 20l24 101h71q17 -19 49 -19q49 0 73 40q12 18 19 42q-38 -33 -99 -33q-50 0 -77.5 25.5t-27.5 71.5q0 73 56 118t141 45q83 0 128.5 -43t45.5 -113q0 -107 -63 -178q-70 -77 -209 -77zM196 223q12 0 30 7q4 21 4 45q0 39 -26 39q-19 0 -30 -17.5
t-11 -43.5q0 -30 33 -30z" />
    <glyph glyph-name="dollar.tab" 
d="M558 253q0 -99 -63.5 -165.5t-188.5 -80.5l-25 -109h-150l25 109q-87 7 -169 33l39 169h117q9 -38 31.5 -55t67.5 -17q40 0 66 17.5t26 52.5q0 6 -1 11t-3.5 9.5t-5 7.5t-8.5 7t-9.5 6t-12 6t-14 6l-17 6.5t-18.5 7.5q-75 29 -117 68t-42 110q0 100 65 163.5t181 76.5
l18 78h150l-18 -79q63 -7 142 -28l-37 -160h-110q-18 69 -88 69q-43 0 -66.5 -18t-23.5 -50q0 -21 13.5 -31t52.5 -26q5 -2 8 -3q98 -37 141.5 -78t43.5 -113z" />
    <glyph glyph-name="Euro.tab" 
d="M39 363l21 88h36q25 65 63 114q115 146 296 146q117 0 208 -44l-41 -172h-119q-4 35 -16 49t-37 14q-63 0 -108 -107h130l-35 -88h-124l-8 -41h116l-34 -87h-90v-2q0 -48 14.5 -69.5t49.5 -21.5q49 0 86 54h112l-37 -163q-93 -44 -179 -44q-138 0 -208 65t-75 181h-50
l20 87h35q1 8 3.5 23.5t2.5 17.5h-32z" />
    <glyph glyph-name="sterling.tab" 
d="M457 0q-191 0 -290 43q-38 -25 -91 -43h-99l28 123q114 31 118 163h-78l28 121h43q-2 32 -2 49q0 125 81.5 189.5t229.5 64.5q139 0 223 -41l-41 -178h-116q-16 57 -72 57q-59 0 -79 -66q-6 -17 -13 -75h129l-27 -121h-118l-4 -20q-15 -59 -32 -95q54 -12 115 -12l26 58
h138l-50 -217h-47z" />
    <glyph glyph-name="yen.tab" 
d="M47 312l20 87h98l-53 152q-8 21 -25 21h-11l30 128h293l-30 -128h-39l34 -142h2l54 83q17 29 12.5 44t-27.5 15h-2l29 128h264l-30 -128h-12q-22 0 -40 -24l-118 -149h97l-20 -87h-146l-9 -41h146l-20 -87h-146l-7 -32q-2 -9 2.5 -19t12.5 -10h39l-28 -123h-357l28 123
h37q9 0 19.5 10t12.5 19l7 32h-147l20 87h147l9 41h-146z" />
    <glyph glyph-name="zero.tab" 
d="M265 -11q-117 0 -180.5 65.5t-63.5 186.5q0 76 25 164t67 155q97 151 262 151q112 0 173.5 -68t61.5 -185q0 -66 -19 -146t-55 -147q-95 -176 -271 -176zM270 134q22 0 39 21.5t34 79.5q50 167 50 261q0 59 -36 59q-42 0 -69 -93q-20 -69 -37 -152.5t-17 -122.5
q0 -53 36 -53z" />
    <glyph glyph-name="one.tab" 
d="M9 0l28 123h101q8 0 18.5 10t12.5 19l86 374l-105 -45h-37l30 131l212 88h174l-126 -548q-2 -9 2.5 -19t12.5 -10h94l-28 -123h-475z" />
    <glyph glyph-name="two.tab" 
d="M-30 0l23 97q21 91 74 148t146 108l29.5 16.5l29 16t25 14t23.5 15l18 14t16 15.5l11 16t8 18t2 19q0 51 -58 51q-65 0 -103 -56h-115l41 181q98 37 219 37q125 0 190.5 -46t65.5 -135q0 -50 -16.5 -90.5t-49.5 -71.5t-66 -51.5t-81 -43.5l-26 -12.5l-27.5 -13l-26 -12.5
t-26 -13.5l-22.5 -13t-21 -13.5l-17 -13t-14.5 -13.5t-8.5 -13.5h159l29 56h137l-48 -210h-520z" />
    <glyph glyph-name="three.tab" 
d="M236 -11q-160 0 -254 48l36 155h117q20 -55 91 -55q42 0 68 22t26 66q0 58 -79 58h-59l31 134h58q50 0 74.5 22.5t24.5 57.5q0 25 -16.5 40.5t-47.5 15.5q-54 0 -93 -47h-111l39 171q105 34 208 34q122 0 186.5 -45t64.5 -124q0 -157 -172 -189v-4q121 -25 121 -131
q0 -107 -84 -168t-229 -61z" />
    <glyph glyph-name="four.tab" 
d="M159 0l28 123h40q8 0 18.5 10.5t12.5 18.5l7 30h-255l35 156l350 362h220l-89 -383h52l-31 -135h-52l-7 -30q-2 -9 3 -19t13 -10h28l-28 -123h-345zM187 321v-4h116l42 179h-4z" />
    <glyph glyph-name="five.tab" 
d="M232 -11q-150 0 -244 46l36 156h120q9 -26 26.5 -40t53.5 -14q41 0 68 28.5t27 77.5q0 64 -62 64q-43 0 -73 -34h-128l99 427h465l-46 -199h-136l-7 40h-154l-32 -138q53 43 128 43q84 0 133 -46.5t49 -130.5q0 -130 -89.5 -205t-233.5 -75z" />
    <glyph glyph-name="six.tab" 
d="M269 -11q-116 0 -181 60t-65 175q0 92 32.5 187.5t93.5 167.5q112 131 306 131q104 0 184 -32l-37 -159h-103q-8 13 -28 23t-45 10q-75 0 -118 -75q-21 -36 -40 -90q60 60 147 60q71 0 115.5 -43t44.5 -115q0 -135 -86 -217.5t-220 -82.5zM306 314q-28 0 -60 -17
q-12 -66 -12 -99q0 -71 46 -71q34 0 55.5 41t21.5 93q0 53 -51 53z" />
    <glyph glyph-name="seven.tab" 
d="M69 0l21 95l376 435v4h-211l-39 -74h-135l55 240h519l-41 -177l-312 -523h-233z" />
    <glyph glyph-name="eight.tab" 
d="M267 -11q-130 0 -196 51t-66 133q0 78 45 130.5t122 73.5v3q-73 34 -71 117q1 99 81.5 156.5t195.5 57.5q111 0 173.5 -47t62.5 -126q0 -63 -36.5 -106.5t-100.5 -62.5v-4q90 -37 90 -131q0 -113 -82 -179t-218 -66zM343 426q30 0 48 25.5t18 64.5q0 54 -44 54
q-31 0 -50 -27t-19 -64q0 -53 47 -53zM274 130q40 0 63.5 34t23.5 80q0 66 -56 66q-40 0 -63 -33.5t-23 -78.5q0 -68 55 -68z" />
    <glyph glyph-name="nine.tab" 
d="M363 710q116 0 181 -59.5t65 -174.5q0 -94 -30.5 -191t-89.5 -169q-103 -126 -312 -126q-113 0 -188 34l37 153h103q8 -13 30 -23t47 -10q46 0 71.5 16.5t48.5 57.5q12 21 37 91q-60 -60 -147 -60q-70 0 -114.5 44.5t-44.5 117.5q0 132 87.5 215.5t218.5 83.5zM325 382
q28 0 60 17q13 61 13 103q0 70 -43 70q-35 0 -57.5 -41t-22.5 -92q0 -57 50 -57z" />
    <glyph glyph-name="plus.tab" 
d="M54 269l36 153h164l41 177h168l-41 -177h164l-35 -153h-164l-41 -177h-168l41 177h-165z" />
    <glyph glyph-name="minus.tab" 
d="M54 269l36 153h496l-35 -153h-497z" />
    <glyph glyph-name="multiply.tab" 
d="M141 100l-93 111l163 136l-108 133l125 105l108 -134l161 134l92 -111l-162 -135l108 -133l-124 -106l-109 134z" />
    <glyph glyph-name="divide.tab" 
d="M354 444q-42 0 -69 27.5t-25 64.5q3 44 35.5 73t75.5 29q42 0 68.5 -27.5t23.5 -66.5q-2 -42 -34.5 -71t-74.5 -29zM54 269l36 153h496l-35 -153h-497zM269 53q-42 0 -68.5 27.5t-24.5 64.5q3 44 35 73t75 29q42 0 69 -27.5t24 -66.5q-3 -42 -35.5 -71t-74.5 -29z" />
    <glyph glyph-name="less.tab" 
d="M418 78l-326 198l29 123l409 181h53l-37 -162l-230 -90v-3l185 -101l-34 -146h-49z" />
    <glyph glyph-name="equal.tab" 
d="M88 337l34 147h460l-34 -147h-460zM41 133l34 148h460l-34 -148h-460z" />
    <glyph glyph-name="greater.tab" 
d="M50 78l37 162l230 90v3l-185 101l33 146h50l325 -197l-28 -123l-409 -182h-53z" />
    <glyph glyph-name="comma.tab" horiz-adv-x="300" 
d="M-39 -120l18 77q76 11 76 46q0 6 -2.5 10t-10 10t-12.5 11q-22 22 -22 51q0 44 30 73t75 29q42 0 69.5 -26.5t27.5 -73.5q0 -95 -67 -148.5t-182 -58.5z" />
    <glyph glyph-name="period.tab" horiz-adv-x="300" 
d="M107 -7q-42 0 -70 27t-28 64q0 44 31.5 73.5t73.5 29.5q43 0 71 -27.5t28 -65.5q0 -43 -31.5 -72t-74.5 -29z" />
    <glyph glyph-name="colon.tab" horiz-adv-x="300" 
d="M172 275q-41 0 -68.5 26.5t-27.5 62.5q0 43 30.5 72t72.5 29q41 0 68.5 -27t27.5 -64q0 -42 -31 -70.5t-72 -28.5zM107 -7q-41 0 -68.5 26.5t-27.5 62.5q0 43 30.5 72t72.5 29q41 0 68.5 -27t27.5 -64q0 -42 -31 -70.5t-72 -28.5z" />
    <glyph glyph-name="semicolon.tab" horiz-adv-x="300" 
d="M171 275q-41 0 -68.5 26.5t-27.5 62.5q0 43 30.5 72t72.5 29q41 0 68.5 -27t27.5 -64q0 -42 -31 -70.5t-72 -28.5zM-37 -118l18 77q33 4 54 15.5t21 28.5q0 6 -2.5 9.5t-10 9.5t-12.5 11q-21 21 -21 50q0 43 29 71.5t73 28.5q41 0 67.5 -26t26.5 -72q0 -93 -65 -145
t-178 -58z" />
    <glyph glyph-name="percent.tab" horiz-adv-x="800" 
d="M207 323q-67 0 -109 39.5t-41 105.5q1 109 67.5 175t150.5 66q68 0 110.5 -41t41.5 -111q-3 -104 -70 -169t-150 -65zM42 -34l636 763h118l-636 -763h-118zM221 417q24 0 45 53.5t21 105.5q0 38 -26 38q-24 0 -45 -54.5t-21 -106.5q0 -36 26 -36zM563 -9q-67 0 -109 39.5
t-41 105.5q1 109 67.5 175t150.5 66q68 0 110.5 -41t41.5 -111q-3 -104 -70 -169t-150 -65zM577 85q24 0 45 53.5t21 105.5q0 38 -26 38q-24 0 -45 -54.5t-21 -106.5q0 -36 26 -36z" />
    <glyph glyph-name="perthousand.tab" horiz-adv-x="1200" 
d="M207 323q-67 0 -109 39.5t-41 105.5q1 109 67.5 175t150.5 66q68 0 110.5 -41t41.5 -111q-3 -104 -70 -169t-150 -65zM48 -34l636 763h118l-636 -763h-118zM221 417q24 0 45 53.5t21 105.5q0 38 -26 38q-24 0 -45 -54.5t-21 -106.5q0 -36 26 -36zM575 -9q-67 0 -109 39.5
t-41 105.5q1 109 67.5 175t150.5 66q68 0 110.5 -41t41.5 -111q-3 -104 -70 -169t-150 -65zM589 85q24 0 45 53.5t21 105.5q0 38 -26 38q-24 0 -45 -54.5t-21 -106.5q0 -36 26 -36zM963 -9q-67 0 -109 39.5t-41 105.5q1 109 67.5 175t150.5 66q68 0 110.5 -41t41.5 -111
q-3 -104 -70 -169t-150 -65zM977 85q24 0 45 53.5t21 105.5q0 38 -26 38q-24 0 -45 -54.5t-21 -106.5q0 -36 26 -36z" />
    <glyph glyph-name="cent.tab" 
d="M182 -102l24 104q-150 40 -150 197q0 135 73.5 225t199.5 109l18 76h152l-18 -76q64 -8 108 -29l-35 -152h-113q-5 24 -17 36t-38 12q-50 0 -81.5 -64t-31.5 -142q0 -74 60 -74q46 0 78 46h107l-32 -139q-57 -27 -130 -35l-22 -94h-152z" />
    <glyph glyph-name="florin.tab" 
d="M114 319l29 124h68l27 114q36 157 229 157q73 0 120 -15l-27 -114h-37q-30 0 -45.5 -11.5t-22.5 -38.5l-23 -92h95l-29 -124h-96l-57 -235q-17 -71 -57 -114t-110 -70h-134l24 108q25 8 39 26.5t22 54.5l53 230h-68z" />
    <glyph glyph-name="space.tab" horiz-adv-x="300" 
 />
    <glyph glyph-name="idotaccent" horiz-adv-x="329" 
d="M233 553q-44 0 -70 24t-26 61q0 45 31.5 71.5t77.5 26.5q43 0 69 -23.5t26 -60.5q0 -46 -31 -72.5t-77 -26.5zM135 -9q-142 0 -110 136l56 245q2 7 -3 16t-12 9h-32l25 111q76 26 153 26q58 0 84.5 -32.5t13.5 -89.5l-62 -264q-2 -8 3.5 -16.5t12.5 -8.5h31l-24 -105
q-48 -27 -136 -27z" />
    <glyph glyph-name="Racute.alt" horiz-adv-x="717" 
d="M541 -9q-73 0 -107 28.5t-37 96.5l-4 75q-1 44 -16.5 60t-47.5 16h-28l-33 -144h63l-28 -123h-354l28 123h33q8 0 18.5 10.5t12.5 18.5l90 392q2 9 -3.5 18.5t-14.5 9.5h-32l30 128h334q132 0 198 -46t66 -128q0 -76 -48 -125.5t-138 -67.5v-4q41 -12 64.5 -41.5
t36.5 -94.5l10 -52q1 -6 8.5 -12t13.5 -6h20l-25 -110q-48 -22 -110 -22zM364 563l-40 -175h40q107 0 107 111q0 64 -73 64h-34zM340 728l49 143h200l-13 -56l-110 -87h-126z" />
    <glyph glyph-name="Rcommaaccent.alt" horiz-adv-x="717" 
d="M541 -9q-73 0 -107 28.5t-37 96.5l-4 75q-1 44 -16.5 60t-47.5 16h-28l-33 -144h63l-28 -123h-354l28 123h33q8 0 18.5 10.5t12.5 18.5l90 392q2 9 -3.5 18.5t-14.5 9.5h-32l30 128h334q132 0 198 -46t66 -128q0 -76 -48 -125.5t-138 -67.5v-4q41 -12 64.5 -41.5
t36.5 -94.5l10 -52q1 -6 8.5 -12t13.5 -6h20l-25 -110q-48 -22 -110 -22zM364 563l-40 -175h40q107 0 107 111q0 64 -73 64h-34zM179 -237l13 58q57 7 57 28q0 6 -19 23.5t-19 40.5q0 31 22 48.5t54 17.5q35 0 57 -21t22 -55q0 -131 -187 -140z" />
    <glyph glyph-name="Rcaron.alt" horiz-adv-x="717" 
d="M541 -9q-73 0 -107 28.5t-37 96.5l-4 75q-1 44 -16.5 60t-47.5 16h-28l-33 -144h63l-28 -123h-354l28 123h33q8 0 18.5 10.5t12.5 18.5l90 392q2 9 -3.5 18.5t-14.5 9.5h-32l30 128h334q132 0 198 -46t66 -128q0 -76 -48 -125.5t-138 -67.5v-4q41 -12 64.5 -41.5
t36.5 -94.5l10 -52q1 -6 8.5 -12t13.5 -6h20l-25 -110q-48 -22 -110 -22zM364 563l-40 -175h40q107 0 107 111q0 64 -73 64h-34zM347 728l-61 103l9 40h84l52 -48l71 48h90l-9 -40l-94 -103h-142z" />
    <glyph glyph-name="aacute.alt" horiz-adv-x="614" 
d="M437 -9q-99 0 -118 77q-64 -78 -160 -78q-71 0 -113.5 49t-42.5 140q0 79 27 155t77 127q74 77 177 77q96 0 143 -64q46 54 92 54h109l-87 -380q-2 -8 3 -16.5t12 -8.5h26l-23 -105q-49 -27 -122 -27zM293 129q14 0 25 4l58 253q-20 4 -33 4q-56 0 -87.5 -54.5
t-31.5 -139.5q0 -67 69 -67zM304 557l49 143h200l-13 -56l-110 -87h-126z" />
    <glyph glyph-name="agrave.alt" horiz-adv-x="614" 
d="M330 557l-92 87l13 56h172l27 -143h-120zM437 -9q-99 0 -118 77q-64 -78 -160 -78q-71 0 -113.5 49t-42.5 140q0 79 27 155t77 127q74 77 177 77q96 0 143 -64q46 54 92 54h109l-87 -380q-2 -8 3 -16.5t12 -8.5h26l-23 -105q-49 -27 -122 -27zM293 129q14 0 25 4l58 253
q-20 4 -33 4q-56 0 -87.5 -54.5t-31.5 -139.5q0 -67 69 -67z" />
    <glyph glyph-name="acircumflex.alt" horiz-adv-x="614" 
d="M437 -9q-99 0 -118 77q-64 -78 -160 -78q-71 0 -113.5 49t-42.5 140q0 79 27 155t77 127q74 77 177 77q96 0 143 -64q46 54 92 54h109l-87 -380q-2 -8 3 -16.5t12 -8.5h26l-23 -105q-49 -27 -122 -27zM293 129q14 0 25 4l58 253q-20 4 -33 4q-56 0 -87.5 -54.5
t-31.5 -139.5q0 -67 69 -67zM228 557l9 40l94 103h142l61 -103l-9 -40h-84l-52 47l-71 -47h-90z" />
    <glyph glyph-name="adieresis.alt" horiz-adv-x="614" 
d="M437 -9q-99 0 -118 77q-64 -78 -160 -78q-71 0 -113.5 49t-42.5 140q0 79 27 155t77 127q74 77 177 77q96 0 143 -64q46 54 92 54h109l-87 -380q-2 -8 3 -16.5t12 -8.5h26l-23 -105q-49 -27 -122 -27zM293 129q14 0 25 4l58 253q-20 4 -33 4q-56 0 -87.5 -54.5
t-31.5 -139.5q0 -67 69 -67zM489 553q-40 0 -63.5 22.5t-23.5 59.5q0 42 27 66.5t69 24.5q40 0 64 -22.5t24 -57.5q0 -43 -28 -68t-69 -25zM282 553q-40 0 -64 23t-24 59q0 42 27.5 66.5t69.5 24.5q40 0 63.5 -22.5t23.5 -57.5q0 -43 -27.5 -68t-68.5 -25z" />
    <glyph glyph-name="atilde.alt" horiz-adv-x="614" 
d="M205 557l18 77q35 62 108 62q23 0 62.5 -9t51.5 -9q27 0 40 22h89l-18 -77q-38 -63 -109 -63q-23 0 -62.5 10t-51.5 10q-26 0 -39 -23h-89zM437 -9q-99 0 -118 77q-64 -78 -160 -78q-71 0 -113.5 49t-42.5 140q0 79 27 155t77 127q74 77 177 77q96 0 143 -64q46 54 92 54
h109l-87 -380q-2 -8 3 -16.5t12 -8.5h26l-23 -105q-49 -27 -122 -27zM293 129q14 0 25 4l58 253q-20 4 -33 4q-56 0 -87.5 -54.5t-31.5 -139.5q0 -67 69 -67z" />
    <glyph glyph-name="aring.alt" horiz-adv-x="614" 
d="M437 -9q-99 0 -118 77q-64 -78 -160 -78q-71 0 -113.5 49t-42.5 140q0 79 27 155t77 127q74 77 177 77q96 0 143 -64q46 54 92 54h109l-87 -380q-2 -8 3 -16.5t12 -8.5h26l-23 -105q-49 -27 -122 -27zM293 129q14 0 25 4l58 253q-20 4 -33 4q-56 0 -87.5 -54.5
t-31.5 -139.5q0 -67 69 -67zM391 558q-45 0 -75 27t-30 70q0 51 33.5 80t80.5 29q44 0 74 -27t30 -70q0 -51 -33.5 -80t-79.5 -29zM392 612q22 0 36 14t14 39q0 21 -12 33.5t-33 12.5t-34.5 -14.5t-13.5 -40.5q0 -20 11.5 -32t31.5 -12z" />
    <glyph glyph-name="aogonek.alt" horiz-adv-x="614" 
d="M582 123l-23 -105q-71 -43 -71 -73q0 -23 33 -23h21l-19 -77q-28 -14 -68 -14q-47 0 -76 18.5t-29 51.5q0 56 87 90q-99 0 -118 77q-64 -78 -160 -78q-71 0 -113.5 49t-42.5 140q0 79 27 155t77 127q74 77 177 77q96 0 143 -64q46 54 92 54h109l-87 -380q-2 -8 3 -16.5
t12 -8.5h26zM293 129q14 0 25 4l58 253q-20 4 -33 4q-56 0 -87.5 -54.5t-31.5 -139.5q0 -67 69 -67z" />
    <glyph glyph-name="amacron.alt" horiz-adv-x="614" 
d="M238 573l28 120h285l-28 -120h-285zM437 -9q-99 0 -118 77q-64 -78 -160 -78q-71 0 -113.5 49t-42.5 140q0 79 27 155t77 127q74 77 177 77q96 0 143 -64q46 54 92 54h109l-87 -380q-2 -8 3 -16.5t12 -8.5h26l-23 -105q-49 -27 -122 -27zM293 129q14 0 25 4l58 253
q-20 4 -33 4q-56 0 -87.5 -54.5t-31.5 -139.5q0 -67 69 -67z" />
    <glyph glyph-name="abreve.alt" horiz-adv-x="614" 
d="M387 556q-113 0 -140 88l13 56h92q0 -35 38 -35t50 35h100l-16 -69q-17 -32 -52 -53.5t-85 -21.5zM437 -9q-99 0 -118 77q-64 -78 -160 -78q-71 0 -113.5 49t-42.5 140q0 79 27 155t77 127q74 77 177 77q96 0 143 -64q46 54 92 54h109l-87 -380q-2 -8 3 -16.5t12 -8.5h26
l-23 -105q-49 -27 -122 -27zM293 129q14 0 25 4l58 253q-20 4 -33 4q-56 0 -87.5 -54.5t-31.5 -139.5q0 -67 69 -67z" />
    <glyph glyph-name="gcircumflex.alt" horiz-adv-x="609" 
d="M225 557l9 40l94 103h142l61 -103l-9 -40h-84l-52 47l-71 -47h-90zM192 -172q-152 0 -225 32l33 138h125q17 -38 74 -38q91 0 110 87l10 46q-63 -63 -152 -63q-77 0 -119 44.5t-42 125.5q0 69 24.5 136.5t68.5 116.5q75 85 187 85q91 0 136 -71q43 61 91 61h125
l-115 -499q-23 -99 -102 -150t-229 -51zM296 143q16 0 37 8l53 231q-20 8 -42 8q-51 0 -84 -52t-33 -122q0 -38 16.5 -54.5t52.5 -18.5z" />
    <glyph glyph-name="gbreve.alt" horiz-adv-x="609" 
d="M385 556q-113 0 -140 88l13 56h92q0 -35 38 -35t50 35h100l-16 -69q-17 -32 -52 -53.5t-85 -21.5zM192 -172q-152 0 -225 32l33 138h125q17 -38 74 -38q91 0 110 87l10 46q-63 -63 -152 -63q-77 0 -119 44.5t-42 125.5q0 69 24.5 136.5t68.5 116.5q75 85 187 85
q91 0 136 -71q43 61 91 61h125l-115 -499q-23 -99 -102 -150t-229 -51zM296 143q16 0 37 8l53 231q-20 8 -42 8q-51 0 -84 -52t-33 -122q0 -38 16.5 -54.5t52.5 -18.5z" />
    <glyph glyph-name="gdotaccent.alt" horiz-adv-x="609" 
d="M384 558q-42 0 -67.5 23.5t-25.5 60.5q0 45 30 71.5t74 26.5q42 0 67.5 -23.5t25.5 -60.5q0 -46 -30 -72t-74 -26zM192 -172q-152 0 -225 32l33 138h125q17 -38 74 -38q91 0 110 87l10 46q-63 -63 -152 -63q-77 0 -119 44.5t-42 125.5q0 69 24.5 136.5t68.5 116.5
q75 85 187 85q91 0 136 -71q43 61 91 61h125l-115 -499q-23 -99 -102 -150t-229 -51zM296 143q16 0 37 8l53 231q-20 8 -42 8q-51 0 -84 -52t-33 -122q0 -38 16.5 -54.5t52.5 -18.5z" />
    <glyph glyph-name="gcommaaccent.alt" horiz-adv-x="609" 
d="M358 558q-35 0 -56.5 21t-21.5 55q0 132 186 140l-13 -58q-57 -6 -57 -28q0 -6 19 -23t19 -40q0 -32 -22 -49.5t-54 -17.5zM192 -172q-152 0 -225 32l33 138h125q17 -38 74 -38q91 0 110 87l10 46q-63 -63 -152 -63q-77 0 -119 44.5t-42 125.5q0 69 24.5 136.5
t68.5 116.5q75 85 187 85q91 0 136 -71q43 61 91 61h125l-115 -499q-23 -99 -102 -150t-229 -51zM296 143q16 0 37 8l53 231q-20 8 -42 8q-51 0 -84 -52t-33 -122q0 -38 16.5 -54.5t52.5 -18.5z" />
    <glyph glyph-name="yacute.alt" horiz-adv-x="565" 
d="M-36 -162l25 109q98 20 156 62l-67 367q-2 8 -7 14.5t-11 6.5h-26l25 111q61 27 129 27q45 0 67.5 -23.5t30.5 -77.5l29 -232q82 154 110 326h184l-27 -118q-43 -104 -85 -177.5t-119 -170.5q-68 -84 -121.5 -132.5t-123.5 -91.5h-169zM273 557l49 143h200l-13 -56
l-110 -87h-126z" />
    <glyph glyph-name="ydieresis.alt" horiz-adv-x="565" 
d="M-36 -162l25 109q98 20 156 62l-67 367q-2 8 -7 14.5t-11 6.5h-26l25 111q61 27 129 27q45 0 67.5 -23.5t30.5 -77.5l29 -232q82 154 110 326h184l-27 -118q-43 -104 -85 -177.5t-119 -170.5q-68 -84 -121.5 -132.5t-123.5 -91.5h-169zM464 553q-40 0 -63.5 22.5
t-23.5 59.5q0 42 27 66.5t69 24.5q40 0 64 -22.5t24 -57.5q0 -43 -28 -68t-69 -25zM257 553q-40 0 -64 23t-24 59q0 42 27.5 66.5t69.5 24.5q40 0 63.5 -22.5t23.5 -57.5q0 -43 -27.5 -68t-68.5 -25z" />
    <glyph glyph-name="zcaron.alt" horiz-adv-x="503" 
d="M340 -10q-45 0 -115 21.5t-96 21.5q-43 0 -67 -33h-106l27 122l277 224v4q-21 0 -48.5 1.5t-38.5 1.5q-26 0 -36 -23h-107l45 193q44 14 91 14q42 0 116 -19t101 -19q41 0 64 29h105l-26 -114l-284 -239v-4q16 0 42 -2t40 -2q28 0 44 27h107l-42 -182q-42 -22 -93 -22z
M251 557l-61 103l9 40h84l52 -48l71 48h90l-9 -40l-94 -103h-142z" />
    <glyph glyph-name="zacute.alt" horiz-adv-x="503" 
d="M340 -10q-45 0 -115 21.5t-96 21.5q-43 0 -67 -33h-106l27 122l277 224v4q-21 0 -48.5 1.5t-38.5 1.5q-26 0 -36 -23h-107l45 193q44 14 91 14q42 0 116 -19t101 -19q41 0 64 29h105l-26 -114l-284 -239v-4q16 0 42 -2t40 -2q28 0 44 27h107l-42 -182q-42 -22 -93 -22z
M242 557l49 143h200l-13 -56l-110 -87h-126z" />
    <glyph glyph-name="zdotaccent.alt" horiz-adv-x="503" 
d="M324 558q-42 0 -67.5 23.5t-25.5 60.5q0 45 30 71.5t74 26.5q42 0 67.5 -23.5t25.5 -60.5q0 -46 -30 -72t-74 -26zM340 -10q-45 0 -115 21.5t-96 21.5q-43 0 -67 -33h-106l27 122l277 224v4q-21 0 -48.5 1.5t-38.5 1.5q-26 0 -36 -23h-107l45 193q44 14 91 14
q42 0 116 -19t101 -19q41 0 64 29h105l-26 -114l-284 -239v-4q16 0 42 -2t40 -2q28 0 44 27h107l-42 -182q-42 -22 -93 -22z" />
    <glyph glyph-name="Scaron.titling" horiz-adv-x="555" 
d="M245 -11q-66 0 -136 11h-155l50 220h150l4 -87q24 -8 61 -8q43 0 68 17.5t25 50.5q0 15 -4.5 25t-19 20t-26 15l-40.5 18q-37 15 -60.5 28t-49 35t-37.5 53t-12 73q0 116 77.5 183.5t212.5 67.5q72 0 134 -11h130l-48 -203h-145l-5 78q-24 8 -54 8q-42 0 -66 -17.5
t-24 -50.5q0 -25 14.5 -38t48.5 -28q53 -21 86 -38.5t60 -41.5t38.5 -55.5t11.5 -73.5q0 -113 -74 -182t-215 -69zM296 726l-61 103l9 40h84l52 -48l71 48h90l-9 -40l-94 -103h-142z" />
    <glyph glyph-name="Yacute.titling" horiz-adv-x="690" 
d="M387 721l49 143h200l-13 -56l-110 -87h-126zM108 0l29 123h36q9 0 19.5 10t12.5 19l28 122l-112 277q-8 21 -24 21h-16l30 128h328l-30 -128h-61l59 -164h3l76 102q21 29 15.5 45.5t-35.5 16.5h-13l29 128h297l-30 -128h-11q-20 0 -45 -29l-228 -277l-26 -114
q-2 -9 2.5 -19t13.5 -10h38l-28 -123h-357z" />
    <glyph glyph-name="Zcaron.titling" horiz-adv-x="589" 
d="M340 721l-61 103l9 40h84l52 -48l71 48h90l-9 -40l-94 -103h-142zM-51 0l36 153l395 405v4h-131l-39 -84h-135l51 222h549l-37 -157l-395 -405v-4h142l43 98h142l-54 -232h-567z" />
    <glyph glyph-name="Adieresis.titling" horiz-adv-x="752" 
d="M565 717q-40 0 -63.5 22.5t-23.5 59.5q0 42 27 66.5t69 24.5q40 0 64 -22.5t24 -57.5q0 -43 -28 -68t-69 -25zM358 717q-40 0 -64 23t-24 59q0 42 27.5 66.5t69.5 24.5q40 0 63.5 -22.5t23.5 -57.5q0 -43 -27.5 -68t-68.5 -25zM-51 0l28 123h12q28 0 45 31l227 391
q6 8 2.5 17.5t-12.5 9.5h-35l29 128h377l45 -554q1 -8 9 -15.5t15 -7.5h17l-29 -123h-354l28 123h79l-5 91h-192q-25 -45 -22.5 -68t38.5 -23h25l-28 -123h-299zM408 528l-115 -208h128l-11 208h-2z" />
    <glyph glyph-name="Aring.titling" horiz-adv-x="752" 
d="M467 722q-45 0 -75 27t-30 70q0 51 33.5 80t80.5 29q44 0 74 -27t30 -70q0 -51 -33.5 -80t-79.5 -29zM468 776q22 0 36 14t14 39q0 21 -12 33.5t-33 12.5t-34.5 -14.5t-13.5 -40.5q0 -20 11.5 -32t31.5 -12zM-51 0l28 123h12q28 0 45 31l227 391q6 8 2.5 17.5t-12.5 9.5
h-35l29 128h377l45 -554q1 -8 9 -15.5t15 -7.5h17l-29 -123h-354l28 123h79l-5 91h-192q-25 -45 -22.5 -68t38.5 -23h25l-28 -123h-299zM408 528l-115 -208h128l-11 208h-2z" />
    <glyph glyph-name="Eacute.titling" horiz-adv-x="623" 
d="M339 721l49 143h200l-13 -56l-110 -87h-126zM-51 0l28 123h33q8 0 18.5 10.5t12.5 18.5l90 392q2 9 -2.5 18.5t-13.5 9.5h-34l30 128h587l-53 -227h-132l-3 89h-141l-31 -135h157l-33 -140h-157l-35 -153h148l43 106h142l-55 -240h-599z" />
    <glyph glyph-name="Ntilde.titling" horiz-adv-x="727" 
d="M-51 0l28 123h33q8 0 18.5 10.5t12.5 18.5l90 392q2 9 -2.5 18.5t-13.5 9.5h-34l30 128h282l116 -373h3l57 245h-61l30 128h282l-30 -128h-29q-9 0 -19 -9.5t-12 -18.5l-125 -544h-197l-137 414h-3l-67 -291h64l-28 -123h-288zM295 721l18 77q35 62 108 62q23 0 62.5 -9
t51.5 -9q27 0 40 22h89l-18 -77q-38 -63 -109 -63q-23 0 -62.5 10t-51.5 10q-26 0 -39 -23h-89z" />
    <glyph glyph-name="Odieresis.titling" horiz-adv-x="737" 
d="M345 -11q-150 0 -235 76.5t-85 210.5q0 187 122 310.5t294 123.5q142 0 226.5 -77.5t84.5 -210.5q0 -192 -117.5 -312.5t-289.5 -120.5zM355 136q71 0 117 87.5t46 200.5q0 129 -96 129q-72 0 -117.5 -86t-45.5 -203q0 -128 96 -128zM572 722q-40 0 -63.5 22.5
t-23.5 59.5q0 42 27 66.5t69 24.5q40 0 64 -22.5t24 -57.5q0 -43 -28 -68t-69 -25zM365 722q-40 0 -64 23t-24 59q0 42 27.5 66.5t69.5 24.5q40 0 63.5 -22.5t23.5 -57.5q0 -43 -27.5 -68t-68.5 -25z" />
    <glyph glyph-name="Udieresis.titling" horiz-adv-x="726" 
d="M344 -8q-174 0 -242 74t-37 207l62 271q2 9 -2.5 18.5t-13.5 9.5h-30l29 128h356l-30 -128h-68l-76 -328q-25 -107 81 -107q48 0 72.5 24t36.5 79l76 332h-69l30 128h297l-30 -128h-28q-9 0 -19 -9.5t-12 -18.5l-72 -311q-29 -124 -104.5 -182.5t-206.5 -58.5zM603 717
q-40 0 -63.5 22.5t-23.5 59.5q0 42 27 66.5t69 24.5q40 0 64 -22.5t24 -57.5q0 -43 -28 -68t-69 -25zM396 717q-40 0 -64 23t-24 59q0 42 27.5 66.5t69.5 24.5q40 0 63.5 -22.5t23.5 -57.5q0 -43 -27.5 -68t-68.5 -25z" />
    <glyph glyph-name="Agrave.titling" horiz-adv-x="752" 
d="M404 721l-92 87l13 56h172l27 -143h-120zM-51 0l28 123h12q28 0 45 31l227 391q6 8 2.5 17.5t-12.5 9.5h-35l29 128h377l45 -554q1 -8 9 -15.5t15 -7.5h17l-29 -123h-354l28 123h79l-5 91h-192q-25 -45 -22.5 -68t38.5 -23h25l-28 -123h-299zM408 528l-115 -208h128
l-11 208h-2z" />
    <glyph glyph-name="Atilde.titling" horiz-adv-x="752" 
d="M-51 0l28 123h12q28 0 45 31l227 391q6 8 2.5 17.5t-12.5 9.5h-35l29 128h377l45 -554q1 -8 9 -15.5t15 -7.5h17l-29 -123h-354l28 123h79l-5 91h-192q-25 -45 -22.5 -68t38.5 -23h25l-28 -123h-299zM408 528l-115 -208h128l-11 208h-2zM279 721l18 77q35 62 108 62
q23 0 62.5 -9t51.5 -9q27 0 40 22h89l-18 -77q-38 -63 -109 -63q-23 0 -62.5 10t-51.5 10q-26 0 -39 -23h-89z" />
    <glyph glyph-name="Otilde.titling" horiz-adv-x="737" 
d="M286 726l18 77q35 62 108 62q23 0 62.5 -9t51.5 -9q27 0 40 22h89l-18 -77q-38 -63 -109 -63q-23 0 -62.5 10t-51.5 10q-26 0 -39 -23h-89zM345 -11q-150 0 -235 76.5t-85 210.5q0 187 122 310.5t294 123.5q142 0 226.5 -77.5t84.5 -210.5q0 -192 -117.5 -312.5
t-289.5 -120.5zM355 136q71 0 117 87.5t46 200.5q0 129 -96 129q-72 0 -117.5 -86t-45.5 -203q0 -128 96 -128z" />
    <glyph glyph-name="Acircumflex.titling" horiz-adv-x="752" 
d="M-51 0l28 123h12q28 0 45 31l227 391q6 8 2.5 17.5t-12.5 9.5h-35l29 128h377l45 -554q1 -8 9 -15.5t15 -7.5h17l-29 -123h-354l28 123h79l-5 91h-192q-25 -45 -22.5 -68t38.5 -23h25l-28 -123h-299zM408 528l-115 -208h128l-11 208h-2zM298 721l9 40l94 103h142l61 -103
l-9 -40h-84l-52 47l-71 -47h-90z" />
    <glyph glyph-name="Ecircumflex.titling" horiz-adv-x="623" 
d="M-51 0l28 123h33q8 0 18.5 10.5t12.5 18.5l90 392q2 9 -2.5 18.5t-13.5 9.5h-34l30 128h587l-53 -227h-132l-3 89h-141l-31 -135h157l-33 -140h-157l-35 -153h148l43 106h142l-55 -240h-599zM267 721l9 40l94 103h142l61 -103l-9 -40h-84l-52 47l-71 -47h-90z" />
    <glyph glyph-name="Aacute.titling" horiz-adv-x="752" 
d="M-51 0l28 123h12q28 0 45 31l227 391q6 8 2.5 17.5t-12.5 9.5h-35l29 128h377l45 -554q1 -8 9 -15.5t15 -7.5h17l-29 -123h-354l28 123h79l-5 91h-192q-25 -45 -22.5 -68t38.5 -23h25l-28 -123h-299zM408 528l-115 -208h128l-11 208h-2zM378 721l49 143h200l-13 -56
l-110 -87h-126z" />
    <glyph glyph-name="Edieresis.titling" horiz-adv-x="623" 
d="M-51 0l28 123h33q8 0 18.5 10.5t12.5 18.5l90 392q2 9 -2.5 18.5t-13.5 9.5h-34l30 128h587l-53 -227h-132l-3 89h-141l-31 -135h157l-33 -140h-157l-35 -153h148l43 106h142l-55 -240h-599zM534 717q-40 0 -63.5 22.5t-23.5 59.5q0 42 27 66.5t69 24.5q40 0 64 -22.5
t24 -57.5q0 -43 -28 -68t-69 -25zM327 717q-40 0 -64 23t-24 59q0 42 27.5 66.5t69.5 24.5q40 0 63.5 -22.5t23.5 -57.5q0 -43 -27.5 -68t-68.5 -25z" />
    <glyph glyph-name="Egrave.titling" horiz-adv-x="623" 
d="M369 721l-92 87l13 56h172l27 -143h-120zM-51 0l28 123h33q8 0 18.5 10.5t12.5 18.5l90 392q2 9 -2.5 18.5t-13.5 9.5h-34l30 128h587l-53 -227h-132l-3 89h-141l-31 -135h157l-33 -140h-157l-35 -153h148l43 106h142l-55 -240h-599z" />
    <glyph glyph-name="Iacute.titling" horiz-adv-x="376" 
d="M217 721l49 143h200l-13 -56l-110 -87h-126zM-51 0l28 123h38q8 0 18.5 10.5t12.5 18.5l90 392q2 9 -2.5 18.5t-13.5 9.5h-39l30 128h357l-29 -128h-38q-9 0 -18.5 -9.5t-11.5 -18.5l-91 -392q-2 -9 3 -19t13 -10h39l-28 -123h-358z" />
    <glyph glyph-name="Icircumflex.titling" horiz-adv-x="376" 
d="M145 721l9 40l94 103h142l61 -103l-9 -40h-84l-52 47l-71 -47h-90zM-51 0l28 123h38q8 0 18.5 10.5t12.5 18.5l90 392q2 9 -2.5 18.5t-13.5 9.5h-39l30 128h357l-29 -128h-38q-9 0 -18.5 -9.5t-11.5 -18.5l-91 -392q-2 -9 3 -19t13 -10h39l-28 -123h-358z" />
    <glyph glyph-name="Idieresis.titling" horiz-adv-x="376" 
d="M409 717q-40 0 -63.5 22.5t-23.5 59.5q0 42 27 66.5t69 24.5q40 0 64 -22.5t24 -57.5q0 -43 -28 -68t-69 -25zM202 717q-40 0 -64 23t-24 59q0 42 27.5 66.5t69.5 24.5q40 0 63.5 -22.5t23.5 -57.5q0 -43 -27.5 -68t-68.5 -25zM-51 0l28 123h38q8 0 18.5 10.5t12.5 18.5
l90 392q2 9 -2.5 18.5t-13.5 9.5h-39l30 128h357l-29 -128h-38q-9 0 -18.5 -9.5t-11.5 -18.5l-91 -392q-2 -9 3 -19t13 -10h39l-28 -123h-358z" />
    <glyph glyph-name="Igrave.titling" horiz-adv-x="376" 
d="M245 721l-92 87l13 56h172l27 -143h-120zM-51 0l28 123h38q8 0 18.5 10.5t12.5 18.5l90 392q2 9 -2.5 18.5t-13.5 9.5h-39l30 128h357l-29 -128h-38q-9 0 -18.5 -9.5t-11.5 -18.5l-91 -392q-2 -9 3 -19t13 -10h39l-28 -123h-358z" />
    <glyph glyph-name="Oacute.titling" horiz-adv-x="737" 
d="M345 -11q-150 0 -235 76.5t-85 210.5q0 187 122 310.5t294 123.5q142 0 226.5 -77.5t84.5 -210.5q0 -192 -117.5 -312.5t-289.5 -120.5zM355 136q71 0 117 87.5t46 200.5q0 129 -96 129q-72 0 -117.5 -86t-45.5 -203q0 -128 96 -128zM381 726l49 143h200l-13 -56
l-110 -87h-126z" />
    <glyph glyph-name="Ocircumflex.titling" horiz-adv-x="737" 
d="M345 -11q-150 0 -235 76.5t-85 210.5q0 187 122 310.5t294 123.5q142 0 226.5 -77.5t84.5 -210.5q0 -192 -117.5 -312.5t-289.5 -120.5zM355 136q71 0 117 87.5t46 200.5q0 129 -96 129q-72 0 -117.5 -86t-45.5 -203q0 -128 96 -128zM304 726l9 40l94 103h142l61 -103
l-9 -40h-84l-52 47l-71 -47h-90z" />
    <glyph glyph-name="Ograve.titling" horiz-adv-x="737" 
d="M407 726l-92 87l13 56h172l27 -143h-120zM345 -11q-150 0 -235 76.5t-85 210.5q0 187 122 310.5t294 123.5q142 0 226.5 -77.5t84.5 -210.5q0 -192 -117.5 -312.5t-289.5 -120.5zM355 136q71 0 117 87.5t46 200.5q0 129 -96 129q-72 0 -117.5 -86t-45.5 -203
q0 -128 96 -128z" />
    <glyph glyph-name="Uacute.titling" horiz-adv-x="726" 
d="M344 -8q-174 0 -242 74t-37 207l62 271q2 9 -2.5 18.5t-13.5 9.5h-30l29 128h356l-30 -128h-68l-76 -328q-25 -107 81 -107q48 0 72.5 24t36.5 79l76 332h-69l30 128h297l-30 -128h-28q-9 0 -19 -9.5t-12 -18.5l-72 -311q-29 -124 -104.5 -182.5t-206.5 -58.5zM413 721
l49 143h200l-13 -56l-110 -87h-126z" />
    <glyph glyph-name="Ucircumflex.titling" horiz-adv-x="726" 
d="M341 721l9 40l94 103h142l61 -103l-9 -40h-84l-52 47l-71 -47h-90zM344 -8q-174 0 -242 74t-37 207l62 271q2 9 -2.5 18.5t-13.5 9.5h-30l29 128h356l-30 -128h-68l-76 -328q-25 -107 81 -107q48 0 72.5 24t36.5 79l76 332h-69l30 128h297l-30 -128h-28q-9 0 -19 -9.5
t-12 -18.5l-72 -311q-29 -124 -104.5 -182.5t-206.5 -58.5z" />
    <glyph glyph-name="Ugrave.titling" horiz-adv-x="726" 
d="M442 721l-92 87l13 56h172l27 -143h-120zM344 -8q-174 0 -242 74t-37 207l62 271q2 9 -2.5 18.5t-13.5 9.5h-30l29 128h356l-30 -128h-68l-76 -328q-25 -107 81 -107q48 0 72.5 24t36.5 79l76 332h-69l30 128h297l-30 -128h-28q-9 0 -19 -9.5t-12 -18.5l-72 -311
q-29 -124 -104.5 -182.5t-206.5 -58.5z" />
    <glyph glyph-name="Ydieresis.titling" horiz-adv-x="690" 
d="M108 0l29 123h36q9 0 19.5 10t12.5 19l28 122l-112 277q-8 21 -24 21h-16l30 128h328l-30 -128h-61l59 -164h3l76 102q21 29 15.5 45.5t-35.5 16.5h-13l29 128h297l-30 -128h-11q-20 0 -45 -29l-228 -277l-26 -114q-2 -9 2.5 -19t13.5 -10h38l-28 -123h-357zM578 717
q-40 0 -63.5 22.5t-23.5 59.5q0 42 27 66.5t69 24.5q40 0 64 -22.5t24 -57.5q0 -43 -28 -68t-69 -25zM371 717q-40 0 -64 23t-24 59q0 42 27.5 66.5t69.5 24.5q40 0 63.5 -22.5t23.5 -57.5q0 -43 -27.5 -68t-68.5 -25z" />
    <glyph glyph-name="Amacron.titling" horiz-adv-x="752" 
d="M308 737l28 120h285l-28 -120h-285zM-51 0l28 123h12q28 0 45 31l227 391q6 8 2.5 17.5t-12.5 9.5h-35l29 128h377l45 -554q1 -8 9 -15.5t15 -7.5h17l-29 -123h-354l28 123h79l-5 91h-192q-25 -45 -22.5 -68t38.5 -23h25l-28 -123h-299zM408 528l-115 -208h128l-11 208
h-2z" />
    <glyph glyph-name="Abreve.titling" horiz-adv-x="752" 
d="M467 720q-113 0 -140 88l13 56h92q0 -35 38 -35t50 35h100l-16 -69q-17 -32 -52 -53.5t-85 -21.5zM-51 0l28 123h12q28 0 45 31l227 391q6 8 2.5 17.5t-12.5 9.5h-35l29 128h377l45 -554q1 -8 9 -15.5t15 -7.5h17l-29 -123h-354l28 123h79l-5 91h-192q-25 -45 -22.5 -68
t38.5 -23h25l-28 -123h-299zM408 528l-115 -208h128l-11 208h-2z" />
    <glyph glyph-name="Cacute.titling" horiz-adv-x="632" 
d="M337 -11q-154 0 -233 72t-79 200q0 192 115 321t290 129q72 0 118 -11h169l-58 -250h-145l-5 100q-22 8 -50 8q-84 0 -139.5 -82t-55.5 -214q0 -120 98 -120q69 0 129 67h115l-36 -161q-105 -59 -233 -59zM373 726l49 143h200l-13 -56l-110 -87h-126z" />
    <glyph glyph-name="Ccircumflex.titling" horiz-adv-x="632" 
d="M337 -11q-154 0 -233 72t-79 200q0 192 115 321t290 129q72 0 118 -11h169l-58 -250h-145l-5 100q-22 8 -50 8q-84 0 -139.5 -82t-55.5 -214q0 -120 98 -120q69 0 129 67h115l-36 -161q-105 -59 -233 -59zM308 726l9 40l94 103h142l61 -103l-9 -40h-84l-52 47l-71 -47
h-90z" />
    <glyph glyph-name="Cdotaccent.titling" horiz-adv-x="632" 
d="M463 727q-42 0 -67.5 23.5t-25.5 60.5q0 45 30 71.5t74 26.5q42 0 67.5 -23.5t25.5 -60.5q0 -45 -30 -71.5t-74 -26.5zM337 -11q-154 0 -233 72t-79 200q0 192 115 321t290 129q72 0 118 -11h169l-58 -250h-145l-5 100q-22 8 -50 8q-84 0 -139.5 -82t-55.5 -214
q0 -120 98 -120q69 0 129 67h115l-36 -161q-105 -59 -233 -59z" />
    <glyph glyph-name="Ccaron.titling" horiz-adv-x="632" 
d="M337 -11q-154 0 -233 72t-79 200q0 192 115 321t290 129q72 0 118 -11h169l-58 -250h-145l-5 100q-22 8 -50 8q-84 0 -139.5 -82t-55.5 -214q0 -120 98 -120q69 0 129 67h115l-36 -161q-105 -59 -233 -59zM389 726l-61 103l9 40h84l52 -48l71 48h90l-9 -40l-94 -103h-142
z" />
    <glyph glyph-name="Dcaron.titling" horiz-adv-x="736" 
d="M-51 0l28 123h29q9 0 21 10.5t14 18.5l90 392q2 8 -4.5 18t-14.5 10h-31l30 128h300q162 0 250 -74.5t88 -210.5q0 -88 -28.5 -163t-84 -131.5t-144 -88.5t-201.5 -32h-342zM270 129h36q95 0 151 80t56 215q0 68 -31 103.5t-88 35.5h-25zM342 721l-61 103l9 40h84l52 -48
l71 48h90l-9 -40l-94 -103h-142z" />
    <glyph glyph-name="Emacron.titling" horiz-adv-x="623" 
d="M273 737l28 120h285l-28 -120h-285zM-51 0l28 123h33q8 0 18.5 10.5t12.5 18.5l90 392q2 9 -2.5 18.5t-13.5 9.5h-34l30 128h587l-53 -227h-132l-3 89h-141l-31 -135h157l-33 -140h-157l-35 -153h148l43 106h142l-55 -240h-599z" />
    <glyph glyph-name="Edotaccent.titling" horiz-adv-x="623" 
d="M425 722q-42 0 -67.5 23.5t-25.5 60.5q0 45 30 71.5t74 26.5q42 0 67.5 -23.5t25.5 -60.5q0 -46 -30 -72t-74 -26zM-51 0l28 123h33q8 0 18.5 10.5t12.5 18.5l90 392q2 9 -2.5 18.5t-13.5 9.5h-34l30 128h587l-53 -227h-132l-3 89h-141l-31 -135h157l-33 -140h-157
l-35 -153h148l43 106h142l-55 -240h-599z" />
    <glyph glyph-name="Ecaron.titling" horiz-adv-x="623" 
d="M348 721l-61 103l9 40h84l52 -48l71 48h90l-9 -40l-94 -103h-142zM-51 0l28 123h33q8 0 18.5 10.5t12.5 18.5l90 392q2 9 -2.5 18.5t-13.5 9.5h-34l30 128h587l-53 -227h-132l-3 89h-141l-31 -135h157l-33 -140h-157l-35 -153h148l43 106h142l-55 -240h-599z" />
    <glyph glyph-name="Ebreve.titling" horiz-adv-x="619" 
d="M-51 0l28 123h33q8 0 18.5 10.5t12.5 18.5l90 392q2 9 -2.5 18.5t-13.5 9.5h-34l30 128h587l-53 -227h-132l-3 89h-141l-31 -135h157l-33 -140h-157l-35 -153h148l43 106h142l-55 -240h-599zM418 725q-113 0 -140 88l13 56h92q0 -35 38 -35t50 35h100l-16 -69
q-17 -32 -52 -53.5t-85 -21.5z" />
    <glyph glyph-name="Gcircumflex.titling" horiz-adv-x="697" 
d="M307 -11q-135 0 -208.5 71.5t-73.5 193.5q0 193 116.5 324.5t303.5 131.5q65 0 115 -10h167l-56 -243h-146l-7 92q-22 9 -54 9q-87 0 -142.5 -89.5t-56.5 -220.5q0 -59 20 -86.5t65 -27.5q22 0 47 7l21 95h-49l28 122h314l-29 -125h-18q-9 0 -19 -9.5t-12 -18.5l-47 -205
h-117q-5 20 -23 20q-60 -31 -139 -31zM315 726l9 40l94 103h142l61 -103l-9 -40h-84l-52 47l-71 -47h-90z" />
    <glyph glyph-name="Gbreve.titling" horiz-adv-x="697" 
d="M307 -11q-135 0 -208.5 71.5t-73.5 193.5q0 193 116.5 324.5t303.5 131.5q65 0 115 -10h167l-56 -243h-146l-7 92q-22 9 -54 9q-87 0 -142.5 -89.5t-56.5 -220.5q0 -59 20 -86.5t65 -27.5q22 0 47 7l21 95h-49l28 122h314l-29 -125h-18q-9 0 -19 -9.5t-12 -18.5l-47 -205
h-117q-5 20 -23 20q-60 -31 -139 -31zM481 725q-113 0 -140 88l13 56h92q0 -35 38 -35t50 35h100l-16 -69q-17 -32 -52 -53.5t-85 -21.5z" />
    <glyph glyph-name="Gdotaccent.titling" horiz-adv-x="697" 
d="M474 727q-42 0 -67.5 23.5t-25.5 60.5q0 45 30 71.5t74 26.5q42 0 67.5 -23.5t25.5 -60.5q0 -45 -30 -71.5t-74 -26.5zM307 -11q-135 0 -208.5 71.5t-73.5 193.5q0 193 116.5 324.5t303.5 131.5q65 0 115 -10h167l-56 -243h-146l-7 92q-22 9 -54 9q-87 0 -142.5 -89.5
t-56.5 -220.5q0 -59 20 -86.5t65 -27.5q22 0 47 7l21 95h-49l28 122h314l-29 -125h-18q-9 0 -19 -9.5t-12 -18.5l-47 -205h-117q-5 20 -23 20q-60 -31 -139 -31z" />
    <glyph glyph-name="Hcircumflex.titling" horiz-adv-x="759" 
d="M-51 0l28 123h33q8 0 18.5 10.5t12.5 18.5l90 392q2 9 -2.5 18.5t-13.5 9.5h-34l30 128h347l-30 -128h-56l-37 -158h159l36 158h-56l29 128h348l-30 -128h-32q-9 0 -19 -9.5t-12 -18.5l-90 -392q-2 -9 3 -19t13 -10h34l-28 -123h-348l28 123h57l39 172h-158l-40 -172h57
l-28 -123h-348zM336 721l9 40l94 103h142l61 -103l-9 -40h-84l-52 47l-71 -47h-90z" />
    <glyph glyph-name="Imacron.titling" horiz-adv-x="376" 
d="M155 737l28 120h285l-28 -120h-285zM-51 0l28 123h38q8 0 18.5 10.5t12.5 18.5l90 392q2 9 -2.5 18.5t-13.5 9.5h-39l30 128h357l-29 -128h-38q-9 0 -18.5 -9.5t-11.5 -18.5l-91 -392q-2 -9 3 -19t13 -10h39l-28 -123h-358z" />
    <glyph glyph-name="Idotaccent.titling" horiz-adv-x="376" 
d="M301 722q-42 0 -67.5 23.5t-25.5 60.5q0 45 30 71.5t74 26.5q42 0 67.5 -23.5t25.5 -60.5q0 -46 -30 -72t-74 -26zM-51 0l28 123h38q8 0 18.5 10.5t12.5 18.5l90 392q2 9 -2.5 18.5t-13.5 9.5h-39l30 128h357l-29 -128h-38q-9 0 -18.5 -9.5t-11.5 -18.5l-91 -392
q-2 -9 3 -19t13 -10h39l-28 -123h-358z" />
    <glyph glyph-name="Jcircumflex.titling" horiz-adv-x="538" 
d="M306 721l9 40l94 103h142l61 -103l-9 -40h-84l-52 47l-71 -47h-90zM161 -8q-125 0 -204 38l34 150h113q15 -42 58 -42q46 0 61 60l79 346q2 9 -2.5 18.5t-13.5 9.5h-42l30 128h358l-30 -128h-35q-9 0 -18.5 -9.5t-11.5 -18.5l-76 -326q-28 -122 -94 -174t-206 -52z" />
    <glyph glyph-name="Lacute.titling" horiz-adv-x="605" 
d="M-51 0l28 123h33q8 0 18.5 10.5t12.5 18.5l90 392q2 9 -2.5 18.5t-13.5 9.5h-34l30 128h370l-30 -128h-79l-102 -438h134l49 124h142l-59 -258h-587zM210 721l49 143h200l-13 -56l-110 -87h-126z" />
    <glyph glyph-name="Nacute.titling" horiz-adv-x="727" 
d="M-51 0l28 123h33q8 0 18.5 10.5t12.5 18.5l90 392q2 9 -2.5 18.5t-13.5 9.5h-34l30 128h282l116 -373h3l57 245h-61l30 128h282l-30 -128h-29q-9 0 -19 -9.5t-12 -18.5l-125 -544h-197l-137 414h-3l-67 -291h64l-28 -123h-288zM388 721l49 143h200l-13 -56l-110 -87h-126
z" />
    <glyph glyph-name="Ncaron.titling" horiz-adv-x="727" 
d="M-51 0l28 123h33q8 0 18.5 10.5t12.5 18.5l90 392q2 9 -2.5 18.5t-13.5 9.5h-34l30 128h282l116 -373h3l57 245h-61l30 128h282l-30 -128h-29q-9 0 -19 -9.5t-12 -18.5l-125 -544h-197l-137 414h-3l-67 -291h64l-28 -123h-288zM397 721l-61 103l9 40h84l52 -48l71 48h90
l-9 -40l-94 -103h-142z" />
    <glyph glyph-name="Omacron.titling" horiz-adv-x="737" 
d="M317 742l28 120h285l-28 -120h-285zM345 -11q-150 0 -235 76.5t-85 210.5q0 187 122 310.5t294 123.5q142 0 226.5 -77.5t84.5 -210.5q0 -192 -117.5 -312.5t-289.5 -120.5zM355 136q71 0 117 87.5t46 200.5q0 129 -96 129q-72 0 -117.5 -86t-45.5 -203q0 -128 96 -128z
" />
    <glyph glyph-name="Ohungarumlaut.titling" horiz-adv-x="737" 
d="M345 -11q-150 0 -235 76.5t-85 210.5q0 187 122 310.5t294 123.5q142 0 226.5 -77.5t84.5 -210.5q0 -192 -117.5 -312.5t-289.5 -120.5zM355 136q71 0 117 87.5t46 200.5q0 129 -96 129q-72 0 -117.5 -86t-45.5 -203q0 -128 96 -128zM495 726l42 143h167l-12 -53l-87 -90
h-110zM299 726l43 143h167l-13 -53l-87 -90h-110z" />
    <glyph glyph-name="Racute.titling" horiz-adv-x="708" 
d="M-51 0l28 123h33q8 0 18.5 10.5t12.5 18.5l90 392q2 9 -2.5 18.5t-13.5 9.5h-34l30 128h334q132 0 198 -46t66 -128q0 -76 -48 -125.5t-138 -67.5v-4q46 -11 68.5 -39.5t31.5 -96.5l6 -45q4 -25 22 -25h16l-28 -123h-235l-9 190q-2 45 -14.5 61t-46.5 16h-33l-33 -144h63
l-28 -123h-354zM364 563l-40 -175h40q107 0 107 111q0 64 -73 64h-34zM340 721l49 143h200l-13 -56l-110 -87h-126z" />
    <glyph glyph-name="Rcaron.titling" horiz-adv-x="708" 
d="M349 721l-61 103l9 40h84l52 -48l71 48h90l-9 -40l-94 -103h-142zM-51 0l28 123h33q8 0 18.5 10.5t12.5 18.5l90 392q2 9 -2.5 18.5t-13.5 9.5h-34l30 128h334q132 0 198 -46t66 -128q0 -76 -48 -125.5t-138 -67.5v-4q46 -11 68.5 -39.5t31.5 -96.5l6 -45q4 -25 22 -25
h16l-28 -123h-235l-9 190q-2 45 -14.5 61t-46.5 16h-33l-33 -144h63l-28 -123h-354zM364 563l-40 -175h40q107 0 107 111q0 64 -73 64h-34z" />
    <glyph glyph-name="Sacute.titling" horiz-adv-x="555" 
d="M245 -11q-66 0 -136 11h-155l50 220h150l4 -87q24 -8 61 -8q43 0 68 17.5t25 50.5q0 15 -4.5 25t-19 20t-26 15l-40.5 18q-37 15 -60.5 28t-49 35t-37.5 53t-12 73q0 116 77.5 183.5t212.5 67.5q72 0 134 -11h130l-48 -203h-145l-5 78q-24 8 -54 8q-42 0 -66 -17.5
t-24 -50.5q0 -25 14.5 -38t48.5 -28q53 -21 86 -38.5t60 -41.5t38.5 -55.5t11.5 -73.5q0 -113 -74 -182t-215 -69zM298 726l49 143h200l-13 -56l-110 -87h-126z" />
    <glyph glyph-name="Scircumflex.titling" horiz-adv-x="555" 
d="M245 -11q-66 0 -136 11h-155l50 220h150l4 -87q24 -8 61 -8q43 0 68 17.5t25 50.5q0 15 -4.5 25t-19 20t-26 15l-40.5 18q-37 15 -60.5 28t-49 35t-37.5 53t-12 73q0 116 77.5 183.5t212.5 67.5q72 0 134 -11h130l-48 -203h-145l-5 78q-24 8 -54 8q-42 0 -66 -17.5
t-24 -50.5q0 -25 14.5 -38t48.5 -28q53 -21 86 -38.5t60 -41.5t38.5 -55.5t11.5 -73.5q0 -113 -74 -182t-215 -69zM232 726l9 40l94 103h142l61 -103l-9 -40h-84l-52 47l-71 -47h-90z" />
    <glyph glyph-name="Tcaron.titling" horiz-adv-x="677" 
d="M99 0l28 123h37q8 0 18.5 10.5t12.5 18.5l95 414h-55l-47 -129h-136l60 263h653l-61 -263h-138l11 129h-53l-95 -414q-2 -9 3 -19t13 -10h38l-28 -123h-356zM362 721l-61 103l9 40h84l52 -48l71 48h90l-9 -40l-94 -103h-142z" />
    <glyph glyph-name="Umacron.titling" horiz-adv-x="726" 
d="M349 737l28 120h285l-28 -120h-285zM344 -8q-174 0 -242 74t-37 207l62 271q2 9 -2.5 18.5t-13.5 9.5h-30l29 128h356l-30 -128h-68l-76 -328q-25 -107 81 -107q48 0 72.5 24t36.5 79l76 332h-69l30 128h297l-30 -128h-28q-9 0 -19 -9.5t-12 -18.5l-72 -311
q-29 -124 -104.5 -182.5t-206.5 -58.5z" />
    <glyph glyph-name="Ubreve.titling" horiz-adv-x="726" 
d="M504 720q-113 0 -140 88l13 56h92q0 -35 38 -35t50 35h100l-16 -69q-17 -32 -52 -53.5t-85 -21.5zM344 -8q-174 0 -242 74t-37 207l62 271q2 9 -2.5 18.5t-13.5 9.5h-30l29 128h356l-30 -128h-68l-76 -328q-25 -107 81 -107q48 0 72.5 24t36.5 79l76 332h-69l30 128h297
l-30 -128h-28q-9 0 -19 -9.5t-12 -18.5l-72 -311q-29 -124 -104.5 -182.5t-206.5 -58.5z" />
    <glyph glyph-name="Uring.titling" horiz-adv-x="726" 
d="M498 709q-45 0 -75 27t-30 70q0 51 33.5 80t80.5 29q44 0 74 -27t30 -70q0 -51 -33.5 -80t-79.5 -29zM499 763q22 0 36 14t14 39q0 21 -12 33.5t-33 12.5t-34.5 -14.5t-13.5 -40.5q0 -20 11.5 -32t31.5 -12zM344 -8q-174 0 -242 74t-37 207l62 271q2 9 -2.5 18.5
t-13.5 9.5h-30l29 128h356l-30 -128h-68l-76 -328q-25 -107 81 -107q48 0 72.5 24t36.5 79l76 332h-69l30 128h297l-30 -128h-28q-9 0 -19 -9.5t-12 -18.5l-72 -311q-29 -124 -104.5 -182.5t-206.5 -58.5z" />
    <glyph glyph-name="Uhungarumlaut.titling" horiz-adv-x="726" 
d="M531 721l42 143h167l-12 -53l-87 -90h-110zM335 721l43 143h167l-13 -53l-87 -90h-110zM344 -8q-174 0 -242 74t-37 207l62 271q2 9 -2.5 18.5t-13.5 9.5h-30l29 128h356l-30 -128h-68l-76 -328q-25 -107 81 -107q48 0 72.5 24t36.5 79l76 332h-69l30 128h297l-30 -128
h-28q-9 0 -19 -9.5t-12 -18.5l-72 -311q-29 -124 -104.5 -182.5t-206.5 -58.5z" />
    <glyph glyph-name="Zacute.titling" horiz-adv-x="589" 
d="M331 721l49 143h200l-13 -56l-110 -87h-126zM-51 0l36 153l395 405v4h-131l-39 -84h-135l51 222h549l-37 -157l-395 -405v-4h142l43 98h142l-54 -232h-567z" />
    <glyph glyph-name="Zdotaccent.titling" horiz-adv-x="589" 
d="M417 722q-42 0 -67.5 23.5t-25.5 60.5q0 45 30 71.5t74 26.5q42 0 67.5 -23.5t25.5 -60.5q0 -46 -30 -72t-74 -26zM-51 0l36 153l395 405v4h-131l-39 -84h-135l51 222h549l-37 -157l-395 -405v-4h142l43 98h142l-54 -232h-567z" />
    <glyph glyph-name="Racute.titlingalt" horiz-adv-x="717" 
d="M541 -9q-73 0 -107 28.5t-37 96.5l-4 75q-1 44 -16.5 60t-47.5 16h-28l-33 -144h63l-28 -123h-354l28 123h33q8 0 18.5 10.5t12.5 18.5l90 392q2 9 -3.5 18.5t-14.5 9.5h-32l30 128h334q132 0 198 -46t66 -128q0 -76 -48 -125.5t-138 -67.5v-4q41 -12 64.5 -41.5
t36.5 -94.5l10 -52q1 -6 8.5 -12t13.5 -6h20l-25 -110q-48 -22 -110 -22zM364 563l-40 -175h40q107 0 107 111q0 64 -73 64h-34zM334 721l49 143h200l-13 -56l-110 -87h-126z" />
    <glyph glyph-name="Rcaron.titlingalt" horiz-adv-x="717" 
d="M541 -9q-73 0 -107 28.5t-37 96.5l-4 75q-1 44 -16.5 60t-47.5 16h-28l-33 -144h63l-28 -123h-354l28 123h33q8 0 18.5 10.5t12.5 18.5l90 392q2 9 -3.5 18.5t-14.5 9.5h-32l30 128h334q132 0 198 -46t66 -128q0 -76 -48 -125.5t-138 -67.5v-4q41 -12 64.5 -41.5
t36.5 -94.5l10 -52q1 -6 8.5 -12t13.5 -6h20l-25 -110q-48 -22 -110 -22zM364 563l-40 -175h40q107 0 107 111q0 64 -73 64h-34zM343 721l-61 103l9 40h84l52 -48l71 48h90l-9 -40l-94 -103h-142z" />
    </font>
</defs>
</svg>
